/* XPM */
static char * tesoreria_xpm[] = {
"22 22 235 2",
"  	c None",
". 	c #FFFFFF",
"+ 	c #BABABA",
"@ 	c #CCCCCC",
"# 	c #C3C3C3",
"$ 	c #BDBDBD",
"% 	c #C9C5C2",
"& 	c #BEBACA",
"* 	c #A9C9B8",
"= 	c #F0FFF1",
"- 	c #FFFDFF",
"; 	c #E6E6E6",
"> 	c #A8A8A8",
", 	c #6A9A83",
"' 	c #005619",
") 	c #025594",
"! 	c #91DB95",
"~ 	c #FFDEFF",
"{ 	c #E8E8E8",
"] 	c #9E9E9F",
"^ 	c #F7F7F7",
"/ 	c #DDDDDD",
"( 	c #E2E2E2",
"_ 	c #E5E5E5",
": 	c #E9E5E4",
"< 	c #F6DAEA",
"[ 	c #988DA8",
"} 	c #005313",
"| 	c #005890",
"1 	c #0056DE",
"2 	c #85B295",
"3 	c #FFEFFF",
"4 	c #E9E9E9",
"5 	c #A7A7A7",
"6 	c #E7E9E7",
"7 	c #B6B6B6",
"8 	c #C5C7C7",
"9 	c #D4D4D4",
"0 	c #D8D8D8",
"a 	c #C7C7C7",
"b 	c #C2BFBE",
"c 	c #C3ABB3",
"d 	c #B47FC0",
"e 	c #00543A",
"f 	c #0055AE",
"g 	c #0055EE",
"h 	c #147490",
"i 	c #C9C1CF",
"j 	c #A3A3A3",
"k 	c #F9F9F9",
"l 	c #E0DFDF",
"m 	c #E6E5E5",
"n 	c #E4E4E4",
"o 	c #F6F7F7",
"p 	c #EDEBED",
"q 	c #CED0CE",
"r 	c #B0AFB1",
"s 	c #CBA9B7",
"t 	c #7569A1",
"u 	c #006049",
"v 	c #0053C7",
"w 	c #0059F9",
"x 	c #0055F0",
"y 	c #AAC1B5",
"z 	c #A4A4A4",
"A 	c #E9E9EB",
"B 	c #C5C2C2",
"C 	c #CECECE",
"D 	c #9E9F9E",
"E 	c #A798A1",
"F 	c #987E9A",
"G 	c #005E53",
"H 	c #005A7F",
"I 	c #005D28",
"J 	c #005C48",
"K 	c #006147",
"L 	c #A1AFBA",
"M 	c #A2A2A2",
"N 	c #F3F3F3",
"O 	c #E1E1E1",
"P 	c #EEEEEE",
"Q 	c #F2F2F2",
"R 	c #FCFCFC",
"S 	c #F8F8F8",
"T 	c #E3E4E3",
"U 	c #C3C2C2",
"V 	c #BFB8B9",
"W 	c #B5ACB5",
"X 	c #106E47",
"Y 	c #3F6E63",
"Z 	c #8D70AF",
"` 	c #A582BB",
" .	c #9289AF",
"..	c #495B6B",
"+.	c #E6E2E3",
"@.	c #EAEBEB",
"#.	c #C8CACA",
"$.	c #EAEAEA",
"%.	c #C0C0C0",
"&.	c #A1A2A2",
"*.	c #9A9695",
"=.	c #949197",
"-.	c #9D8CAC",
";.	c #BFA2B7",
">.	c #B8A5A5",
",.	c #AB9E9B",
"'.	c #DBD1CD",
").	c #837B7A",
"!.	c #A4A4A5",
"~.	c #BEBEBE",
"{.	c #B0B0B0",
"].	c #B5B5B5",
"^.	c #ACACAC",
"/.	c #898989",
"(.	c #777777",
"_.	c #747474",
":.	c #737271",
"<.	c #9D9C95",
"[.	c #A1A09D",
"}.	c #959696",
"|.	c #B2B3B2",
"1.	c #C9C9CA",
"2.	c #767676",
"3.	c #CBCCCC",
"4.	c #ADADAD",
"5.	c #B2B2B2",
"6.	c #C9C9C9",
"7.	c #FBFBFB",
"8.	c #F0F0F0",
"9.	c #616161",
"0.	c #2A2A2A",
"a.	c #D3D4D4",
"b.	c #C2C2C2",
"c.	c #EAE9E9",
"d.	c #797777",
"e.	c #ECECEC",
"f.	c #717171",
"g.	c #8A8A8A",
"h.	c #363636",
"i.	c #B9B9B9",
"j.	c #CDCDCD",
"k.	c #787878",
"l.	c #C1C1C1",
"m.	c #BCBCBC",
"n.	c #F5F5F5",
"o.	c #C5C5C5",
"p.	c #4D4D4D",
"q.	c #9D9D9D",
"r.	c #DCDCDC",
"s.	c #434343",
"t.	c #CACACA",
"u.	c #FEFEFE",
"v.	c #7B7B7B",
"w.	c #969696",
"x.	c #989898",
"y.	c #9F9F9F",
"z.	c #B8B9B9",
"A.	c #D9D9D9",
"B.	c #DFDFDF",
"C.	c #E0E0E0",
"D.	c #DBDBDB",
"E.	c #9A9A9A",
"F.	c #595959",
"G.	c #B4B4B4",
"H.	c #C8C8C8",
"I.	c #373737",
"J.	c #7A7A7A",
"K.	c #BFBFBF",
"L.	c #919191",
"M.	c #838383",
"N.	c #757575",
"O.	c #727272",
"P.	c #626262",
"Q.	c #474747",
"R.	c #323232",
"S.	c #D2D2D2",
"T.	c #2F2F2F",
"U.	c #A5A5A5",
"V.	c #B3B3B3",
"W.	c #797979",
"X.	c #909090",
"Y.	c #FAFAFA",
"Z.	c #BBBBBB",
"`.	c #6A6A6A",
" +	c #8B8B8B",
".+	c #F1F1F1",
"++	c #828282",
"@+	c #AFAFAF",
"#+	c #7C7C7C",
"$+	c #C6C6C6",
"%+	c #8F8F8F",
"&+	c #343434",
"*+	c #9C9C9C",
"=+	c #AEAEAE",
"-+	c #DADADA",
";+	c #505050",
">+	c #E7E7E7",
",+	c #939393",
"'+	c #9B9B9B",
")+	c #545454",
"!+	c #414141",
"~+	c #ABABAB",
"{+	c #393939",
"]+	c #9E9E9E",
"^+	c #AAAAAA",
"/+	c #7D7D7D",
"(+	c #6E6E6E",
"_+	c #313131",
":+	c #5D5D5D",
"<+	c #878787",
"[+	c #979797",
"}+	c #8D8D8D",
"|+	c #666666",
"1+	c #A6A6A6",
"2+	c #5A5A5A",
"3+	c #A0A0A0",
"4+	c #959595",
"5+	c #707070",
"6+	c #5E5E5E",
"7+	c #636363",
"8+	c #D0D0D0",
"9+	c #CFCFCF",
"0+	c #A1A1A1",
"a+	c #6F6F6F",
"b+	c #F6F6F6",
"c+	c #1E1E1E",
"d+	c #191919",
"e+	c #6D6D6D",
"f+	c #6B6B6B",
"g+	c #676767",
"h+	c #686868",
"i+	c #606060",
"j+	c #4E4E4E",
"k+	c #EDEDED",
"l+	c #EBEBEB",
". . . + @ # $ $ % & * = - . . . . . . . . . ",
". . ; > . . . . . - , ' ) ! ~ . . . . . . . ",
". . { ] ^ / ( ( _ : < [ } | 1 2 3 . . . . . ",
". . 4 5 6 7 8 9 0 a b c d e f g h i . . . . ",
". . 4 j k l m n o p q r s t u v w x y . . . ",
". . 4 z A B 9 C 9 9 a D E F G H I J K L . . ",
". . 4 M N O P Q R S T U V W X Y Z `  ...+.. ",
". . { M @.#.$.{ 9 ; %.&.*.=.-.;.>.,.'.).# . ",
". . $.!.Q 9 ~.{.].^./.(._.:.<.[.}.|.1.2.# . ",
". . P &.3.j 4.5.6.$.. . 7.. 8.9.0.a./ (.b.. ",
". . c.d.C e.. . . . . R . ( f.g.h.i.j.k.l.. ",
". . m.8.. . . . . R n.7.o.p.q.r.s.%.t.2.l.. ",
"u.v.w.x.y.z.j.A.B.C.D.E.F.G.e.H.I.G.%.J.K.. ",
". k.g.z L.M.2.N.O.P.Q.R.{.n.S.+ T.U.V.W.~.. ",
". { X.. . . . Y.Z.`. +.+$ ++@+].R.> 5.2.K.. ",
". . #+$+7.^ . . $+. . . . t.%+5.&+*+=+N.~.. ",
". . -+;+8.>+{ V.,+. . . . .+'+)+!+j ~+2.K.. ",
". . . {+]+$.^+/+. . ^.(+!+_+:+<+[+}+[+2.~.. ",
". . . J.|+$ M C.1+2+:+k.3+G.4.M g.<+4+_.$ . ",
". . n.M 5+M.b.6+7+@+8+9+o.m.G.=+5 0+*+a++ . ",
". . b+`.|+c+d+{+#+N.(+e+e+f+g+h+h+h+i+j+~.. ",
". . . e.P 6.$+7.k+>+_ _ ; ; >+>+4 l+>+O u.. "};
