/* XPM */
static char * flhoras_xpm[] = {
"22 22 217 2",
"  	c None",
". 	c #595B58",
"+ 	c #5F615E",
"@ 	c #595D58",
"# 	c #545753",
"$ 	c #595C58",
"% 	c #5D605B",
"& 	c #585956",
"* 	c #5C5F5C",
"= 	c #5F625F",
"- 	c #9C9E9C",
"; 	c #C8C9C7",
"> 	c #D8D9D8",
", 	c #DEDFDE",
"' 	c #CECECD",
") 	c #B5B7B4",
"! 	c #8C8E8B",
"~ 	c #5B5E5B",
"{ 	c #A8A9A7",
"] 	c #EAEAEA",
"^ 	c #A4A6A7",
"/ 	c #65696A",
"( 	c #414749",
"_ 	c #32383A",
": 	c #404648",
"< 	c #5E6263",
"[ 	c #8D8F8F",
"} 	c #BDBEBC",
"| 	c #8E908C",
"1 	c #595C57",
"2 	c #5D615D",
"3 	c #C9CAC9",
"4 	c #AFB1B2",
"5 	c #424749",
"6 	c #777B7C",
"7 	c #C2C4C4",
"8 	c #FAFAFA",
"9 	c #75797A",
"0 	c #3F4446",
"a 	c #8F9291",
"b 	c #A3A5A2",
"c 	c #5A5D5A",
"d 	c #5C5F5B",
"e 	c #C6C7C5",
"f 	c #929696",
"g 	c #4A4F51",
"h 	c #D5D6D7",
"i 	c #FFFFFF",
"j 	c #2B2B2B",
"k 	c #494E4F",
"l 	c #7B7F7E",
"m 	c #9FA29E",
"n 	c #575B56",
"o 	c #A3A4A2",
"p 	c #A9ABAA",
"q 	c #4C5153",
"r 	c #EFF0F0",
"s 	c #FCFCFC",
"t 	c #CBCBCB",
"u 	c #FBFBFC",
"v 	c #E6E8EB",
"w 	c #4D5152",
"x 	c #8A8D8C",
"y 	c #858885",
"z 	c #CBCCCB",
"A 	c #DFE0E0",
"B 	c #262626",
"C 	c #ECECEC",
"D 	c #E2E2E2",
"E 	c #E5E6E9",
"F 	c #233248",
"G 	c #F8F8F9",
"H 	c #DFE0E1",
"I 	c #4A4E4F",
"J 	c #A1A3A0",
"K 	c #565A56",
"L 	c #525452",
"M 	c #878986",
"N 	c #7D8182",
"O 	c #C3C3C3",
"P 	c #FEFEFE",
"Q 	c #E3E8F0",
"R 	c #5B769D",
"S 	c #DADCDE",
"T 	c #7F8283",
"U 	c #777A79",
"V 	c #717471",
"W 	c #4C504E",
"X 	c #515553",
"Y 	c #A4A6A3",
"Z 	c #5B6061",
"` 	c #C3C5C5",
" .	c #C8D2E1",
"..	c #44679A",
"+.	c #D3D8E0",
"@.	c #FCEAEA",
"#.	c #C5C7C7",
"$.	c #595D5D",
"%.	c #858784",
"&.	c #4B4F4C",
"*.	c #4A4E4C",
"=.	c #ACAEAC",
"-.	c #3E4345",
";.	c #EAEBEB",
">.	c #A4B5CE",
",.	c #2A528C",
"'.	c #B7C2D1",
").	c #F57E7E",
"!.	c #FDE2E2",
"~.	c #EBECEC",
"{.	c #444849",
"].	c #8B8D8A",
"^.	c #454848",
"/.	c #414544",
"(.	c #ADAFAC",
"_.	c #2C2C2C",
":.	c #E5E5E5",
"<.	c #FBFBFB",
"[.	c #DAE1EB",
"}.	c #060F1B",
"|.	c #95A6BF",
"1.	c #F8F8F8",
"2.	c #DE7F7F",
"3.	c #C35A5A",
"4.	c #3C4141",
"5.	c #8C8E8A",
"6.	c #3D4241",
"7.	c #414746",
"8.	c #9EA09D",
"9.	c #3E4446",
"0.	c #EBEBEB",
"a.	c #D7DEE8",
"b.	c #C3CAD5",
"c.	c #F4F4F4",
"d.	c #F57575",
"e.	c #F03737",
"f.	c #454A4A",
"g.	c #818480",
"h.	c #3E4242",
"i.	c #414646",
"j.	c #898C89",
"k.	c #575C5C",
"l.	c #C4C6C6",
"m.	c #F03333",
"n.	c #C7C8C8",
"o.	c #575B5B",
"p.	c #757875",
"q.	c #3C4142",
"r.	c #3A3E40",
"s.	c #656967",
"t.	c #727573",
"u.	c #7E8182",
"v.	c #C2C2C2",
"w.	c #C08383",
"x.	c #DB2626",
"y.	c #F46B6B",
"z.	c #838686",
"A.	c #6A6D6A",
"B.	c #5C5F5E",
"C.	c #383C3C",
"D.	c #3D4243",
"E.	c #4A4E4E",
"F.	c #E0E1E1",
"G.	c #EDEDED",
"H.	c #EEEEEE",
"I.	c #251717",
"J.	c #F7D8D8",
"K.	c #E1E2E2",
"L.	c #505453",
"M.	c #848783",
"N.	c #393F41",
"O.	c #35393B",
"P.	c #646866",
"Q.	c #717472",
"R.	c #505454",
"S.	c #F0F0F0",
"T.	c #F0F1F1",
"U.	c #555958",
"V.	c #727471",
"W.	c #636766",
"X.	c #303638",
"Y.	c #323739",
"Z.	c #767975",
"`.	c #656867",
" +	c #4F5353",
".+	c #D7D8D8",
"++	c #D8D9D9",
"@+	c #545858",
"#+	c #686B69",
"$+	c #33383A",
"%+	c #737674",
"&+	c #6D706E",
"*+	c #464B4B",
"=+	c #7B7E7E",
"-+	c #C6C8C7",
";+	c #FAFBFB",
">+	c #7D8080",
",+	c #6F7270",
"'+	c #313637",
")+	c #5D6160",
"!+	c #81837F",
"~+	c #686C69",
"{+	c #585B5B",
"]+	c #4A4D4D",
"^+	c #404543",
"/+	c #4B4F4E",
"(+	c #5A5D5C",
"_+	c #696D6A",
":+	c #303536",
"<+	c #34393B",
"[+	c #565A59",
"}+	c #7E7F7D",
"|+	c #2F3435",
"1+	c #2A2F31",
"2+	c #313739",
"3+	c #2E3435",
"4+	c #292E30",
"              . + @ # $ % &                 ",
"          * = - ; > , ' ) ! * ~             ",
"        ~ { ] ^ / ( _ : < [ } | 1           ",
"      2 3 4 5 6 7 ] 8 ] 7 9 0 a b c         ",
"    d e f g h i i i j i i i h k l m n       ",
"  * o p q r s i i i t i i i u v w x y &     ",
"  2 z g A s B C i i D i i E F G H I J K     ",
"L M [ N i i C O P i 8 i Q R S i i T U V W   ",
"X Y Z ` i i i P i i i  ...+.@.i i #.$.%.&.  ",
"*.=.-.;.i i i i i i >.,.'.s ).!.i ~.{.].^.  ",
"/.(._ 8 _.t :.<.i [.}.|.1.s 2.3._.8 4.5.6.  ",
"7.8.9.0.i i i i i a.b.c.i i d.e.i ~.f.g.h.  ",
"i.j.k.l.i i i P i <.<.i i @.m.m.i n.o.p.q.  ",
"r.s.t.u.i i C v.P i i i i w.x.y.i z.A.B.C.  ",
"  D.| E.F.s B G.i i i i i H.I.J.K.L.M.N.    ",
"  O.P.Q.R.S.s i i i i i i i s T.U.V.W.X.    ",
"    Y.Z.`. +.+i i i i i i i ++@+#+Z.Y.      ",
"      $+%+&+*+=+-+~.;+~.n.>+E.,+%+$+        ",
"        '+)+!+~+{+]+^+/+(+_+!+)+'+          ",
"          :+<+[+Q.}+M.}+Q.[+<+|+            ",
"              1+2+X.3+X.2+4+                ",
"                                            "};
