/* XPM */
static char * asistentes_xpm[] = {
"32 32 144 2",
"  	c None",
". 	c #FFFFFF",
"+ 	c #BFBFBF",
"@ 	c #7F7F7F",
"# 	c #3F3F3F",
"$ 	c #F6F6F9",
"% 	c #FDFDFE",
"& 	c #F1F1F6",
"* 	c #BDBDD3",
"= 	c #BABAD2",
"- 	c #B7B7CA",
"; 	c #F7F7F9",
"> 	c #E5E5ED",
", 	c #BEBED2",
"' 	c #CACADC",
") 	c #FCFCFD",
"! 	c #ACACC6",
"~ 	c #F8F8F9",
"{ 	c #F2F2F5",
"] 	c #DADAE4",
"^ 	c #C9C9DA",
"/ 	c #DFDFEA",
"( 	c #F8F8FB",
"_ 	c #FBFBFC",
": 	c #EAEAEF",
"< 	c #D1D1DC",
"[ 	c #BEBED3",
"} 	c #BFBFCE",
"| 	c #FDFDFD",
"1 	c #EAEAEE",
"2 	c #D9D9E3",
"3 	c #D5D5E1",
"4 	c #F5F5F7",
"5 	c #E4E4E9",
"6 	c #CECED9",
"7 	c #C6C6D6",
"8 	c #D3D3E2",
"9 	c #D3D3E3",
"0 	c #A6A6C1",
"a 	c #FEFEFE",
"b 	c #D6D6DF",
"c 	c #E5E5EC",
"d 	c #E5DFDB",
"e 	c #CEBEB1",
"f 	c #C2AB9B",
"g 	c #E7E4E6",
"h 	c #DADAE2",
"i 	c #E2E2E9",
"j 	c #D8D8E6",
"k 	c #CFCFDE",
"l 	c #BFBFD1",
"m 	c #C0C0D1",
"n 	c #9999BA",
"o 	c #FAFAFC",
"p 	c #D4D4DD",
"q 	c #F3F1EF",
"r 	c #C9B497",
"s 	c #D0B894",
"t 	c #B0835D",
"u 	c #E3C8AE",
"v 	c #F0F0F4",
"w 	c #D1D1DF",
"x 	c #BDBDD0",
"y 	c #C4C4D5",
"z 	c #D2D2E1",
"A 	c #C3C3D7",
"B 	c #B8B8CE",
"C 	c #E8E8ED",
"D 	c #CEC4BF",
"E 	c #A77A39",
"F 	c #A16D36",
"G 	c #F6B776",
"H 	c #E5B98A",
"I 	c #DCDCE5",
"J 	c #D0D0DE",
"K 	c #D5D5E3",
"L 	c #CCCCDB",
"M 	c #C8C8D7",
"N 	c #D9D9E5",
"O 	c #9494B6",
"P 	c #CECCD5",
"Q 	c #000000",
"R 	c #EBB575",
"S 	c #E4B47C",
"T 	c #E5E5EF",
"U 	c #C9C9D8",
"V 	c #C4C4D4",
"W 	c #D8D8E4",
"X 	c #CCCCDA",
"Y 	c #C3C3D2",
"Z 	c #AFAFCA",
"` 	c #D7D7E2",
" .	c #E9E6EB",
"..	c #C6BEBD",
"+.	c #8FA8CC",
"@.	c #6FA3E6",
"#.	c #8CA3D6",
"$.	c #D8D8E5",
"%.	c #D7D7E3",
"&.	c #C9C9D7",
"*.	c #CACAD7",
"=.	c #DBDBE5",
"-.	c #E0E0EC",
";.	c #ABABC9",
">.	c #A5A5BD",
",.	c #E9E9EE",
"'.	c #D4D4E3",
").	c #86AFE5",
"!.	c #57ADFF",
"~.	c #2298FF",
"{.	c #187DE6",
"].	c #ABB0D1",
"^.	c #D4D4DF",
"/.	c #E3E3EC",
"(.	c #D7D7E6",
"_.	c #A1A1C1",
":.	c #80809F",
"<.	c #C5C5D2",
"[.	c #FAFAFB",
"}.	c #BFBFD2",
"|.	c #69A2E4",
"1.	c #1F8BF3",
"2.	c #4B91E1",
"3.	c #8EA2D4",
"4.	c #D4D5E7",
"5.	c #C5C5D9",
"6.	c #9D9DB9",
"7.	c #9292A9",
"8.	c #DFDFE4",
"9.	c #D6D6E1",
"0.	c #B3C1E0",
"a.	c #B7C6E5",
"b.	c #D9DAE9",
"c.	c #B5B5CB",
"d.	c #9D9DB6",
"e.	c #B0B0BD",
"f.	c #F0F0F2",
"g.	c #EBEBF0",
"h.	c #BCBCD1",
"i.	c #B6B6CA",
"j.	c #ABABBC",
"k.	c #C9C9CD",
"l.	c #EDEDF2",
"m.	c #F4F4F5",
". . . . . . . . . . . . . . . . . . . . . . . . . . . . . . . . ",
". . . . . . . . . . . . . . . . . . . . . . . . . . . . . . . . ",
". . . . . . . . . . . . . . . . . . . . . . . . . . . . . . . . ",
". . . . . . . . . . . . . . . . . . . . . . . . . . . . . . . . ",
". . . . . . . . . . . . . . . . . . . . . . . . . . . . . . . . ",
". . . . . . . . . . . . . . . . . . . . . . . . . . . . . . . . ",
". . . . . . + @ @ @ @ @ @ @ @ @ @ @ @ @ @ @ @ @ @ @ + . . . . . ",
". . . . . . @ # @ @ @ @ @ @ @ @ @ @ @ @ @ @ @ @ @ # @ . . . . . ",
". . . . . . @ @ . . . . . . . . . . . . . . . . . @ @ . . . . . ",
". . . . . . @ @ . . . . . . . . . . . $ % . . . . @ @ . . . . . ",
". . . . . . @ @ . . . . . . . . . & * = - . . . . @ @ . . . . . ",
". . . . . . @ @ . . . . . . ; > , ' & ) ! ~ . . . @ @ . . . . . ",
". . . . . . @ @ . . . . { ] ^ / ( _ : < [ } . . . @ @ . . . . . ",
". . . . . . @ @ . | 1 2 3 & ) 4 5 6 7 8 9 0 a . . @ @ . . . . . ",
". . . . . . @ @ . b c d e f g h i j k l m n o . . @ @ . . . . . ",
". . . . . . @ @ . p q r s t u v w x y z w A B . . @ @ . . . . . ",
". . . . . . @ @ . C D E F G H I J K L m M N O . . @ @ . . . . . ",
". . . . . . @ @ . 4 P Q R S Q T U V w W X Y Z ` . @ @ . . . . . ",
". . . . . . @ @ . . `  ...+.@.#.$.%.&.*.=.-.;.>.. @ @ . . . . . ",
". . . . . . @ @ . . ,.'.).!.~.{.].^./.(._.:.<.[.. @ @ . . . . . ",
". . . . . . @ @ . . | }.|.1.2.3.4.5.6.7.8.. . . . @ @ . . . . . ",
". . . . . . @ @ . . . 9.0.a.b.c.d.e.f.. . . . . . @ @ . . . . . ",
". . . . . . @ @ . . . g.h.i.j.k.. . . . . . . . . @ @ . . . . . ",
". . . . . . @ @ . . . . l.m.. . . . . . . . . . . @ @ . . . . . ",
". . . . . . @ @ . . . . . . . . . . . . . . . . . @ @ . . . . . ",
". . . . . . @ # @ @ @ @ @ @ @ @ @ @ @ @ @ @ @ @ @ # @ . . . . . ",
". . . . . . + @ @ @ @ @ @ @ @ @ @ @ @ @ @ @ @ @ @ @ + . . . . . ",
". . . . . . . . . . . . . . . . . . . . . . . . . . . . . . . . ",
". . . . . . . . . . . . . . . . . . . . . . . . . . . . . . . . ",
". . . . . . . . . . . . . . . . . . . . . . . . . . . . . . . . ",
". . . . . . . . . . . . . . . . . . . . . . . . . . . . . . . . ",
". . . . . . . . . . . . . . . . . . . . . . . . . . . . . . . . "};
