/* XPM */
static char * Informes[] = {
"32 32 12 1",
" 	c None",
".	c #FFFFFF",
"+	c #BFBFBF",
"@	c #7F7F7F",
"#	c #3F3F3F",
"$	c #5F5F5F",
"%	c #1F1F1F",
"&	c #2F2F2F",
"*	c #101010",
"=	c #0F0F0F",
"-	c #070707",
";	c #080808",
"................................",
"+@@@@@@@@@@@@@@@@@@@+...........",
"@#$################%#@+.........",
"@@@#@@@@@@@@@@@@@@@###@.........",
"@@@$@@@@@@@@@@@@@@@####+........",
"@@@&%##############%%%*$........",
"@@@%%@@@@@@@@@@@@@@###=#........",
"@@@%#+@@@@@@@@@@@@@###=%@+......",
"@@@%#@&############%%%-=%#+.....",
"@@@%#@#&###########%%%-=%=#+....",
"@@@%#@##&##########%%%-=%==#+...",
"@@@%#@####@@@@@@@@@###=%#%%%@...",
"@@@%#@###@.........@@@%#@###@...",
"@@@%#@###@.........@@@%#@###@...",
"@@@%#@###@.........@@@%#@###@...",
"@@@%#@###@.........@@@%#@###@...",
"@@@%#@###@.........@@@%#@###@...",
"@@@%#@###@.........@@@%#@###@...",
"@@@%#@###@.........@@@%#@###@...",
"@@@%#@###@.........@@@%#@###@...",
"@##=%#%%%#@@@@@@@@@#@@%#@###@...",
"+@#;=%===%##########$#%#@###@...",
"..+%%#%%%#@@@@@@@@@@@@&#@###@...",
"...#%#%%%#@@@@@@@@@@@@%#@###@...",
"...$%%===%############%$@###@...",
"...+@#%%%#@@@@@@@@@@@@@+@###@...",
".....@%%%#@@@@@@@@@@@@@@####@...",
".....+#==%###############&##@...",
"......+#=%################&#@...",
".......+#%#################&@...",
"........+@@@@@@@@@@@@@@@@@@@+...",
"................................"};
