/* XPM */
static const char * estilo_xpm[] = {
"32 32 435 2",
"  	c None",
". 	c #000000",
"+ 	c #002E00",
"@ 	c #008000",
"# 	c #009200",
"$ 	c #008900",
"% 	c #005B00",
"& 	c #000A00",
"* 	c #001B00",
"= 	c #46BB35",
"- 	c #A4F17B",
"; 	c #A2F07A",
"> 	c #6FD254",
", 	c #159D10",
"' 	c #007600",
") 	c #002500",
"! 	c #006500",
"~ 	c #006E00",
"{ 	c #006400",
"] 	c #1AAD09",
"^ 	c #70FF2C",
"/ 	c #4DFE00",
"( 	c #66FC22",
"_ 	c #7BF841",
": 	c #90E46C",
"< 	c #009000",
"[ 	c #002400",
"} 	c #004000",
"| 	c #009300",
"1 	c #3AB52C",
"2 	c #81DD61",
"3 	c #003700",
"4 	c #36DD00",
"5 	c #4CFC00",
"6 	c #4AFA00",
"7 	c #48F800",
"8 	c #6BF133",
"9 	c #26A51C",
"0 	c #004700",
"a 	c #000900",
"b 	c #003300",
"c 	c #004400",
"d 	c #001900",
"e 	c #75D758",
"f 	c #ADFF7B",
"g 	c #85FF47",
"h 	c #5AD635",
"i 	c #009100",
"j 	c #48F700",
"k 	c #4BFC00",
"l 	c #49FA00",
"m 	c #46F600",
"n 	c #48F307",
"o 	c #24A11B",
"p 	c #003D00",
"q 	c #004500",
"r 	c #008800",
"s 	c #0B8F09",
"t 	c #10910C",
"u 	c #008500",
"v 	c #005200",
"w 	c #92FF58",
"x 	c #4EFF00",
"y 	c #18B300",
"z 	c #47F800",
"A 	c #45F600",
"B 	c #43F400",
"C 	c #41F200",
"D 	c #008A00",
"E 	c #048E00",
"F 	c #22C300",
"G 	c #39E008",
"H 	c #41CE1E",
"I 	c #33A626",
"J 	c #048403",
"K 	c #004800",
"L 	c #50C935",
"M 	c #42EF00",
"N 	c #37DF00",
"O 	c #41F100",
"P 	c #2BCF00",
"Q 	c #008700",
"R 	c #0A9900",
"S 	c #33E100",
"T 	c #35E500",
"U 	c #32E200",
"V 	c #30E000",
"W 	c #33C416",
"X 	c #229A19",
"Y 	c #007E00",
"Z 	c #001000",
"` 	c #2BBA12",
" .	c #1BB600",
"..	c #16AE00",
"+.	c #43F300",
"@.	c #3FEF00",
"#.	c #13A600",
"$.	c #0A9800",
"%.	c #34E400",
"&.	c #2DDD00",
"*.	c #2BD702",
"=.	c #27A21B",
"-.	c #047F03",
";.	c #003600",
">.	c #3FEA00",
",.	c #30D500",
"'.	c #3FED00",
").	c #3EEF00",
"!.	c #35E000",
"~.	c #008400",
"{.	c #28CE00",
"].	c #2FDF00",
"^.	c #2BDA00",
"/.	c #28D800",
"(.	c #1EA710",
"_.	c #037D02",
":.	c #003500",
"<.	c #006300",
"[.	c #0FA500",
"}.	c #28C900",
"|.	c #3CEC00",
"1.	c #16AA00",
"2.	c #0A9400",
"3.	c #32E100",
"4.	c #2DDC00",
"5.	c #2ADA00",
"6.	c #28D700",
"7.	c #25D101",
"8.	c #0E8D09",
"9.	c #007700",
"0.	c #000F00",
"a.	c #005A00",
"b.	c #008F00",
"c.	c #008E00",
"d.	c #0EA100",
"e.	c #44F300",
"f.	c #18AD00",
"g.	c #17AC00",
"h.	c #2FD600",
"i.	c #008100",
"j.	c #26CA00",
"k.	c #31E100",
"l.	c #25D500",
"m.	c #109D02",
"n.	c #002C00",
"o.	c #005100",
"p.	c #23A51A",
"q.	c #85E361",
"r.	c #84FF47",
"s.	c #51EF12",
"t.	c #2FD100",
"u.	c #0E9F00",
"v.	c #0D9E00",
"w.	c #38E100",
"x.	c #56BD0B",
"y.	c #769A16",
"z.	c #8CC116",
"A.	c #5E9C10",
"B.	c #0D9700",
"C.	c #2CDC00",
"D.	c #2AD900",
"E.	c #18B100",
"F.	c #058100",
"G.	c #008600",
"H.	c #81DC61",
"I.	c #77FF35",
"J.	c #4CFD00",
"K.	c #4AFB00",
"L.	c #49F900",
"M.	c #42F000",
"N.	c #11A200",
"O.	c #048C00",
"P.	c #2CCF00",
"Q.	c #3EEE00",
"R.	c #A2B71B",
"S.	c #DE972B",
"T.	c #EABE1B",
"U.	c #ECC518",
"V.	c #E09E28",
"W.	c #BAA223",
"X.	c #38D803",
"Y.	c #1DBB00",
"Z.	c #0F9B00",
"`.	c #027C00",
" +	c #007500",
".+	c #005700",
"++	c #000700",
"@+	c #001200",
"#+	c #008D00",
"$+	c #BBFF8D",
"%+	c #48F900",
"&+	c #46F700",
"*+	c #44F500",
"=+	c #42F300",
"-+	c #20BA00",
";+	c #008200",
">+	c #5F9D10",
",+	c #F9EC08",
"'+	c #FFFF00",
")+	c #FDF803",
"!+	c #C89322",
"~+	c #677819",
"{+	c #007400",
"]+	c #007200",
"^+	c #007100",
"/+	c #007000",
"(+	c #004C00",
"_+	c #001100",
":+	c #AFF784",
"<+	c #40F100",
"[+	c #2CD100",
"}+	c #AA9820",
"|+	c #FFFE00",
"1+	c #FFF400",
"2+	c #E3BF0A",
"3+	c #784726",
"4+	c #15AB00",
"5+	c #1BBB00",
"6+	c #1FCB00",
"7+	c #1FCE00",
"8+	c #1DCC00",
"9+	c #1AC900",
"0+	c #13B600",
"a+	c #078B00",
"b+	c #006B00",
"c+	c #002800",
"d+	c #5BC144",
"e+	c #4FF908",
"f+	c #42F200",
"g+	c #40F000",
"h+	c #3DEE00",
"i+	c #2DD000",
"j+	c #1DB300",
"k+	c #AA9720",
"l+	c #F7E50B",
"m+	c #FFFD00",
"n+	c #FFEF00",
"o+	c #FFDB00",
"p+	c #F6BE02",
"q+	c #744426",
"r+	c #24D300",
"s+	c #21D000",
"t+	c #1CCB00",
"u+	c #17C600",
"v+	c #15C300",
"w+	c #12C100",
"x+	c #017A01",
"y+	c #006100",
"z+	c #002A00",
"A+	c #12A000",
"B+	c #32D600",
"C+	c #2CCD00",
"D+	c #17A800",
"E+	c #048400",
"F+	c #007C00",
"G+	c #0A8F00",
"H+	c #9F9B1E",
"I+	c #EABD1B",
"J+	c #FFFA00",
"K+	c #FFE900",
"L+	c #FFD500",
"M+	c #FFBF00",
"N+	c #CB880E",
"O+	c #6D4724",
"P+	c #088800",
"Q+	c #1BC200",
"R+	c #14C300",
"S+	c #0FBE00",
"T+	c #018701",
"U+	c #001300",
"V+	c #007800",
"W+	c #007F00",
"X+	c #0E9800",
"Y+	c #23C000",
"Z+	c #33E000",
"`+	c #5CCE0B",
" @	c #BE7E2A",
".@	c #D9B30F",
"+@	c #FFCE00",
"@@	c #FFB900",
"#@	c #E59B07",
"$@	c #7D4B24",
"%@	c #488413",
"&@	c #088600",
"*@	c #027300",
"=@	c #10A500",
"-@	c #12C000",
";@	c #0CB800",
">@	c #000C00",
",@	c #004F00",
"'@	c #17A700",
")@	c #33DD00",
"!@	c #39E900",
"~@	c #36E600",
"{@	c #468C0F",
"]@	c #724B24",
"^@	c #855221",
"/@	c #8E581F",
"(@	c #4F8115",
"_@	c #1ECD00",
":@	c #006900",
"<@	c #088A00",
"[@	c #11C000",
"}@	c #0CBB00",
"|@	c #06A300",
"1@	c #017901",
"2@	c #005600",
"3@	c #098306",
"4@	c #37CF0D",
"5@	c #3BEB00",
"6@	c #38E800",
"7@	c #27CF00",
"8@	c #22B402",
"9@	c #39B00A",
"0@	c #33A20A",
"a@	c #0F6805",
"b@	c #1AC100",
"c@	c #1BCA00",
"d@	c #19C800",
"e@	c #16C500",
"f@	c #0FAC00",
"g@	c #016B00",
"h@	c #058000",
"i@	c #079800",
"j@	c #049000",
"k@	c #017801",
"l@	c #006200",
"m@	c #003000",
"n@	c #001F00",
"o@	c #007B00",
"p@	c #5ECD3F",
"q@	c #3AEB00",
"r@	c #33E300",
"s@	c #109800",
"t@	c #0A8900",
"u@	c #25D400",
"v@	c #23D200",
"w@	c #20CF00",
"x@	c #027100",
"y@	c #11A600",
"z@	c #13C200",
"A@	c #0CAC00",
"B@	c #016800",
"C@	c #006000",
"D@	c #005300",
"E@	c #002F00",
"F@	c #219119",
"G@	c #6DDC47",
"H@	c #2EDE00",
"I@	c #1AB200",
"J@	c #1BBA00",
"K@	c #22D200",
"L@	c #0A8D00",
"M@	c #098B00",
"N@	c #11BF00",
"O@	c #0EBD00",
"P@	c #0CBA00",
"Q@	c #07A700",
"R@	c #002900",
"S@	c #003400",
"T@	c #10830C",
"U@	c #70D252",
"V@	c #39E405",
"W@	c #22C500",
"X@	c #037400",
"Y@	c #077F00",
"Z@	c #22D100",
"`@	c #0FA300",
" #	c #12BC00",
".#	c #10BF00",
"+#	c #0BBA00",
"@#	c #09B700",
"##	c #06B400",
"$#	c #028D00",
"%#	c #3BA42D",
"&#	c #50D02E",
"*#	c #2CDB00",
"=#	c #1DB700",
"-#	c #037300",
";#	c #13A400",
">#	c #18C700",
",#	c #15C400",
"'#	c #0A9C00",
")#	c #0EBC00",
"!#	c #0BB900",
"~#	c #03B100",
"{#	c #01AF00",
"]#	c #002200",
"^#	c #003900",
"/#	c #329C26",
"(#	c #44C428",
"_#	c #2BC60A",
":#	c #129C00",
"<#	c #004900",
"[#	c #006800",
"}#	c #1ABA02",
"|#	c #13C100",
"1#	c #026C00",
"2#	c #026A00",
"3#	c #08B700",
"4#	c #00A400",
"5#	c #006600",
"6#	c #003800",
"7#	c #006D00",
"8#	c #006C00",
"9#	c #005D00",
"0#	c #001A00",
"a#	c #18BC02",
"b#	c #10BE00",
"c#	c #005E00",
"d#	c #05B400",
"e#	c #00AE00",
"f#	c #00A700",
"g#	c #001400",
"h#	c #0EA801",
"i#	c #0BAA00",
"j#	c #005C00",
"k#	c #018901",
"l#	c #019B01",
"m#	c #019601",
"n#	c #018401",
"o#	c #005000",
"p#	c #000600",
"q#	c #017D01",
"r#	c #089E01",
"s#	c #0EB200",
"t#	c #0AAE00",
"u#	c #037800",
"v#	c #004A00",
"w#	c #004200",
"x#	c #017701",
"y#	c #018201",
"z#	c #017101",
"A#	c #001C00",
"B#	c #005500",
"                            . . . . . .                         ",
"                          . + @ # # $ % &                       ",
"                . . .     * # = - ; > , ' .                     ",
"            . ) ! ~ ~ + . { ] ^ / ( _ : < [                     ",
"          . } | 1 2 = # 3 $ 4 / 5 6 7 8 9 0 . a b c d .         ",
"          + | e f g g h i i j k l 7 m n o p q r s t u v .       ",
"        . ! = w x x x x y i k l z A B C D @ E F G H I J K .     ",
"        . ~ L x x x x / M < N z A B O P Q R S T U V W X Y Z     ",
"        . { ` x x x / k l  ...A +.O @.#.$.S %.U V &.*.=.-.;.    ",
"          [ i >.x / k l z ,.D '.O ).!.~.{.%.U ].&.^./.(._.:.    ",
"      . . . <.[.j k l z A B E }.).|.1.2.%.3.].4.5.6.7.8.9.0.    ",
"    & a.< < b.c.d.e.z A +.O f.g.|.h.i.j.k.].4.5.6.l.m.' n.      ",
"  . o.p.q.r.s.t.u.v.w.+.O ).x.y.z.A.B.k.].C.D.6.E.F.~ n..       ",
"  . G.H.I.J.K.L.M.N.O.P.Q.R.S.T.U.V.W.X.C.Y.Z.`. +.+++.         ",
"  @+#+$+J.K.%+&+*+=+-+;+>+V.,+'+'+)+!+~+9.'  +{+]+^+/+(+* .     ",
"  _+D :+K.%+&+*+=+<+Q.[+}+U.'+'+|+1+2+3+4+5+6+7+8+9+0+a+b+c+.   ",
"  . 9.d+e+&+*+f+g+h+i+j+k+l+'+m+n+o+p+q+r+s+7+t+9+u+v+w+x+y+.   ",
"    z+u A+t.B+C+D+E+F+G+H+I+J+K+L+M+N+O+P+Q+t+9+u+R+w+S+T+! U+  ",
"    . _+o.V+W+Y X+Y+Z+%.`+ @.@+@@@#@$@%@&@*@=@u+R+-@S+;@T+<.>@  ",
"      . ,@Y '@)@!@~@%.3.].{@]@^@/@q+(@_@t+u.:@<@[@S+}@|@1@% .   ",
"    . 2@3@4@5@6@~@%.k.].7@]+8@9@0@a@b@c@d@e@f@g@h@i@j@k@l@m@.   ",
"    n@o@p@q@6@~@r@k.].C.s@t@u@v@w@x@y@d@e@z@[@A@B@y+C@D@E@.     ",
"  . p F@G@6@~@r@k.H@C.I@~ J@K@w@8+L@M@e@z@N@O@P@Q@{ R@.         ",
"  . S@T@U@V@r@k.H@C.W@X@Y@Z@w@8+c@`@g@ #.#O@+#@###$#2@++        ",
"    0.{+%#&#V H@*#=#-#b+;#w@8+9+>#,#B@'#)#!#@###~#{#y+]#        ",
"    . ^#^+/#(#_#:#b+<#[#}#8+9+>#,#|#1#2#!#3###~#{#4#5#+         ",
"      . 6#7#8#b+9#0#0#5#a#9+u+,#w+b#c#9#E d#~#e#f#T+c#]#        ",
"        . ++* g#.   d { h#u+v+w+b#i#j#+ c#k#l#m#n#<.o#p#        ",
"                    >@l@q#r#s#S+t#u#v#. ^#% ~ ~ c#o#_+          ",
"                    . w#y+x#y#y#z#% A#  . ]#c c c+p#            ",
"                      p#+ B#% % B#]#.       . . .               ",
"                        . . . . . .                             "};
