/* XPM */
static char * fontS_xpm[] = {
"32 32 171 2",
"  	c None",
". 	c #C6D0E1",
"+ 	c #A2ADC1",
"@ 	c #F3F7FE",
"# 	c #FEFEFE",
"$ 	c #FAFDFE",
"% 	c #F6F8FE",
"& 	c #EEF2FA",
"* 	c #E8EDF6",
"= 	c #E0E6F2",
"- 	c #D6DEEC",
"; 	c #C4D0E5",
"> 	c #ABB3C4",
", 	c #F4F8FE",
"' 	c #F6FAFE",
") 	c #F1F5FC",
"! 	c #ECF0F8",
"~ 	c #E5EBF5",
"{ 	c #DEE5F0",
"] 	c #D4DCEA",
"^ 	c #C1CCE0",
"/ 	c #E6EEFA",
"( 	c #A7B0C1",
"_ 	c #FBFEFE",
": 	c #F7FAFE",
"< 	c #F3F6FE",
"[ 	c #E8EEF6",
"} 	c #E2E8F2",
"| 	c #D7DFEC",
"1 	c #C4CEE1",
"2 	c #EAEFF8",
"3 	c #DAE3F2",
"4 	c #A6B0C2",
"5 	c #FCFEFE",
"6 	c #F9FBFE",
"7 	c #F6F9FE",
"8 	c #F1F4FB",
"9 	c #EBF0F8",
"0 	c #E5E9F4",
"a 	c #DAE1EE",
"b 	c #C6D0E2",
"c 	c #E4E9F3",
"d 	c #D9E1F2",
"e 	c #A7B2C4",
"f 	c #FDFEFE",
"g 	c #FAFCFE",
"h 	c #F2F6FD",
"i 	c #EDF2F9",
"j 	c #E6EBF5",
"k 	c #DCE3EF",
"l 	c #C7D1E1",
"m 	c #F5F8FE",
"n 	c #E7ECF5",
"o 	c #DBE5F3",
"p 	c #A8B2C4",
"q 	c #F8FAFE",
"r 	c #F4F6FD",
"s 	c #C0CCDE",
"t 	c #EDEEF3",
"u 	c #E7ECF2",
"v 	c #E0E6F0",
"w 	c #D6DEEA",
"x 	c #D0DAEB",
"y 	c #A2AEC1",
"z 	c #F8FBFE",
"A 	c #F4F7FD",
"B 	c #F0F3FB",
"C 	c #EAEFF7",
"D 	c #E4E9F4",
"E 	c #C9D3E3",
"F 	c #9FAEC6",
"G 	c #FFFFFF",
"H 	c #EBEFF8",
"I 	c #E6EBF6",
"J 	c #E1E8F2",
"K 	c #D6DDEB",
"L 	c #C3CEE0",
"M 	c #BAC6DB",
"N 	c #B8C5DA",
"O 	c #B3C0D9",
"P 	c #8D9CB5",
"Q 	c #E7EDF6",
"R 	c #CCD5E5",
"S 	c #C0CBDF",
"T 	c #B8C3D5",
"U 	c #C2CCE0",
"V 	c #B9C6DD",
"W 	c #EDF2FA",
"X 	c #E9EEF7",
"Y 	c #E3E9F3",
"Z 	c #D4DCE9",
"` 	c #C8D2E4",
" .	c #C6D1E2",
"..	c #ADB7C6",
"+.	c #D6DDE9",
"@.	c #C0CCE1",
"#.	c #E5EAF4",
"$.	c #D8DFEC",
"%.	c #D0D8E8",
"&.	c #CCD6E5",
"*.	c #CAD3E5",
"=.	c #C2C9D6",
"-.	c #D8DFEA",
";.	c #C5D0E4",
">.	c #D5DDEB",
",.	c #D2DBE9",
"'.	c #D0D9E8",
").	c #CED7E7",
"!.	c #C9D4E7",
"~.	c #E3E3E3",
"{.	c #727272",
"].	c #000000",
"^.	c #D8E0ED",
"/.	c #D1DAE9",
"(.	c #B9C0CD",
"_.	c #DBE2EE",
":.	c #CED8EA",
"<.	c #393939",
"[.	c #1D1D1D",
"}.	c #DBE1EE",
"|.	c #D9E0ED",
"1.	c #D7DFED",
"2.	c #A1A6B0",
"3.	c #EFF2F7",
"4.	c #D1DBEC",
"5.	c #C7C7C7",
"6.	c #D8DBE0",
"7.	c #F0F2F7",
"8.	c #D4DDEE",
"9.	c #AAAAAA",
"0.	c #DFE5F1",
"a.	c #DEE5F1",
"b.	c #D7E0EF",
"c.	c #555555",
"d.	c #E0E6F1",
"e.	c #DCE3F0",
"f.	c #A9ADB6",
"g.	c #EDF1F6",
"h.	c #D9E1F0",
"i.	c #8E8E8E",
"j.	c #E1E7F2",
"k.	c #909399",
"l.	c #FBFCFD",
"m.	c #DAE2F1",
"n.	c #E2E8F3",
"o.	c #E0E7F2",
"p.	c #DFE5F0",
"q.	c #F3F3F3",
"r.	c #FCFDFE",
"s.	c #DBE4F2",
"t.	c #DDE4F0",
"u.	c #DCE5F2",
"v.	c #ACB5C4",
"w.	c #E3E9F2",
"x.	c #979BA0",
"y.	c #F6F8FB",
"z.	c #AAB3C1",
"A.	c #8A8D91",
"B.	c #DDE5F3",
"C.	c #A8B1BF",
"D.	c #E0E5F2",
"E.	c #E0E5F1",
"F.	c #9EA6B3",
"G.	c #8B8E93",
"H.	c #FAFBFD",
"I.	c #646972",
"J.	c #D2D9E3",
"K.	c #878A8F",
"L.	c #DDE5F4",
"M.	c #FCFCFE",
"N.	c #DEE4F0",
"                  . . . . . . . . . . . . . . . +               ",
"                  . @ # # # # # # # $ % & * = - ; >             ",
"                  . , # # # # # # $ ' ) ! ~ { ] ^ / (           ",
"                  . , # # # # # # _ : < & [ } | 1 2 3 4         ",
"                  . , # # # # # # 5 6 7 8 9 0 a b 7 c d e       ",
"                  . , # # # # # # f g 7 h i j k l # m n o p     ",
"                  . , # # # # # # f $ q r & * = s t u v w x y   ",
"                  . , # # # # # # # 5 z A B C D E F F F F F F F ",
"                  . , # # # G G G G G 6 m 8 H I J { K L M N O P ",
"                  . , # # G G G G G G G 7 ) i Q J k R S T U V P ",
"                  . , # # G G G G G G G 7 h W X Y Z `  ...+.@.P ",
"                  . , # # G G G G G G G G G G #.$.%.&.*.=.-.;.P ",
"                  . , # # G G G G G G G G G G G >.,.'.).&.&.!.P ",
"                  . , # # G ~.{.].].{.~.G G G G ^.K ] /.(._.:.P ",
"                  . , # G G <.].[.<.].<.G G G G }.|.1.- 2.3.4.P ",
"                  . , G G 5.].[.G G [.].5.G G G { _.}.|.6.7.8.P ",
"                  . , G G 9.].<.G G 5.9.~.G G G 0.a._._.a ^.b.P ",
"                  . , G G ~.].].c.5.G G G G G Y = d.0.e.f.g.h.P ",
"                  . , G G G i.].].].<.~.G G G G Y j.= 0.k.l.m.P ",
"                  . G G G G G 5.c.].].[.~.G G G G n.o.p.q.r.s.P ",
"                  . G G G G G G G ~.<.].{.G G G G } o.= t.e.u.P ",
"                  v.G G G 5.9.~.G G 9.].c.G G G G w.} d.x.y.u.P ",
"                  z.G G G c.].{.G G {.].{.G G G G D } o.A.f B.P ",
"                  C.G G G 5.].].i.i.].].~.G G G G w.} D.# r.B.P ",
"                  z.G G G G 9.].].].].9.G G G G G G } E.0.0.u.P ",
"                  F.G G G G G G 9.9.~.G G G G G G G } d.G.H.B.P ",
"                  I.G G G G G G G G G G G G G G G G J.0.K.f L.P ",
"                  . G G G G G G G G G G G G G G G G o.0.# M.L.P ",
"                  . G G G G G G G G G G G G G G G G o.0.0.N.L.P ",
"                  . P G G G G G G G G G G G G G G P P P P P P P ",
"                                                                ",
"                                                                "};
