/* XPM */
static const char * font_xpm[] = {
"32 32 280 2",
"  	c None",
". 	c #C6D0E1",
"+ 	c #A2ADC1",
"@ 	c #F3F7FE",
"# 	c #FEFEFE",
"$ 	c #FAFDFE",
"% 	c #F6F8FE",
"& 	c #EEF2FA",
"* 	c #E8EDF6",
"= 	c #E0E6F2",
"- 	c #D6DEEC",
"; 	c #C4D0E5",
"> 	c #ABB3C4",
", 	c #F4F8FE",
"' 	c #F6FAFE",
") 	c #F1F5FC",
"! 	c #ECF0F8",
"~ 	c #E5EBF5",
"{ 	c #DEE5F0",
"] 	c #D4DCEA",
"^ 	c #C1CCE0",
"/ 	c #E6EEFA",
"( 	c #A7B0C1",
"_ 	c #FBFEFE",
": 	c #F7FAFE",
"< 	c #F3F6FE",
"[ 	c #E8EEF6",
"} 	c #E2E8F2",
"| 	c #D7DFEC",
"1 	c #C4CEE1",
"2 	c #EAEFF8",
"3 	c #DAE3F2",
"4 	c #A6B0C2",
"5 	c #FCFEFE",
"6 	c #F9FBFE",
"7 	c #F6F9FE",
"8 	c #F1F4FB",
"9 	c #EBF0F8",
"0 	c #E5E9F4",
"a 	c #DAE1EE",
"b 	c #C6D0E2",
"c 	c #E4E9F3",
"d 	c #D9E1F2",
"e 	c #A7B2C4",
"f 	c #FDFEFE",
"g 	c #FAFCFE",
"h 	c #F2F6FD",
"i 	c #EDF2F9",
"j 	c #E6EBF5",
"k 	c #DCE3EF",
"l 	c #C7D1E1",
"m 	c #F5F8FE",
"n 	c #E7ECF5",
"o 	c #DBE5F3",
"p 	c #A8B2C4",
"q 	c #F8FAFE",
"r 	c #F4F6FD",
"s 	c #C0CCDE",
"t 	c #EDEEF3",
"u 	c #E7ECF2",
"v 	c #E0E6F0",
"w 	c #D6DEEA",
"x 	c #D0DAEB",
"y 	c #A2AEC1",
"z 	c #F8FBFE",
"A 	c #F4F7FD",
"B 	c #F0F3FB",
"C 	c #EAEFF7",
"D 	c #E4E9F4",
"E 	c #C9D3E3",
"F 	c #9FAEC6",
"G 	c #EBEFF8",
"H 	c #E6EBF6",
"I 	c #E1E8F2",
"J 	c #D6DDEB",
"K 	c #C3CEE0",
"L 	c #BAC6DB",
"M 	c #B8C5DA",
"N 	c #B3C0D9",
"O 	c #8D9CB5",
"P 	c #CECECE",
"Q 	c #7F7F7F",
"R 	c #7E7F7F",
"S 	c #ACAEAE",
"T 	c #E7EDF6",
"U 	c #CCD5E5",
"V 	c #C0CBDF",
"W 	c #B8C3D5",
"X 	c #C2CCE0",
"Y 	c #B9C6DD",
"Z 	c #606060",
"` 	c #777777",
" .	c #D4D4D4",
"..	c #7C7C7D",
"+.	c #EDF2FA",
"@.	c #E9EEF7",
"#.	c #E3E9F3",
"$.	c #D4DCE9",
"%.	c #C8D2E4",
"&.	c #C6D1E2",
"*.	c #ADB7C6",
"=.	c #D6DDE9",
"-.	c #C0CCE1",
";.	c #101010",
">.	c #ABABAB",
",.	c #C4C4C4",
"'.	c #AAACAE",
").	c #E5EAF4",
"!.	c #D8DFEC",
"~.	c #D0D8E8",
"{.	c #CCD6E5",
"].	c #CAD3E5",
"^.	c #C2C9D6",
"/.	c #D8DFEA",
"(.	c #C5D0E4",
"_.	c #9E9E9E",
":.	c #212121",
"<.	c #B4B4B4",
"[.	c #898A8C",
"}.	c #E5EAF5",
"|.	c #D5DDEB",
"1.	c #D2DBE9",
"2.	c #D0D9E8",
"3.	c #CED7E7",
"4.	c #C9D4E7",
"5.	c #505050",
"6.	c #666666",
"7.	c #A4A4A4",
"8.	c #868686",
"9.	c #7C7C7C",
"0.	c #D7DAE5",
"a.	c #DCE4EF",
"b.	c #D9E0ED",
"c.	c #D8E0ED",
"d.	c #D1DAE9",
"e.	c #B9C0CD",
"f.	c #DBE2EE",
"g.	c #CED8EA",
"h.	c #EEEEEE",
"i.	c #000000",
"j.	c #8B8B8B",
"k.	c #959595",
"l.	c #777778",
"m.	c #383838",
"n.	c #9599A0",
"o.	c #DBE1EE",
"p.	c #D7DFED",
"q.	c #A1A6B0",
"r.	c #EFF2F7",
"s.	c #D1DBEC",
"t.	c #8E8E8E",
"u.	c #292929",
"v.	c #858585",
"w.	c #D0D2D6",
"x.	c #262728",
"y.	c #5C5D5F",
"z.	c #DFE5F1",
"A.	c #D8DBE0",
"B.	c #F0F2F7",
"C.	c #D4DDEE",
"D.	c #303030",
"E.	c #515151",
"F.	c #767676",
"G.	c #707071",
"H.	c #ECF0F9",
"I.	c #67696D",
"J.	c #4A4A4A",
"K.	c #B8BDC5",
"L.	c #E0E7F2",
"M.	c #DEE5F1",
"N.	c #D7E0EF",
"O.	c #DEDEDE",
"P.	c #060606",
"Q.	c #909194",
"R.	c #CED2D9",
"S.	c #202020",
"T.	c #77797E",
"U.	c #E0E6F1",
"V.	c #DCE3F0",
"W.	c #A9ADB6",
"X.	c #EDF1F6",
"Y.	c #D9E1F0",
"Z.	c #707070",
"`.	c #565656",
" +	c #C9CDD2",
".+	c #EDF1F9",
"++	c #2C2D2F",
"@+	c #3E3F3F",
"#+	c #E1E7F2",
"$+	c #909399",
"%+	c #FBFCFD",
"&+	c #DAE2F1",
"*+	c #393939",
"=+	c #464646",
"-+	c #444444",
";+	c #C5C8CC",
">+	c #C3C6CC",
",+	c #696B6E",
"'+	c #353535",
")+	c #424242",
"!+	c #9DA1A7",
"~+	c #E2E8F3",
"{+	c #DFE5F0",
"]+	c #F3F3F3",
"^+	c #FCFDFE",
"/+	c #DBE4F2",
"(+	c #BEBEBE",
"_+	c #373737",
":+	c #5C5E61",
"<+	c #DDE4F0",
"[+	c #DCE5F2",
"}+	c #ACB5C4",
"|+	c #E0E4E9",
"1+	c #5D5D5D",
"2+	c #111111",
"3+	c #272727",
"4+	c #252525",
"5+	c #1F1F1F",
"6+	c #1D1D1D",
"7+	c #C8CDD5",
"8+	c #E3E9F2",
"9+	c #979BA0",
"0+	c #F6F8FB",
"a+	c #AAB3C1",
"b+	c #D0D3D8",
"c+	c #0E0E0E",
"d+	c #141414",
"e+	c #171717",
"f+	c #0F0F0F",
"g+	c #0A0A0A",
"h+	c #83858B",
"i+	c #8A8D91",
"j+	c #DDE5F3",
"k+	c #A8B1BF",
"l+	c #828487",
"m+	c #010101",
"n+	c #070707",
"o+	c #5D5E60",
"p+	c #9B9DA1",
"q+	c #A1A3A7",
"r+	c #ACAFB4",
"s+	c #B2B5BB",
"t+	c #B0B4BA",
"u+	c #1F2021",
"v+	c #E0E5F2",
"w+	c #434446",
"x+	c #CDD0D5",
"y+	c #E9ECF2",
"z+	c #DADEE3",
"A+	c #CCD0D7",
"B+	c #CFD3DA",
"C+	c #D9DDE4",
"D+	c #E5E9F1",
"E+	c #585A5D",
"F+	c #B8BDC4",
"G+	c #E0E5F1",
"H+	c #9EA6B3",
"I+	c #2F2F30",
"J+	c #F2F6FC",
"K+	c #F1F5FB",
"L+	c #F0F4FB",
"M+	c #E1E5EC",
"N+	c #C8CCD3",
"O+	c #898C90",
"P+	c #56585C",
"Q+	c #8B8E93",
"R+	c #FAFBFD",
"S+	c #646972",
"T+	c #86888C",
"U+	c #ECF1F9",
"V+	c #D4D9E0",
"W+	c #19191A",
"X+	c #0E0F0F",
"Y+	c #D2D9E3",
"Z+	c #878A8F",
"`+	c #DDE5F4",
" @	c #F9FAFE",
".@	c #FCFCFE",
"+@	c #EEF5FE",
"@@	c #DEE4F0",
"                  . . . . . . . . . . . . . . . +               ",
"                  . @ # # # # # # # $ % & * = - ; >             ",
"                  . , # # # # # # $ ' ) ! ~ { ] ^ / (           ",
"                  . , # # # # # # _ : < & [ } | 1 2 3 4         ",
"                  . , # # # # # # 5 6 7 8 9 0 a b 7 c d e       ",
"                  . , # # # # # # f g 7 h i j k l # m n o p     ",
"                  . , # # # # # # f $ q r & * = s t u v w x y   ",
"                  . , # # # # # # # 5 z A B C D E F F F F F F F ",
"                  . , # # # # # # # _ 6 m 8 G H I { J K L M N O ",
"                  . , # # # # P Q Q R S 7 ) i T I k U V W X Y O ",
"                  . , # # # # Z `  . ...7 h +.@.#.$.%.&.*.=.-.O ",
"                  . , # # # # ;.>.,.,.>.'.m & ).!.~.{.].^./.(.O ",
"                  . , # # # _.:.<.<.<.<.[.& }.a |.1.2.3.{.{.4.O ",
"                  . , # # # 5.6.7.8.9.7.6.0.a.b.c.J ] d.e.f.g.O ",
"                  . , # # h.i.j.k.l.m.k.k.n.{ k o.b.p.- q.r.s.O ",
"                  . , # # t.u.v.v.w.x.v.v.y.I z.{ f.o.b.A.B.C.O ",
"                  . , # # D.E.F.G.H.I.J.F.Z K.L.z.M.f.f.a c.N.O ",
"                  . , # O.P.6.6.Q.& R.S.6.6.T.#.= U.z.V.W.X.Y.O ",
"                  . , # Z.S.`.E. +& .+++E.`.@+D #.#+= z.$+%+&+O ",
"                  . , # S.*+=+-+;+>+>+,+'+=+)+!+c ~+L.{+]+^+/+O ",
"                  . , (+P._+_+_+_+_+_+_+_+_+_+:+0 } L.= <+V.[+O ",
"                  }+|+1+2+3+4+5+5+5+5+5+5+4+3+6+7+8+} U.9+0+[+O ",
"                  a+b+c+d+e+f+i.i.i.i.i.i.g+e+e+h+D } L.i+f j+O ",
"                  k+l+m+n+n+o+p+q+r+s+s+t+;.n+n+u+8+} v+# ^+j+O ",
"                  a+w+m+m+m+x+y+z+A+B+C+D+E+m+m+m+F+} G+z.z.[+O ",
"                  H+i.m+m+I+J+K+L+! M+B+N+O+i.m+m+P+} U.Q+R+j+O ",
"                  S+i.m+m+T+J+K+L+& & U+D+V+W+m+m+X+Y+z.Z+f `+O ",
"                  . , #  @J+J+K+L+& & U+9 C * ~ ).} L.z.# .@`+O ",
"                  . +@#  @J+J+K+L+& & U+9 C * ~ ).} L.z.z.@@`+O ",
"                  . O O O O O O O O O O O O O O O O O O O O O O ",
"                                                                ",
"                                                                "};
