/* XPM */
static char * identity_xpm[] = {
"38 37 508 2",
"  	c None",
". 	c #7D7DA8",
"+ 	c #8484AC",
"@ 	c #8383AD",
"# 	c #8787B0",
"$ 	c #9D9DBF",
"% 	c #7878A4",
"& 	c #8989AF",
"* 	c #8989B0",
"= 	c #9C9CBE",
"- 	c #BDBDD5",
"; 	c #E9E9F2",
"> 	c #8181AD",
", 	c #474763",
"' 	c #9090B1",
") 	c #8F8FB3",
"! 	c #9393B6",
"~ 	c #B0B0CB",
"{ 	c #D8D8E7",
"] 	c #F1F1F7",
"^ 	c #FDFDFE",
"/ 	c #FFFFFF",
"( 	c #A6A6C6",
"_ 	c #64648D",
": 	c #9696B5",
"< 	c #9595B7",
"[ 	c #A6A6C3",
"} 	c #C1C1D7",
"| 	c #EBEBF3",
"1 	c #F7F7FA",
"2 	c #D8D8E6",
"3 	c #7575A6",
"4 	c #9D9DB8",
"5 	c #9C9CBA",
"6 	c #A3A3C0",
"7 	c #BBBBD2",
"8 	c #DCDCE9",
"9 	c #F3F3F8",
"0 	c #FCFCFC",
"a 	c #E7E7EC",
"b 	c #8888B3",
"c 	c #4D4D70",
"d 	c #A3A3BD",
"e 	c #A2A2BD",
"f 	c #B3B3CB",
"g 	c #CCCCDE",
"h 	c #F9F9FB",
"i 	c #F2F2F5",
"j 	c #DEDEE5",
"k 	c #CACAD5",
"l 	c #F2F2F4",
"m 	c #BABAD4",
"n 	c #6A6A9A",
"o 	c #A9A9BE",
"p 	c #A8A8C0",
"q 	c #AEAEC5",
"r 	c #C2C2D5",
"s 	c #DFDFEB",
"t 	c #F9F9FA",
"u 	c #E6E6EB",
"v 	c #D2D2DC",
"w 	c #C2C2D0",
"x 	c #B9B9CB",
"y 	c #B4B4C7",
"z 	c #C8C8D9",
"A 	c #D8D8E8",
"B 	c #7676A8",
"C 	c #373751",
"D 	c #B0B0C3",
"E 	c #AEAEC3",
"F 	c #BCBCCF",
"G 	c #D0D0E0",
"H 	c #EDEDF4",
"I 	c #FBFBFD",
"J 	c #F0F0F3",
"K 	c #DEDEE4",
"L 	c #CECED8",
"M 	c #CCCCD6",
"N 	c #BDBDCD",
"O 	c #B3B3C7",
"P 	c #B5B5C9",
"Q 	c #C6C6D7",
"R 	c #D9D9E7",
"S 	c #DFDFEC",
"T 	c #9898BE",
"U 	c #575782",
"V 	c #B4B4C4",
"W 	c #B5B5C6",
"X 	c #C8C8D8",
"Y 	c #E3E3ED",
"Z 	c #E5E5EA",
"` 	c #D6D6DE",
" .	c #D0D0D9",
"..	c #CFCFD9",
"+.	c #C7C7D3",
"@.	c #B6B6C9",
"#.	c #C1C1D3",
"$.	c #D1D1E0",
"%.	c #DCDCEA",
"&.	c #CACADE",
"*.	c #6B6BA1",
"=.	c #BBBBC8",
"-.	c #BBBBCA",
";.	c #C7C7D6",
">.	c #D9D9E5",
",.	c #EFEFF6",
"'.	c #EFEFF2",
").	c #DDDDE4",
"!.	c #D2D2DB",
"~.	c #D1D1DB",
"{.	c #D1D1DA",
"].	c #D0D0DA",
"^.	c #CBCBD8",
"/.	c #CACADB",
"(.	c #DADAE8",
"_.	c #CECEDD",
":.	c #B9B9CC",
"<.	c #E0E0ED",
"[.	c #7878AA",
"}.	c #404063",
"|.	c #C2C2CD",
"1.	c #C4C4D0",
"2.	c #D0D0DD",
"3.	c #E7E7F0",
"4.	c #F5F5F9",
"5.	c #D7CBBF",
"6.	c #A48770",
"7.	c #835B40",
"8.	c #8A6550",
"9.	c #BEA99F",
"0.	c #F4F0EF",
"a.	c #D9D9E0",
"b.	c #D3D3DC",
"c.	c #E1E1E8",
"d.	c #E9E9EF",
"e.	c #D4D4E3",
"f.	c #C3C3D4",
"g.	c #B5B5C8",
"h.	c #B2B2C6",
"i.	c #D9D9E6",
"j.	c #ACACCC",
"k.	c #5D5D90",
"l.	c #BFBFCB",
"m.	c #D3D3E0",
"n.	c #A78C6F",
"o.	c #C2AF9C",
"p.	c #E5DBD1",
"q.	c #F2EBE0",
"r.	c #CFB594",
"s.	c #8D5B2A",
"t.	c #643120",
"u.	c #E9E1DF",
"v.	c #E9E9EE",
"w.	c #D8D8E0",
"x.	c #EAEAEE",
"y.	c #E6E6F0",
"z.	c #CCCCDC",
"A.	c #B4B4C8",
"B.	c #BCBCCE",
"C.	c #D1D1DF",
"D.	c #E0E0EC",
"E.	c #65659E",
"F.	c #AEAEB9",
"G.	c #C6C6D3",
"H.	c #B19A7E",
"I.	c #D9CBB9",
"J.	c #EEE4D5",
"K.	c #E5D7C0",
"L.	c #DCC9AA",
"M.	c #D3BB94",
"N.	c #875B3D",
"O.	c #8A4B1B",
"P.	c #EEDECE",
"Q.	c #FBFBFC",
"R.	c #FAFAFC",
"S.	c #F9F9FC",
"T.	c #F2F2F8",
"U.	c #D2D2E1",
"V.	c #C5C5D6",
"W.	c #B8B8CB",
"X.	c #C9C9D9",
"Y.	c #DDDDE9",
"Z.	c #E3E3EE",
"`.	c #E4E4EF",
" +	c #DEDEEA",
".+	c #E2E2ED",
"++	c #9494BC",
"@+	c #4E4E7E",
"#+	c #BDBDCB",
"$+	c #E6E6EF",
"%+	c #ECE6DF",
"&+	c #9D7D54",
"*+	c #E1D0B4",
"=+	c #D7C29E",
"-+	c #CEB387",
";+	c #C5A470",
">+	c #7B4B28",
",+	c #BD977D",
"'+	c #FAC895",
")+	c #BB6E1C",
"!+	c #F8F8FB",
"~+	c #F2F2F6",
"{+	c #C5C5D4",
"]+	c #B7B7CA",
"^+	c #B7B7CB",
"/+	c #C2C2D3",
"(+	c #E3E3EF",
"_+	c #E1E1ED",
":+	c #D3D3E1",
"<+	c #C1C1D2",
"[+	c #D1D1DE",
"}+	c #BDBDD6",
"|+	c #5D5D97",
"1+	c #B1B1BF",
"2+	c #CECEDC",
"3+	c #BCA78F",
"4+	c #AF8E61",
"5+	c #C9AB7B",
"6+	c #C09C63",
"7+	c #B68D4B",
"8+	c #82501F",
"9+	c #A87B5B",
"0+	c #FFC388",
"a+	c #FFAE62",
"b+	c #D98938",
"c+	c #E3CFBB",
"d+	c #EEEEF3",
"e+	c #CACAD7",
"f+	c #C9C9D6",
"g+	c #BDBDCE",
"h+	c #BEBED0",
"i+	c #CBCBDB",
"j+	c #DDDDEA",
"k+	c #DCDCE8",
"l+	c #BABACC",
"m+	c #B7B7C9",
"n+	c #E8E8F1",
"o+	c #7070A6",
"p+	c #3A3A61",
"q+	c #BCBCCC",
"r+	c #B0987E",
"s+	c #A1773A",
"t+	c #B1853E",
"u+	c #A67526",
"v+	c #925B13",
"w+	c #7E4928",
"x+	c #FFC68B",
"y+	c #FFB368",
"z+	c #FFB970",
"A+	c #EAA65B",
"B+	c #E1CDBA",
"C+	c #CCCCD8",
"D+	c #C8C8D5",
"E+	c #C7C7D7",
"F+	c #D6D6E4",
"G+	c #D4D4E2",
"H+	c #B9B9CA",
"I+	c #C2C2D1",
"J+	c #A4A4C6",
"K+	c #505086",
"L+	c #B4B4C5",
"M+	c #D7D7E3",
"N+	c #C1AF9D",
"O+	c #86510B",
"P+	c #9D640C",
"Q+	c #7E4605",
"R+	c #7A431B",
"S+	c #F4BB7F",
"T+	c #FFBF78",
"U+	c #FFC57F",
"V+	c #FFCA87",
"W+	c #CF8B3D",
"X+	c #E3D4C8",
"Y+	c #F0F0F6",
"Z+	c #E5E5ED",
"`+	c #E8E8F0",
" @	c #DADAE6",
".@	c #CACADA",
"+@	c #BBBBCC",
"@@	c #CCCCDA",
"#@	c #E0E0EB",
"$@	c #EAEAF2",
"%@	c #DBDBE6",
"&@	c #D9D9E8",
"*@	c #5A5A99",
"=@	c #A5A5B5",
"-@	c #EAE7E8",
";@	c #764515",
">@	c #703A0C",
",@	c #AC7340",
"'@	c #FFC581",
")@	c #FFC884",
"!@	c #FFCC8C",
"~@	c #FFCF93",
"{@	c #EFBB7C",
"]@	c #C08547",
"^@	c #EEEEF5",
"/@	c #EDEDF5",
"(@	c #BCBCCD",
"_@	c #D8D8E4",
":@	c #E4E4EE",
"<@	c #D2D2DF",
"[@	c #C0C0D0",
"}@	c #BABACB",
"|@	c #8787B5",
"1@	c #444474",
"2@	c #B1B1C5",
"3@	c #E5E5EF",
"4@	c #E0D9D9",
"5@	c #E1A865",
"6@	c #E59C42",
"7@	c #FBC786",
"8@	c #FFD197",
"9@	c #FFD49F",
"0@	c #E0A766",
"a@	c #BB7C38",
"b@	c #E8E3E5",
"c@	c #CACAD9",
"d@	c #BEBECF",
"e@	c #C1C1D1",
"f@	c #D0D0DE",
"g@	c #E1E1EB",
"h@	c #D9D9E4",
"i@	c #CBCBD9",
"j@	c #C2C2D2",
"k@	c #DEDEE8",
"l@	c #B6B6D2",
"m@	c #53538E",
"n@	c #AAAABD",
"o@	c #E0BE99",
"p@	c #CF924C",
"q@	c #D7A266",
"r@	c #A3774B",
"s@	c #4B557A",
"t@	c #3466BF",
"u@	c #1F5ABE",
"v@	c #6376BA",
"w@	c #BFC4DF",
"x@	c #DBDBE7",
"y@	c #C0C0D1",
"z@	c #CACAD8",
"A@	c #D2D2DE",
"B@	c #C1C1D0",
"C@	c #BEBECE",
"D@	c #CDCDDA",
"E@	c #DFDFE9",
"F@	c #EFEFF5",
"G@	c #62629D",
"H@	c #323256",
"I@	c #B3B3C8",
"J@	c #ECECF4",
"K@	c #ECECF3",
"L@	c #C5D1E9",
"M@	c #5581C9",
"N@	c #CEE4FA",
"O@	c #D2E9FF",
"P@	c #B6DCFF",
"Q@	c #73AFF2",
"R@	c #1F4BB0",
"S@	c #949AC8",
"T@	c #C0C0CF",
"U@	c #C6C6D4",
"V@	c #DADAE4",
"W@	c #E9E9F0",
"X@	c #F1F1F6",
"Y@	c #B8B8D3",
"Z@	c #6B6BA3",
"`@	c #474779",
" #	c #A9A9BF",
".#	c #D7D7E4",
"+#	c #3B74C8",
"@#	c #A9D2FB",
"##	c #A7D4FF",
"$#	c #8DC8FF",
"%#	c #75BCFF",
"&#	c #5AAFFF",
"*#	c #2697FF",
"=#	c #043DAF",
"-#	c #9395C5",
";#	c #E7E7F1",
">#	c #C4C4D3",
",#	c #E3E3EC",
"'#	c #DEDEEB",
")#	c #9C9CC2",
"!#	c #52528D",
"~#	c #3C3C66",
"{#	c #9C9CB1",
"]#	c #BFBFD2",
"^#	c #C2CDE7",
"/#	c #4085D9",
"(#	c #80C1FF",
"_#	c #68B6FF",
":#	c #52ABFF",
"<#	c #369EFF",
"[#	c #0489FF",
"}#	c #0089FF",
"|#	c #028CFF",
"1#	c #042697",
"2#	c #CBCBE1",
"3#	c #C6C6D5",
"4#	c #C4C4D2",
"5#	c #C9C9D7",
"6#	c #BBBBD5",
"7#	c #8484B2",
"8#	c #5D5D9A",
"9#	c #4A4A7D",
"0#	c #2C2C4C",
"a#	c #ABABC3",
"b#	c #91ABD9",
"c#	c #348FEE",
"d#	c #46A5FF",
"e#	c #339CFF",
"f#	c #2294FF",
"g#	c #098DFF",
"h#	c #068FFF",
"i#	c #1295FF",
"j#	c #249DFF",
"k#	c #2D86E5",
"l#	c #5959A3",
"m#	c #D7D7E2",
"n#	c #D5D5E0",
"o#	c #E7E7EF",
"p#	c #D7D7E6",
"q#	c #9B9BC0",
"r#	c #6D6DA3",
"s#	c #5B5B92",
"t#	c #404069",
"u#	c #171726",
"v#	c #A1A1BA",
"w#	c #CECEDE",
"x#	c #86A3D6",
"y#	c #1A82ED",
"z#	c #1A8FFF",
"A#	c #0D89FF",
"B#	c #0888FF",
"C#	c #1B9AFF",
"D#	c #2DA2FF",
"E#	c #3595EF",
"F#	c #2358BA",
"G#	c #273494",
"H#	c #9595C4",
"I#	c #E9E9F1",
"J#	c #C0C0D7",
"K#	c #8585B2",
"L#	c #6969A0",
"M#	c #545482",
"N#	c #32324F",
"O#	c #8F8FA6",
"P#	c #AFAFC7",
"Q#	c #86A2D5",
"R#	c #0E81EC",
"S#	c #1190FF",
"T#	c #1B94FF",
"U#	c #35A4FF",
"V#	c #3180DB",
"W#	c #2C55B2",
"X#	c #5D63AA",
"Y#	c #B3B4D5",
"Z#	c #A2A2C4",
"`#	c #7979A9",
" $	c #676798",
".$	c #49496E",
"+$	c #1A1A28",
"@$	c #A1A1BD",
"#$	c #B9C6E3",
"$$	c #297AD8",
"%$	c #389BF3",
"&$	c #2A69C7",
"*$	c #3E59AD",
"=$	c #9AA2CE",
"-$	c #E0E1EE",
";$	c #C5C5DA",
">$	c #8F8FB7",
",$	c #5E5E87",
"'$	c #383852",
")$	c #9393AD",
"!$	c #BBBBD0",
"~$	c #365EB4",
"{$	c #6881C2",
"]$	c #C6CCE4",
"^$	c #AAAAC8",
"/$	c #8484AF",
"($	c #73739E",
"_$	c #515172",
":$	c #1D1D29",
"<$	c #A1A1BE",
"[$	c #C9C9DC",
"}$	c #9999BC",
"|$	c #8282AD",
"1$	c #68688C",
"2$	c #3F3F55",
"3$	c #9797B5",
"4$	c #CFCFDF",
"5$	c #B2B2CC",
"6$	c #9090B5",
"7$	c #7E7EA3",
"8$	c #52526C",
"9$	c #20202B",
"0$	c #8A8AA5",
"a$	c #AEAEC7",
"b$	c #CECEDF",
"c$	c #A3A3C1",
"d$	c #8E8EB3",
"e$	c #6C6C8A",
"f$	c #3A3A4B",
"g$	c #9696B7",
"h$	c #8A8AAB",
"i$	c #5A5A70",
"                                                                            ",
"                                                                            ",
"                                                      .                     ",
"                                                + @ # $ %                   ",
"                                            & * = - ; ; > ,                 ",
"                                      ' ) ! ~ { ] ^ / ^ ( _                 ",
"                                  : < [ } | 1 / / / / / 2 3                 ",
"                            4 5 6 7 8 9 ^ / / / / / 0 a 1 b c               ",
"                        d e f g | h / / / / / / i j k k l m n               ",
"                  o p q r s 9 ^ / / / / / t u v k w x y z A B C             ",
"              D E F G H I / / / / / / J K L M N O P Q R S S T U             ",
"        V W x X Y 9 / / / / / / t Z `  ...+.@.#.$.S S S S %.&.*.            ",
"    =.-.;.>.,.I / / / / / / '.).!.~.{.].^./.(.S S S %._.:.@.<.[.}.          ",
"|.1.2.3.4./ / 5.6.7.8.9.0./ a.b.v !.c.d.S S S S e.f.g.h.h.h.i.j.k.          ",
"l.m.I / / / n.o.p.q.r.s.t.u.v.w.x.h I y.S %.z.:.y A.y y B.C.D.%.E.          ",
"F.G.1 / / H.I.J.K.L.M.N.O.P.I Q.R.S.T.U.V.P @.P @.W.X.Y.Z.`. +.+++@+        ",
"  #+$+/ %+&+*+=+-+;+>+,+'+)+h !+~+c.{+]+^+]+]+/+U.Z.(+_+:+<+g.[+}+|+        ",
"  1+2+^ 3+4+5+6+7+8+9+0+a+b+c+d+e+f+g+:.h+i+j+Z.`.k+X l+m+m+m+g+n+o+p+      ",
"    q+] r+s+t+u+v+w+x+y+z+A+B+9 C+D+E+F+Z.(+_+G+<+x x x H+I+m.$+; J+K+      ",
"    L+M+N+O+P+Q+R+S+T+U+V+W+X+Y+Z+`+(+`. @.@g+l+l++@g+@@#@; $@%@2+&@*@      ",
"    =@<+-@;@>@,@'@)@!@~@{@]@^@/@H $+:+<+B.(@B.B.{+_@y.; :@<@[@}@}@$+|@1@    ",
"      2@3@4@5@6@7@8@9@0@a@b@| | ; c@d@d@d@e@f@g@; $@h@i@(@(@(@(@j@k@l@m@    ",
"      n@i+Y+,.o@p@q@r@s@t@u@v@w@3.x@y@z@>.; ; :@A@B@C@C@C@C@D@E@F@,.Y+G@H@  ",
"        I@; J@K@| L@M@N@O@P@Q@R@S@n+:@; $@ @z@T@[@[@T@U@V@W@F@,.Y+X@Y@Z@`@  ",
"         #.#$@; n++#@###$#%#&#*#=#-#;#[+>#I+I+I+I+A@,#F@,.Y+Y+'#)#G@!#~#    ",
"        {#]#;#y.^#/#(#_#:#<#[#}#|#1#2#3#>#4#5#%@K@,.Y+Y+n+6#7#8#9#0#        ",
"          a#_+`.b#c#d#e#f#g#h#i#j#k#l#m#n#o#F@,.Y+Y+p#q#r#s#t#u#            ",
"          v#w#n+x#y#z#A#B#C#D#E#F#G#H#F@,.Y+Y+I#J#K#L#M#N#                  ",
"          O#P#$@Q#R#S#T#U#V#W#X#Y#F@,.Y+Y+(.Z#`# $.$+$                      ",
"            @$Y.#$$$%$&$*$=$-$,.Y+Y+; ;$>$3 ,$'$                            ",
"            )$!$H ~${$]$F@,.Y+X@8 ^$/$($_$:$                                ",
"              <$^@F@,.Y+Y+$@[$}$|$1$2$                                      ",
"              3$4$Y+X@ +5$6$7$8$9$                                          ",
"              0$a$b$c$d$e$f$                                                ",
"                g$h$i$                                                      ",
"                                                                            ",
"                                                                            "};
