/* XPM */
static char * xunta_xpm[] = {
"31 17 384 2",
"  	c None",
". 	c #DDECF7",
"+ 	c #86C4E6",
"@ 	c #88C1EC",
"# 	c #87C4EC",
"$ 	c #A3D3F4",
"% 	c #B1D8F3",
"& 	c #B0D8F4",
"* 	c #A3D3F6",
"= 	c #A4D6F3",
"- 	c #A4D4F4",
"; 	c #ABD9F4",
"> 	c #ACD8F3",
", 	c #A3D4F3",
"' 	c #A6D6F3",
") 	c #B0D8F3",
"! 	c #AEDAF5",
"~ 	c #A5D4F2",
"{ 	c #A4D1F3",
"] 	c #A0D2F5",
"^ 	c #A1D4F5",
"/ 	c #AAD3F1",
"( 	c #A3D5EF",
"_ 	c #AAD8F1",
": 	c #AEDAF3",
"< 	c #AED9F5",
"[ 	c #B1DAF4",
"} 	c #EEF9FB",
"| 	c #FEFEFC",
"1 	c #FFFFFF",
"2 	c #F2F7F4",
"3 	c #3FA5E0",
"4 	c #0A91DE",
"5 	c #0790DE",
"6 	c #67A3CD",
"7 	c #BBBBB2",
"8 	c #9DB9CE",
"9 	c #2C97D8",
"0 	c #83A6BF",
"a 	c #319ADE",
"b 	c #B5BFBD",
"c 	c #BCC1BF",
"d 	c #329ADC",
"e 	c #6DA4CB",
"f 	c #2D9ADE",
"g 	c #AFBFC7",
"h 	c #B7BFBE",
"i 	c #2C98DD",
"j 	c #4D9FD2",
"k 	c #1F92DB",
"l 	c #1F96E0",
"m 	c #2191DD",
"n 	c #82AACA",
"o 	c #2496E2",
"p 	c #80B0D2",
"q 	c #C0C2C1",
"r 	c #C1C2C2",
"s 	c #C0C1C1",
"t 	c #C4C2C2",
"u 	c #F6F6F5",
"v 	c #FBFDFA",
"w 	c #B5DCF3",
"x 	c #0A93DF",
"y 	c #0591DD",
"z 	c #0988CE",
"A 	c #7597B4",
"B 	c #259AE1",
"C 	c #85ACC9",
"D 	c #4E5A61",
"E 	c #1487CF",
"F 	c #5A5C5D",
"G 	c #F3F4F7",
"H 	c #2594DB",
"I 	c #316C99",
"J 	c #0B91DB",
"K 	c #3286BC",
"L 	c #D7DEE4",
"M 	c #2096E0",
"N 	c #47535D",
"O 	c #628197",
"P 	c #1283C9",
"Q 	c #45494E",
"R 	c #30769D",
"S 	c #42A1DA",
"T 	c #1B7BB4",
"U 	c #B1AFAF",
"V 	c #FBFBFC",
"W 	c #FEFDFD",
"X 	c #FDFDFE",
"Y 	c #FCFDFD",
"Z 	c #F8FBFA",
"` 	c #51ADE4",
" .	c #0790DC",
"..	c #078DE1",
"+.	c #0A8ED9",
"@.	c #65A9D1",
"#.	c #535557",
"$.	c #8A9DA5",
"%.	c #1388CF",
"&.	c #484A4B",
"*.	c #F2F7F6",
"=.	c #2196DF",
"-.	c #236690",
";.	c #1F80BF",
">.	c #117FC7",
",.	c #698CA7",
"'.	c #1C95E3",
").	c #353E47",
"!.	c #96B9CF",
"~.	c #0F83CB",
"{.	c #444845",
"].	c #2F98E1",
"^.	c #7490A2",
"/.	c #0A85CB",
"(.	c #647480",
"_.	c #FAFAFB",
":.	c #FEFEFB",
"<.	c #FAFEFD",
"[.	c #D3E9F3",
"}.	c #0F93DD",
"|.	c #078EDC",
"1.	c #0D8CDB",
"2.	c #375668",
"3.	c #878989",
"4.	c #DAEBF2",
"5.	c #1388CD",
"6.	c #46494C",
"7.	c #F1F7F9",
"8.	c #2299DC",
"9.	c #276490",
"0.	c #1F7AB2",
"a.	c #355E78",
"b.	c #1782C6",
"c.	c #0B8BD3",
"d.	c #333F46",
"e.	c #9CC1D8",
"f.	c #1086C6",
"g.	c #2B485F",
"h.	c #1C93DC",
"i.	c #386E96",
"j.	c #1588CB",
"k.	c #2D5E78",
"l.	c #E4E1E0",
"m.	c #FBFBFB",
"n.	c #41ABE2",
"o.	c #0692E2",
"p.	c #0792DD",
"q.	c #1679B5",
"r.	c #C7C6C7",
"s.	c #E5F0F7",
"t.	c #148AD4",
"u.	c #3D5763",
"v.	c #CADFED",
"w.	c #1893E1",
"x.	c #2C6692",
"y.	c #207AB0",
"z.	c #6B716F",
"A.	c #55AEDE",
"B.	c #058FE4",
"C.	c #363D44",
"D.	c #97BDDC",
"E.	c #1181C4",
"F.	c #186592",
"G.	c #2F91CA",
"H.	c #216B8D",
"I.	c #2581BA",
"J.	c #1672AC",
"K.	c #ADACAB",
"L.	c #FFFEFC",
"M.	c #FDFEFE",
"N.	c #99CDED",
"O.	c #2498DB",
"P.	c #1593DE",
"Q.	c #0892DD",
"R.	c #0B92E0",
"S.	c #598099",
"T.	c #F5F7F4",
"U.	c #8BC7EB",
"V.	c #1E7FBD",
"W.	c #348ED0",
"X.	c #81B1CD",
"Y.	c #3F5C73",
"Z.	c #4B86AC",
"`.	c #71716F",
" +	c #D6EBF4",
".+	c #3B97CA",
"++	c #383F45",
"@+	c #ADC7D7",
"#+	c #4494C9",
"$+	c #256C9A",
"%+	c #7C7785",
"&+	c #A14C4C",
"*+	c #8A7886",
"=+	c #4594C7",
"-+	c #687071",
";+	c #FDFDFD",
">+	c #F7FCF7",
",+	c #BADBEE",
"'+	c #269EE3",
")+	c #83A0B2",
"!+	c #2C6790",
"~+	c #0794E1",
"{+	c #0790E0",
"]+	c #1880C5",
"^+	c #A2B7C4",
"/+	c #8BBEE6",
"(+	c #367CB7",
"_+	c #50697C",
":+	c #4E6E90",
"<+	c #819FBD",
"[+	c #81B2D5",
"}+	c #5B86AD",
"|+	c #D1E5F0",
"1+	c #7EACD6",
"2+	c #6084A2",
"3+	c #7FB8DE",
"4+	c #8CA9BF",
"5+	c #856C68",
"6+	c #BC646A",
"7+	c #CE8A88",
"8+	c #C46D6E",
"9+	c #BB9696",
"0+	c #787A79",
"a+	c #F3F4F3",
"b+	c #FEFEFE",
"c+	c #F0F3F7",
"d+	c #6DBCEC",
"e+	c #8AAEC5",
"f+	c #51504A",
"g+	c #B6C1C9",
"h+	c #2A9EDE",
"i+	c #0894E2",
"j+	c #3776A3",
"k+	c #82B2DA",
"l+	c #508EC1",
"m+	c #7992A9",
"n+	c #91B3CD",
"o+	c #68A1D0",
"p+	c #6AA1D2",
"q+	c #5D9DD1",
"r+	c #7EA9C9",
"s+	c #7CB0D9",
"t+	c #87A6C1",
"u+	c #5EA5DC",
"v+	c #5A8BB2",
"w+	c #C2BFC3",
"x+	c #E09BA0",
"y+	c #C47174",
"z+	c #B87B80",
"A+	c #ACACAC",
"B+	c #D7D9D8",
"C+	c #FCFCFC",
"D+	c #F6F6F6",
"E+	c #8A8A8A",
"F+	c #BABAB9",
"G+	c #FCFCFB",
"H+	c #A1D3ED",
"I+	c #0892DE",
"J+	c #0993E2",
"K+	c #0F85CD",
"L+	c #91999E",
"M+	c #A7A8AC",
"N+	c #8B8A8C",
"O+	c #D2D2D2",
"P+	c #BDBEBF",
"Q+	c #8E8F8F",
"R+	c #9B9D9E",
"S+	c #898A8C",
"T+	c #AFB1B2",
"U+	c #A1A2A4",
"V+	c #C8C8C9",
"W+	c #777575",
"X+	c #8195A3",
"Y+	c #3F9BDD",
"Z+	c #4D9DD4",
"`+	c #389BDB",
" @	c #8AADC4",
".@	c #F4F4F1",
"+@	c #FDFCFB",
"@@	c #F4F8F8",
"#@	c #38A5E2",
"$@	c #0792DE",
"%@	c #0694E0",
"&@	c #3D7FA4",
"*@	c #EAEAE9",
"=@	c #F7F9F9",
"-@	c #FAFAFA",
";@	c #F9F9F9",
">@	c #F8F8F8",
",@	c #F9F9F8",
"'@	c #CAE0F1",
")@	c #43A3DD",
"!@	c #93B6D0",
"~@	c #45A0D9",
"{@	c #395671",
"]@	c #BCBFBA",
"^@	c #FEFEFD",
"/@	c #B8DDF2",
"(@	c #0A93E2",
"_@	c #0892DF",
":@	c #118AD2",
"<@	c #99A4B0",
"[@	c #D0E8F2",
"}@	c #4DA4D4",
"|@	c #6F8E72",
"1@	c #509DC8",
"2@	c #324F67",
"3@	c #B8B8B6",
"4@	c #FDFDFC",
"5@	c #4DADE9",
"6@	c #0A95E2",
"7@	c #0A93E5",
"8@	c #327AA9",
"9@	c #E9EBE8",
"0@	c #FBFDFB",
"a@	c #52A4DC",
"b@	c #548288",
"c@	c #278AC1",
"d@	c #313E48",
"e@	c #B7B9B9",
"f@	c #F5FBFB",
"g@	c #D1EAF8",
"h@	c #CCE9FA",
"i@	c #CDEAFB",
"j@	c #CDE9FA",
"k@	c #CCE8F9",
"l@	c #CBE5F7",
"m@	c #98D0F2",
"n@	c #0F93E1",
"o@	c #098ED8",
"p@	c #0C8CD6",
"q@	c #759DBB",
"r@	c #CAE7FA",
"s@	c #CBE8FB",
"t@	c #CCE9FC",
"u@	c #C8E8F8",
"v@	c #C8E7F9",
"w@	c #B3DBF1",
"x@	c #3578A8",
"y@	c #29506C",
"z@	c #385464",
"A@	c #AECDDF",
"B@	c #CFE8F8",
"C@	c #F5FCFD",
"D@	c #FFFFFE",
"E@	c #F0F7F6",
"F@	c #D9EBF5",
"G@	c #BCCDD6",
"H@	c #BCCCD6",
"I@	c #BACAD5",
"J@	c #BACBD7",
"K@	c #A0B1BA",
"L@	c #32414D",
"M@	c #2F3F4A",
"N@	c #364652",
"O@	c #A2B4BF",
"P@	c #BBCDD8",
"Q@	c #BBCDD9",
"R@	c #BACDD8",
"S@	c #B3C4CD",
"T@	c #92A3AD",
"U@	c #B0C1C9",
"V@	c #BACDD6",
"W@	c #BECCD3",
"X@	c #D5D7D9",
"Y@	c #FAF9F9",
"Z@	c #FCFCF9",
"`@	c #FAF9F5",
" #	c #E6E6E4",
".#	c #E5E6E5",
"+#	c #E4E6E5",
"@#	c #E4E6E3",
"##	c #E5E7E3",
"$#	c #E4E5E5",
"%#	c #E5E5E2",
"&#	c #E4E4E2",
"*#	c #E3E4E2",
"=#	c #E6E7E5",
"-#	c #E5E6E4",
";#	c #E5E7E4",
">#	c #E6E7E4",
",#	c #E5E6E3",
"'#	c #E7E6E4",
")#	c #E6E4E5",
". + @ # $ % & * = - ; > , ' ' ) ! , ~ { ] ^ / ( _ : < [ } | 1 ",
"2 3 4 5 6 7 8 9 0 a b c d e f g h i j k l m n o p q r s t u 1 ",
"v w x y z A B C D E F G H I J K L M N O P Q R S T U V W X 1 1 ",
"Y Z `  ...+.@.#.$.%.&.*.=.-.;.>.,.'.).!.~.{.].^./.(._.1 1 1 1 ",
":.<.[.}.|.1.2.3.4.5.6.7.8.9.0.a.b.c.d.e.f.g.h.i.j.k.l.1 1 1 1 ",
"1 1 m.n.o.p.q.r.s.t.u.v.w.x.y.z.A.B.C.D.E.F.G.H.I.J.K.1 1 1 1 ",
"L.M.N.O.P.Q.R.S.T.U.V.W.X.Y.Z.`. +.+++@+#+$+%+&+*+=+-+;+1 1 1 ",
">+,+'+)+!+~+{+]+^+/+(+_+:+<+[+}+|+1+2+3+4+5+6+7+8+9+0+a+b+1 1 ",
"c+d+e+f+g+h+i+4 j+k+l+m+n+o+p+q+r+s+t+u+v+w+x+y+z+A+B+b+b+b+1 ",
"C+D+E+F+G+H+I+J+K+L+M+N+O+P+Q+R+S+T+U+V+W+X+Y+Z+`+ @.@1 1 1 1 ",
"b+C+;+b++@@@#@$@%@&@*@=@-@m.;@-@-@>@-@>@,@'@)@!@~@{@]@1 1 1 1 ",
"1 1 1 1 ^@;+/@(@_@:@<@| ;+;+b+1 b+b+b+;+v [@}@|@1@2@3@1 1 1 1 ",
"1 1 1 1 1 b+4@5@6@7@8@9@b+b+1 1 1 1 1 1 0@7.a@b@c@d@e@1 1 1 1 ",
"f@g@h@i@j@k@l@m@n@o@p@q@r@s@t@t@t@t@t@t@u@v@w@x@y@z@A@B@C@D@1 ",
"E@F@G@H@H@H@I@J@K@L@M@N@O@P@Q@Q@Q@Q@Q@Q@Q@Q@R@S@T@U@V@W@X@Y@1 ",
"Z@`@ #.#.#+#@###$#%#&#*#=#-#.#.#.#.#.#.#.#.#;#;###>#,#'#)#m.1 ",
"1 1 1 1 1 1 1 1 1 1 1 1 1 1 1 1 1 1 1 1 1 1 1 1 1 1 1 1 1 1 1 "};
