/* XPM */
static char * almacen_xpm[] = {
"32 32 565 2",
"  	c None",
". 	c #98CDFE",
"+ 	c #77B2F3",
"@ 	c #438ADE",
"# 	c #5DA9FC",
"$ 	c #A9DCFE",
"% 	c #DDFDFF",
"& 	c #8DCEFF",
"* 	c #6DB5FF",
"= 	c #5DA5F6",
"- 	c #488EE1",
"; 	c #306CC7",
"> 	c #5293E8",
", 	c #A7E3FF",
"' 	c #C0F8FF",
") 	c #9ADFFF",
"! 	c #8DD3FF",
"~ 	c #8BD0FF",
"{ 	c #85CBFF",
"] 	c #77BFFF",
"^ 	c #61AAF7",
"/ 	c #4B92E1",
"( 	c #559FF4",
"_ 	c #6FB4FB",
": 	c #80C0F6",
"< 	c #6CA7DA",
"[ 	c #4B84C6",
"} 	c #447ECA",
"| 	c #63A5E8",
"1 	c #8ED5FE",
"2 	c #9FE4FF",
"3 	c #9CE0FF",
"4 	c #9CE1FF",
"5 	c #9BE0FF",
"6 	c #83C9FC",
"7 	c #4C8CDF",
"8 	c #316BC4",
"9 	c #3F7FD3",
"0 	c #3778C9",
"a 	c #4E9EFF",
"b 	c #6CB3FF",
"c 	c #87C8FF",
"d 	c #8FCFFF",
"e 	c #8CCFFF",
"f 	c #8ED4FF",
"g 	c #8FD4FD",
"h 	c #82C3EE",
"i 	c #639FD7",
"j 	c #5994D6",
"k 	c #7FBEEF",
"l 	c #A1E5FF",
"m 	c #94D7F9",
"n 	c #64A5E1",
"o 	c #3973C4",
"p 	c #3F77BF",
"q 	c #6DABDD",
"r 	c #86CAFC",
"s 	c #7AC1FF",
"t 	c #67AEF7",
"u 	c #559DED",
"v 	c #4991E6",
"w 	c #BD9726",
"x 	c #A5974F",
"y 	c #748A84",
"z 	c #5990CA",
"A 	c #59A0F7",
"B 	c #7FC2FF",
"C 	c #8ACCFF",
"D 	c #94D7FF",
"E 	c #9EE2FF",
"F 	c #A0E5FF",
"G 	c #3D78C6",
"H 	c #417AC9",
"I 	c #3973C9",
"J 	c #4882C7",
"K 	c #7CB9DE",
"L 	c #A1E2F9",
"M 	c #A7E9FF",
"N 	c #9EE1FF",
"O 	c #9ADCFF",
"P 	c #95D6FF",
"Q 	c #8CCEFF",
"R 	c #7FC3FF",
"S 	c #70B6FC",
"T 	c #62A8F4",
"U 	c #569FF3",
"V 	c #3877BD",
"W 	c #B4840B",
"X 	c #FFBC12",
"Y 	c #EFAD0A",
"Z 	c #D09F16",
"` 	c #998C45",
" .	c #5A85AA",
"..	c #549CF7",
"+.	c #72B9FF",
"@.	c #7ABDFC",
"#.	c #61A1E5",
"$.	c #4583D1",
"%.	c #326CBD",
"&.	c #4B85C4",
"*.	c #74B1D9",
"=.	c #66A1D5",
"-.	c #5892D6",
";.	c #94D5FB",
">.	c #ADEEFF",
",.	c #A9EAFF",
"'.	c #A5E4FF",
").	c #A1E1FF",
"!.	c #9FDDFF",
"~.	c #9BD9FF",
"{.	c #96D3FF",
"].	c #90CBFF",
"^.	c #7CB8FB",
"/.	c #4D90D6",
"(.	c #716D9B",
"_.	c #5D171D",
":.	c #956F0C",
"<.	c #FFC32A",
"[.	c #FEC02A",
"}.	c #FFC026",
"|.	c #FFBB17",
"1.	c #E3AB19",
"2.	c #A09351",
"3.	c #5A7FA2",
"4.	c #2E6AC0",
"5.	c #2D6FD3",
"6.	c #5492DB",
"7.	c #7CBAE8",
"8.	c #9EDDFD",
"9.	c #A8EAFF",
"0.	c #A6E7FF",
"a.	c #82BFE7",
"b.	c #5F99D8",
"c.	c #65A1DE",
"d.	c #88C6F4",
"e.	c #A2DDFF",
"f.	c #9BD6FF",
"g.	c #91CCFF",
"h.	c #81BDFF",
"i.	c #619FE8",
"j.	c #4F7FBF",
"k.	c #8F84A5",
"l.	c #D46364",
"m.	c #480603",
"n.	c #FFC42B",
"o.	c #FFC739",
"p.	c #FFCB3D",
"q.	c #FFCE41",
"r.	c #FFD241",
"s.	c #F5BB25",
"t.	c #C59619",
"u.	c #BA9C41",
"v.	c #8A947A",
"w.	c #6BA3DB",
"x.	c #75BCFF",
"y.	c #96D5FF",
"z.	c #9ADAFF",
"A.	c #A1E0FF",
"B.	c #9DDAFD",
"C.	c #7FB9EA",
"D.	c #5A92D8",
"E.	c #4D8AD6",
"F.	c #5C9DE9",
"G.	c #66A9F7",
"H.	c #6893D6",
"I.	c #5B7AB6",
"J.	c #897DA2",
"K.	c #D6919B",
"L.	c #FF8986",
"M.	c #C64140",
"N.	c #3A0304",
"O.	c #F5B929",
"P.	c #FFCC3E",
"Q.	c #FFD348",
"R.	c #FFD950",
"S.	c #FFDF56",
"T.	c #F6D44D",
"U.	c #BF9218",
"V.	c #FACB46",
"W.	c #FFC92A",
"X.	c #D4A82B",
"Y.	c #879077",
"Z.	c #609CDF",
"`.	c #75BAFF",
" +	c #8DCBFF",
".+	c #8DC7FF",
"++	c #82C2FF",
"@+	c #6BADF1",
"#+	c #4B7EC3",
"$+	c #3E5494",
"%+	c #684375",
"&+	c #BF5061",
"*+	c #ED7E81",
"=+	c #FF8F8C",
"-+	c #FF7977",
";+	c #EE6161",
">+	c #B83838",
",+	c #DDA721",
"'+	c #FFD143",
")+	c #FFD74C",
"!+	c #FFE059",
"~+	c #FFE761",
"{+	c #FBE561",
"]+	c #C39A1F",
"^+	c #EAC650",
"/+	c #FFE35C",
"(+	c #FFDC4F",
"_+	c #FEC329",
":+	c #C39D2D",
"<+	c #718A8F",
"[+	c #63A4F4",
"}+	c #63A7F2",
"|+	c #5286C9",
"1+	c #596198",
"2+	c #834868",
"3+	c #BA4857",
"4+	c #EA6264",
"5+	c #E03430",
"6+	c #F03B38",
"7+	c #FF7675",
"8+	c #FF6F6F",
"9+	c #FD6A6A",
"0+	c #EA6464",
"a+	c #B03535",
"b+	c #CD981A",
"c+	c #FFD344",
"d+	c #FFDD53",
"e+	c #FFE45D",
"f+	c #FFEC67",
"g+	c #FFF16D",
"h+	c #C9A72C",
"i+	c #DEB842",
"j+	c #FEEF6D",
"k+	c #FFED6D",
"l+	c #FFE363",
"m+	c #EFB41E",
"n+	c #968848",
"o+	c #724163",
"p+	c #AA303E",
"q+	c #E04142",
"r+	c #FF5D59",
"s+	c #FF6F6C",
"t+	c #FF7978",
"u+	c #E03A3A",
"v+	c #E12F2F",
"w+	c #FF7373",
"x+	c #FF7272",
"y+	c #FE7070",
"z+	c #EC6666",
"A+	c #A92F2F",
"B+	c #815E06",
"C+	c #E3AC21",
"D+	c #F7CE42",
"E+	c #FFE960",
"F+	c #FFF36E",
"G+	c #FFFB77",
"H+	c #CEAF31",
"I+	c #D3A934",
"J+	c #FEF779",
"K+	c #FFF779",
"L+	c #FFEF72",
"M+	c #FFE66B",
"N+	c #FFDA5C",
"O+	c #D5941C",
"P+	c #D2251A",
"Q+	c #F75151",
"R+	c #FC5C5C",
"S+	c #FF5D5D",
"T+	c #FF6060",
"U+	c #FF6C6C",
"V+	c #E44040",
"W+	c #DD2929",
"X+	c #FF7777",
"Y+	c #FF7878",
"Z+	c #FF7474",
"`+	c #ED6767",
" @	c #9D2828",
".@	c #C29215",
"+@	c #BF8D11",
"@@	c #D9AA25",
"#@	c #F6DB53",
"$@	c #FFFF7C",
"%@	c #D2BB3C",
"&@	c #CC9E29",
"*@	c #F4E668",
"=@	c #FFFE80",
"-@	c #FFF67B",
";@	c #FFEE76",
">@	c #FFDD68",
",@	c #CF9530",
"'@	c #CD2C26",
")@	c #EB4648",
"!@	c #F44E4E",
"~@	c #FD5A5A",
"{@	c #FF6666",
"]@	c #E84D4D",
"^@	c #DD2727",
"/@	c #FE7676",
"(@	c #FF7D7D",
"_@	c #FF7C7C",
":@	c #EC6566",
"<@	c #981F1F",
"[@	c #F0BF37",
"}@	c #EAD24F",
"|@	c #BE9D27",
"1@	c #B48208",
"2@	c #E3B831",
"3@	c #D3B631",
"4@	c #CC9C29",
"5@	c #E9D251",
"6@	c #FFFF86",
"7@	c #FFF97E",
"8@	c #FFF178",
"9@	c #FFDE6A",
"0@	c #D39A34",
"a@	c #CC2C26",
"b@	c #EC484A",
"c@	c #F75252",
"d@	c #FF6161",
"e@	c #FF6B6B",
"f@	c #EA5555",
"g@	c #DF2828",
"h@	c #FF7F7F",
"i@	c #F65554",
"j@	c #F02724",
"k@	c #AE1818",
"l@	c #DEAF2F",
"m@	c #FFEE63",
"n@	c #FFF16C",
"o@	c #DBCC51",
"p@	c #C2A027",
"q@	c #B2830A",
"r@	c #C69A26",
"s@	c #E6CA4E",
"t@	c #FFFF87",
"u@	c #FFFD83",
"v@	c #FFF27A",
"w@	c #FFDF6B",
"x@	c #D39B35",
"y@	c #CB2E26",
"z@	c #ED494B",
"A@	c #F85555",
"B@	c #FF6464",
"C@	c #FF7273",
"D@	c #EB5454",
"E@	c #DE2525",
"F@	c #F03E3D",
"G@	c #E01C1A",
"H@	c #D20503",
"I@	c #D00E0C",
"J@	c #821212",
"K@	c #B99025",
"L@	c #FFEB60",
"M@	c #FFF16B",
"N@	c #FFFE77",
"O@	c #FDFE7E",
"P@	c #D5C84E",
"Q@	c #C69926",
"R@	c #E0B241",
"S@	c #E2C03B",
"T@	c #FEF475",
"U@	c #FFF780",
"V@	c #FFDF6D",
"W@	c #D19A34",
"X@	c #C93126",
"Y@	c #EE4B4E",
"Z@	c #FA5A5B",
"`@	c #FE6262",
" #	c #F75251",
".#	c #EC3432",
"+#	c #D10D0C",
"@#	c #DB1D1E",
"##	c #D32222",
"$#	c #D73D3D",
"%#	c #E55A5A",
"&#	c #DA5252",
"*#	c #5E0E0E",
"=#	c #A17C1E",
"-#	c #FFEB5F",
";#	c #FFF06B",
">#	c #FFF672",
",#	c #FFFF7E",
"'#	c #F7F473",
")#	c #C39A23",
"!#	c #E3C960",
"~#	c #C09D23",
"{#	c #C89A1B",
"]#	c #EDCA4A",
"^#	c #FFDA65",
"/#	c #CD9830",
"(#	c #C53526",
"_#	c #EE494C",
":#	c #EF3B39",
"<#	c #E01815",
"[#	c #D00A07",
"}#	c #CF1E1D",
"|#	c #CD2525",
"1#	c #DD2525",
"2#	c #FB8181",
"3#	c #FF8A8A",
"4#	c #DC5353",
"5#	c #4A0909",
"6#	c #7E5F15",
"7#	c #FFEB5C",
"8#	c #FFF06C",
"9#	c #FFF572",
"0#	c #FFFC7B",
"a#	c #F7F474",
"b#	c #BF951B",
"c#	c #F0CF65",
"d#	c #FBFA7D",
"e#	c #D9CB58",
"f#	c #BA9019",
"g#	c #D4A01F",
"h#	c #D09923",
"i#	c #CA2D19",
"j#	c #E11716",
"k#	c #CF0906",
"l#	c #D52928",
"m#	c #EC5959",
"n#	c #FC7E7E",
"o#	c #E54949",
"p#	c #E02828",
"q#	c #FF8383",
"r#	c #FF8181",
"s#	c #FE7777",
"t#	c #CE4747",
"u#	c #3A0404",
"v#	c #FFE956",
"w#	c #FFE867",
"x#	c #FFF070",
"y#	c #FFF97A",
"z#	c #F7F274",
"A#	c #BD9114",
"B#	c #EABE52",
"C#	c #FEF77C",
"D#	c #F4E371",
"E#	c #C59E2C",
"F#	c #C4891D",
"G#	c #D2140B",
"H#	c #CE1718",
"I#	c #E54646",
"J#	c #FF6767",
"K#	c #FF7171",
"L#	c #DF3A3A",
"M#	c #E42D2D",
"N#	c #FA7373",
"O#	c #BC3C3C",
"P#	c #C89A21",
"Q#	c #FFD147",
"R#	c #FFE665",
"S#	c #FFF174",
"T#	c #F9EF74",
"U#	c #BA8F11",
"V#	c #DDB343",
"W#	c #FBF076",
"X#	c #FFF67E",
"Y#	c #FFEE79",
"Z#	c #FFD565",
"`#	c #BF861F",
" $	c #BE2417",
".$	c #E94B4E",
"+$	c #F45858",
"@$	c #FB6060",
"#$	c #FF6A6A",
"$$	c #DB3030",
"%$	c #E63737",
"&$	c #FE7B7B",
"*$	c #FF7E7E",
"=$	c #F36C6C",
"-$	c #A62C2C",
";$	c #6A4D08",
">$	c #DEAD2C",
",$	c #FFE05A",
"'$	c #FEE76D",
")$	c #BB9213",
"!$	c #D9AB39",
"~$	c #F8E66F",
"{$	c #FFF47D",
"]$	c #FFE773",
"^$	c #FED05F",
"/$	c #C49221",
"($	c #BD381E",
"_$	c #E9494D",
":$	c #EE5252",
"<$	c #F65D5D",
"[$	c #FE6767",
"}$	c #FE6D6D",
"|$	c #D82222",
"1$	c #EE4545",
"2$	c #FF7B7B",
"3$	c #FC7979",
"4$	c #901E1E",
"5$	c #B58818",
"6$	c #FFD04C",
"7$	c #C59814",
"8$	c #DAAA33",
"9$	c #F5DB65",
"0$	c #FFF07B",
"a$	c #FFE572",
"b$	c #FCCC5B",
"c$	c #C2901E",
"d$	c #BC361C",
"e$	c #E7474B",
"f$	c #EB5050",
"g$	c #F15A5A",
"h$	c #FA6868",
"i$	c #F96D6D",
"j$	c #D41717",
"k$	c #F24D4D",
"l$	c #F16B6B",
"m$	c #D34B4B",
"n$	c #B62D2D",
"o$	c #6C0D0D",
"p$	c #9C7306",
"q$	c #C3961B",
"r$	c #FBD65F",
"s$	c #FFE976",
"t$	c #FFE472",
"u$	c #FACB5A",
"v$	c #BF8E1C",
"w$	c #BB351A",
"x$	c #E44449",
"y$	c #E74D4D",
"z$	c #EC5B5B",
"A$	c #F57070",
"B$	c #F16E6E",
"C$	c #D91010",
"D$	c #C62A2A",
"E$	c #761A1A",
"F$	c #3C0303",
"G$	c #493501",
"H$	c #C0952B",
"I$	c #FFD659",
"J$	c #FFE26F",
"K$	c #F9CF5F",
"L$	c #BE8C18",
"M$	c #BA3319",
"N$	c #E14146",
"O$	c #E14E4E",
"P$	c #E76666",
"Q$	c #EE7A7A",
"R$	c #E05656",
"S$	c #970303",
"T$	c #7B5C0F",
"U$	c #F0BE44",
"V$	c #FFD965",
"W$	c #BF8F1B",
"X$	c #B93116",
"Y$	c #DE4044",
"Z$	c #DC5C5C",
"`$	c #DD6969",
" %	c #B94747",
".%	c #611313",
"+%	c #DAAB37",
"@%	c #D7A32A",
"#%	c #B92F16",
"$%	c #D94B50",
"%%	c #C85555",
"&%	c #862727",
"*%	c #B28318",
"=%	c #C73C21",
"-%	c #A53034",
";%	c #4C0E0E",
">%	c #681C0A",
"                                                                ",
"                                                                ",
"                          . + @                                 ",
"                      # $ % & * = -                             ",
"                  ; > , ' ) ! ~ { ] ^ /                         ",
"            ( _ : < [ } | 1 2 3 4 5 6 7 8 9                     ",
"      0 a b c d e f g h i j k l m n o p q r s t u v             ",
"    w x y z A b B C D E F h G H I J K L M N O P Q R S T U V     ",
"    W X Y Z `  ...+.@.#.$.%.&.*.=.-.;.>.,.'.).!.~.{.].^./.(._.  ",
"    :.<.[.}.|.1.2.3.4.5.6.7.8.9.0.a.b.c.d.!.e.f.g.h.i.j.k.l.m.  ",
"      n.o.p.q.r.s.t.u.v.w.x.Q y.z.A.B.C.D.E.F.G.H.I.J.K.L.M.N.  ",
"      O.P.Q.R.S.T.U.V.W.X.Y.Z.`. +g..+++@+#+$+%+&+*+=+-+;+>+    ",
"      ,+'+)+!+~+{+]+^+/+(+_+:+<+[+}+|+1+2+3+4+5+6+7+8+9+0+a+    ",
"      b+c+d+e+f+g+h+i+j+k+l+Q.m+n+o+p+q+r+s+t+u+v+w+x+y+z+A+    ",
"      B+C+D+E+F+G+H+I+J+K+L+M+N+O+P+Q+R+S+T+U+V+W+X+Y+Z+`+ @    ",
"        .@+@@@#@$@%@&@*@=@-@;@>@,@'@)@!@~@{@Z+]@^@/@(@_@:@<@    ",
"        [@}@|@1@2@3@4@5@6@7@8@9@0@a@b@c@d@e@X+f@g@_@h@i@j@k@    ",
"        l@m@n@o@p@q@r@s@t@u@v@w@x@y@z@A@B@C@(@D@E@F@G@H@I@J@    ",
"        K@L@M@N@O@P@Q@R@S@T@U@V@W@X@Y@Z@`@ #.#+#@###$#%#&#*#    ",
"        =#-#;#>#,#'#)#!#~#{#]#^#/#(#_#:#<#[#}#|#1#2#3#h@4#5#    ",
"        6#7#8#9#0#a#b#c#d#e#f#g#h#i#j#k#l#m#n#o#p#q#r#s#t#u#    ",
"          v#w#x#y#z#A#B#C#6@D#E#F#G#H#I#J#K#_@L#M#h@h@N#O#      ",
"          P#Q#R#S#T#U#V#W#X#Y#Z#`# $.$+$@$#$Z+$$%$&$*$=$-$      ",
"            ;$>$,$'$)$!$~${$]$^$/$($_$:$<$[$}$|$1$2$3$0+4$      ",
"                5$6$7$8$9$0$a$b$c$d$e$f$g$h$i$j$k$l$m$n$o$      ",
"                    p$q$r$s$t$u$v$w$x$y$z$A$B$C$D$E$F$          ",
"                      G$H$I$J$K$L$M$N$O$P$Q$R$S$                ",
"                          T$U$V$W$X$Y$Z$`$ %.%                  ",
"                              +%@%#%$%%%&%                      ",
"                                *%=%-%;%                        ",
"                                  >%                            ",
"                                                                "};
