/* XPM */
static char * flmodeppal_xpm[] = {
"32 32 412 2",
"  	c None",
". 	c #2E3E65",
"+ 	c #93A2CA",
"@ 	c #A4BCE2",
"# 	c #A2B2D8",
"$ 	c #6C7695",
"% 	c #55628B",
"& 	c #C0CCE9",
"* 	c #FEFFFF",
"= 	c #FFFFFF",
"- 	c #EBF6F9",
"; 	c #9CB8D5",
"> 	c #FBFDFF",
", 	c #EEF3FF",
"' 	c #7684A9",
") 	c #526187",
"! 	c #D0D9E7",
"~ 	c #A6C1D9",
"{ 	c #A9BBD9",
"] 	c #9DB1E0",
"^ 	c #192C5F",
"/ 	c #44557F",
"( 	c #C3CCD5",
"_ 	c #FFFFF8",
": 	c #FFFFF6",
"< 	c #FFFFF4",
"[ 	c #FFFFFD",
"} 	c #CCDFEC",
"| 	c #6C8EBB",
"1 	c #8FA7CC",
"2 	c #8BA6CB",
"3 	c #A7C3DA",
"4 	c #9DB0D9",
"5 	c #23345E",
"6 	c #9EADBC",
"7 	c #FFFFE5",
"8 	c #FFFFE7",
"9 	c #FFFFE6",
"0 	c #FFFFEB",
"a 	c #FFFFEE",
"b 	c #FFFFF1",
"c 	c #FFFFF9",
"d 	c #E6F1F3",
"e 	c #BCD5E2",
"f 	c #CDDFEC",
"g 	c #EDF7FB",
"h 	c #5A6893",
"i 	c #687CA0",
"j 	c #EBF0D4",
"k 	c #FFFFDA",
"l 	c #FFFFD8",
"m 	c #FFFFDB",
"n 	c #FFFFE0",
"o 	c #FFFFE4",
"p 	c #FFFFF3",
"q 	c #FFFFF7",
"r 	c #FFFFFB",
"s 	c #DAE4FB",
"t 	c #182851",
"u 	c #1E326A",
"v 	c #A8B6BE",
"w 	c #FFFFCB",
"x 	c #FFFFCC",
"y 	c #FFFFCE",
"z 	c #FFFFD1",
"A 	c #FFFFD5",
"B 	c #FFFFD9",
"C 	c #FFFFDD",
"D 	c #FFFFE1",
"E 	c #FFFFED",
"F 	c #F6F7E9",
"G 	c #E2E6E6",
"H 	c #CED5E1",
"I 	c #BCC6DD",
"J 	c #AFBBD9",
"K 	c #B0BCDB",
"L 	c #B7C3DF",
"M 	c #8E9ECA",
"N 	c #7686AE",
"O 	c #8A98BB",
"P 	c #758DBB",
"Q 	c #2D3C60",
"R 	c #7F8B95",
"S 	c #FFFFC6",
"T 	c #FFFFC3",
"U 	c #FFFFC7",
"V 	c #FFFFD2",
"W 	c #FFFFD6",
"X 	c #E6E9D4",
"Y 	c #B0BBC4",
"Z 	c #94A2BD",
"` 	c #8A9DC0",
" .	c #91A4CA",
"..	c #9BAFD1",
"+.	c #B4C5E0",
"@.	c #CEDBED",
"#.	c #E2ECF7",
"$.	c #EEF4FD",
"%.	c #FBFEFF",
"&.	c #C3D4EE",
"*.	c #525C7A",
"=.	c #BCC6B4",
"-.	c #FFFFC0",
";.	c #FFFFC1",
">.	c #FFFFC4",
",.	c #FFFFD0",
"'.	c #C5CDC1",
").	c #6783B9",
"!.	c #B6D1E9",
"~.	c #D2EBF7",
"{.	c #E5F9FF",
"].	c #F4FFFF",
"^.	c #F7FFFF",
"/.	c #F9FFFF",
"(.	c #FDFFFF",
"_.	c #ADC0DA",
":.	c #4E5B7C",
"<.	c #2A3555",
"[.	c #F4F8C0",
"}.	c #FFFFBB",
"|.	c #FFFFBD",
"1.	c #FFFFC5",
"2.	c #FFFFCA",
"3.	c #F8F8CB",
"4.	c #9CB4CC",
"5.	c #DBFBFF",
"6.	c #DFF9FE",
"7.	c #E0F8FE",
"8.	c #E2F9FE",
"9.	c #E7FBFF",
"0.	c #EBFDFF",
"a.	c #EEFEFF",
"b.	c #F3FFFF",
"c.	c #C7DAE9",
"d.	c #92A8CD",
"e.	c #46537C",
"f.	c #75838D",
"g.	c #FFFFB7",
"h.	c #FFFFBE",
"i.	c #9FB1BC",
"j.	c #BCE0F3",
"k.	c #D6F7FD",
"l.	c #D8F6FD",
"m.	c #DBF7FD",
"n.	c #E4F9FF",
"o.	c #E7FDFF",
"p.	c #ECFEFF",
"q.	c #F0FFFF",
"r.	c #B4D0E1",
"s.	c #7699C0",
"t.	c #9BB0D1",
"u.	c #B7C6DF",
"v.	c #89A5D8",
"w.	c #05102E",
"x.	c #D1D9B4",
"y.	c #FFFFB1",
"z.	c #FFFFB4",
"A.	c #FFFFB8",
"B.	c #FFFFBC",
"C.	c #B9C3B7",
"D.	c #A6CAE4",
"E.	c #D1F6FD",
"F.	c #D1F3F9",
"G.	c #D5F4FB",
"H.	c #DDF7FD",
"I.	c #E1F9FE",
"J.	c #F0FEFF",
"K.	c #EDF9FE",
"L.	c #E2F3F8",
"M.	c #C7DBEB",
"N.	c #BED4E5",
"O.	c #CDE0F6",
"P.	c #273458",
"Q.	c #4D5C72",
"R.	c #FFFFB2",
"S.	c #FFFFAE",
"T.	c #FFFFB6",
"U.	c #FFFFB9",
"V.	c #DBDFB6",
"W.	c #8EB1D2",
"X.	c #CCF7FD",
"Y.	c #CAF0F8",
"Z.	c #CEF1F9",
"`.	c #D2F3FB",
" +	c #D9F7FD",
".+	c #DDF8FE",
"++	c #E5FBFE",
"@+	c #ECFDFF",
"#+	c #F1FFFF",
"$+	c #F8FFFF",
"%+	c #525E83",
"&+	c #B8C3A7",
"*+	c #FFFFA9",
"=+	c #FFFFAA",
"-+	c #FFFFAF",
";+	c #F4F1B1",
">+	c #89A8C5",
",+	c #C1F0F9",
"'+	c #C3EDF7",
")+	c #C6EEF8",
"!+	c #CBF0F8",
"~+	c #CEF3F9",
"{+	c #D2F4FB",
"]+	c #D6F6FB",
"^+	c #DAF7FD",
"/+	c #E9FDFF",
"(+	c #EDFEFF",
"_+	c #F6FFFF",
":+	c #808FB1",
"<+	c #3C4C64",
"[+	c #FFFFA5",
"}+	c #FFFFA8",
"|+	c #FFFFAD",
"1+	c #FFFFB0",
"2+	c #93ADB9",
"3+	c #AFE1F3",
"4+	c #BDECF6",
"5+	c #C0ECF7",
"6+	c #C4EDF7",
"7+	c #C7F0F8",
"8+	c #CBF0F9",
"9+	c #D0F1F9",
"0+	c #D6F4FB",
"a+	c #D9F6FD",
"b+	c #DFF8FE",
"c+	c #E6FBFF",
"d+	c #A2B4D1",
"e+	c #AFBB9E",
"f+	c #FFFF9F",
"g+	c #FFFFA2",
"h+	c #FFFFA6",
"i+	c #9CAFAE",
"j+	c #9ED4ED",
"k+	c #B7EBF6",
"l+	c #B9E9F4",
"m+	c #BDEBF6",
"n+	c #C1EDF7",
"o+	c #C5EEF7",
"p+	c #CCF1F9",
"q+	c #D0F3F9",
"r+	c #D4F4FB",
"s+	c #D6F4FD",
"t+	c #DFF8FD",
"u+	c #BED1E7",
"v+	c #405066",
"w+	c #FFFFA0",
"x+	c #FFFF9B",
"y+	c #FFFFA4",
"z+	c #A9B7A5",
"A+	c #92CAE6",
"B+	c #B0E7F4",
"C+	c #B1E6F3",
"D+	c #B6E7F4",
"E+	c #B9EBF6",
"F+	c #C1EDF6",
"G+	c #E7FFFF",
"H+	c #D6ECFD",
"I+	c #BECA9C",
"J+	c #FFFF95",
"K+	c #FFFF99",
"L+	c #FFFF9C",
"M+	c #BEC69F",
"N+	c #87BBDB",
"O+	c #A9E6F3",
"P+	c #AAE4F1",
"Q+	c #AFE5F3",
"R+	c #B2E7F3",
"S+	c #B6E9F4",
"T+	c #BBEBF6",
"U+	c #C5EDF7",
"V+	c #CDF1F9",
"W+	c #E0F9FE",
"X+	c #E1FBFF",
"Y+	c #182238",
"Z+	c #566574",
"`+	c #FFFF93",
" @	c #FFFF98",
".@	c #CED299",
"+@	c #7DB0D2",
"@@	c #A4E5F3",
"#@	c #A5E1F0",
"$@	c #A8E4F0",
"%@	c #ADE4F1",
"&@	c #B0E5F3",
"*@	c #B4E7F3",
"=@	c #B7E9F4",
"-@	c #C5EEF8",
";@	c #D1F3FB",
">@	c #DDFDFF",
",@	c #2C3953",
"'@	c #DAE19F",
")@	c #DFDF93",
"!@	c #75A7CB",
"~@	c #9DE4F3",
"{@	c #9EDFEE",
"]@	c #A0E1EE",
"^@	c #A5E2F0",
"/@	c #A8E4F1",
"(@	c #ADE5F1",
"_@	c #B0E6F3",
":@	c #B7E7F4",
"<@	c #BEECF6",
"[@	c #D9FDFF",
"}@	c #415170",
"|@	c #818F8A",
"1@	c #FFFF97",
"2@	c #EBE78E",
"3@	c #6F9EC3",
"4@	c #95E1F1",
"5@	c #97DBEC",
"6@	c #9BDFED",
"7@	c #9EE0EE",
"8@	c #A2E1EE",
"9@	c #A6E2F0",
"0@	c #B4E7F4",
"a@	c #BCEBF6",
"b@	c #D5FDFF",
"c@	c #4A5E7C",
"d@	c #293450",
"e@	c #FDFE9F",
"f@	c #F3EE8E",
"g@	c #6D9DBE",
"h@	c #8FDFF0",
"i@	c #91DAEB",
"j@	c #93DBEC",
"k@	c #98DDED",
"l@	c #9CDDED",
"m@	c #9FE0EE",
"n@	c #A2E1F0",
"o@	c #A6E1F0",
"p@	c #AEE5F1",
"q@	c #B8E9F4",
"r@	c #CDF9FF",
"s@	c #5A7499",
"t@	c #BBC59C",
"u@	c #FFFF94",
"v@	c #F1EE94",
"w@	c #6B99BC",
"x@	c #86D8EC",
"y@	c #8AD6E9",
"z@	c #8ED8EB",
"A@	c #91D9EB",
"B@	c #94DBEC",
"C@	c #9CDFED",
"D@	c #9FDFED",
"E@	c #A9E4F1",
"F@	c #B9EBF4",
"G@	c #C7F8FF",
"H@	c #6481A8",
"I@	c #64737B",
"J@	c #EDF09F",
"K@	c #545F73",
"L@	c #4B7AAA",
"M@	c #86DAEC",
"N@	c #83D4E7",
"O@	c #87D4E7",
"P@	c #8ED9EB",
"Q@	c #92DAEB",
"R@	c #95DBEC",
"S@	c #98DBED",
"T@	c #AEE7F3",
"U@	c #B2EBF6",
"V@	c #B7EDF7",
"W@	c #C5FBFF",
"X@	c #6688B0",
"Y@	c #1F2A47",
"Z@	c #9CA9A0",
"`@	c #1E293E",
" #	c #47719D",
".#	c #86DAEE",
"+#	c #80D2E6",
"@#	c #84D4E6",
"##	c #88D6E9",
"$#	c #8DDAEB",
"%#	c #92DFEE",
"&#	c #98E4F1",
"*#	c #9BE5F4",
"=#	c #9BE1F1",
"-#	c #9DDFF1",
";#	c #9EDDF4",
">#	c #9BD4F0",
",#	c #99CEEE",
"'#	c #97CBEC",
")#	c #9FD2F1",
"!#	c #5D7FB6",
"~#	c #4873A4",
"{#	c #87DBEE",
"]#	c #83D6E9",
"^#	c #86DAED",
"/#	c #87DDEE",
"(#	c #84D8EE",
"_#	c #83D0ED",
":#	c #76B8E1",
"<#	c #689ECC",
"[#	c #5884B7",
"}#	c #496B9F",
"|#	c #365184",
"1#	c #213560",
"2#	c #182952",
"3#	c #0E1A3E",
"4#	c #07132F",
"5#	c #07112C",
"6#	c #4E7EAD",
"7#	c #8DE6FB",
"8#	c #81D1EE",
"9#	c #6BAAD4",
"0#	c #5281B0",
"a#	c #345481",
"b#	c #172950",
"c#	c #3C5D91",
"d#	c #395D83",
"e#	c #112040",
"                                                                ",
"                                                                ",
"                      . + @ # $                                 ",
"                  % & * = - ; > , '                             ",
"              ) ! = = = = = ~ { = = ] ^                         ",
"          / ( _ : < _ [ = = } | 1 2 3 4                         ",
"      5 6 7 8 9 0 a b : c = d e f g = = h                       ",
"    i j k l m n o 8 0 a p q r = = = = = s t                     ",
"u v w x y z A B C D 7 0 E E F G H I J K L M N O P Q             ",
"  R S T U w y V W m X Y Z `  ...+.@.#.$.%.= = = } &.*.          ",
"    =.-.;.>.U x ,.W '.).!.~.{.].^.^./.(.= = = = } _.= :.        ",
"    <.[.}.|.;.1.2.y 3.4.5.6.7.8.9.0.a.b.^./.* = c.d.= = e.      ",
"      f.}.g.}.h.T S w i.j.k.l.m.7.n.o.p.q.b.^.= r.s.t.u.v.w.    ",
"        x.y.z.A.B.-.1.C.D.E.F.G.l.H.I.{.9.p.J.].K.L.M.N.O.P.    ",
"        Q.R.S.y.T.U.|.V.W.X.Y.Z.`.G. +.+I.++o.@+#+$+= = = %+    ",
"          &+*+=+-+R.g.;+>+,+'+)+!+~+{+]+^+.+I.{./+(+q._+= :+    ",
"          <+*+[+}+|+1+-+2+3+4+5+6+7+8+9+{+0+a+b+8.c+0.(+= d+    ",
"            e+f+g+h+*+=+i+j+k+l+m+n+o+7+p+q+r+s+^+t+8.c+].u+    ",
"            v+w+x+f+y+[+z+A+B+C+D+E+4+F+o+7+p+9+r+l.m.7.G+H+    ",
"              I+J+K+L+f+M+N+O+P+Q+R+S+T+4+F+U+7+V+F.G.a+W+X+Y+  ",
"              Z+x+`+J+ @.@+@@@#@$@%@&@*@=@T+m+'+-@Y.V+;@l.>@,@  ",
"                '@`+`+`+)@!@~@{@]@^@/@(@_@R+:@T+<@'+)+!+q+[@}@  ",
"                |@1@`+`+2@3@4@5@6@7@8@9@/@(@&@0@=@a@5+6+7+b@c@  ",
"                d@e@`+`+f@g@h@i@j@k@l@m@n@o@$@p@C+D+q@a@n+r@s@  ",
"                  t@u@`+v@w@x@y@z@A@B@k@C@D@8@9@E@p@C+D+F@G@H@  ",
"                  I@L+J@K@L@M@N@O@y@P@Q@R@S@C@]@^@/@T@U@V@W@X@  ",
"                  Y@Z@`@   #.#+#+#@###$#%#&#*#=#-#;#>#,#'#)#!#  ",
"                          ~#{#]#^#/#(#_#:#<#[#}#|#1#2#3#4#5#    ",
"                          6#7#8#9#0#a#b#5#                      ",
"                          c#d#e#                                ",
"                                                                ",
"                                                                "};
