/* XPM */
static char * flfactppal_xpm[] = {
"22 22 214 2",
"  	c None",
". 	c #AD1A1A",
"+ 	c #821515",
"@ 	c #EA5E22",
"# 	c #E16916",
"$ 	c #BC3636",
"% 	c #F77676",
"& 	c #F66868",
"* 	c #A12525",
"= 	c #E9721E",
"- 	c #FBBE05",
"; 	c #FFBD01",
"> 	c #ED7F09",
", 	c #970E0E",
"' 	c #D25757",
") 	c #FF8989",
"! 	c #FF7C7C",
"~ 	c #FF7272",
"{ 	c #FF6969",
"] 	c #C23A3A",
"^ 	c #4E0708",
"/ 	c #EF9917",
"( 	c #FEDD02",
"_ 	c #FFD200",
": 	c #FFBA00",
"< 	c #FFB100",
"[ 	c #FE9602",
"} 	c #B44A01",
"| 	c #A91A1A",
"1 	c #EA8787",
"2 	c #FF9C9C",
"3 	c #FF8484",
"4 	c #FF7878",
"5 	c #FF6D6D",
"6 	c #FF6868",
"7 	c #FF7171",
"8 	c #E65454",
"9 	c #61030A",
"0 	c #A63E1C",
"a 	c #FDD011",
"b 	c #FFFF00",
"c 	c #FFE000",
"d 	c #FFCA00",
"e 	c #FFB800",
"f 	c #FFA900",
"g 	c #FFAF00",
"h 	c #FFAC00",
"i 	c #D15600",
"j 	c #CC0F0F",
"k 	c #FF5B5B",
"l 	c #FF9393",
"m 	c #FF8B8B",
"n 	c #FF6E6E",
"o 	c #FB6464",
"p 	c #F6292E",
"q 	c #7C0005",
"r 	c #AF5811",
"s 	c #FFD600",
"t 	c #FFED00",
"u 	c #FFE200",
"v 	c #FFCC00",
"w 	c #FF9400",
"x 	c #E15C00",
"y 	c #C80000",
"z 	c #FF0000",
"A 	c #FF3131",
"B 	c #FF7777",
"C 	c #F55455",
"D 	c #E51117",
"E 	c #B40500",
"F 	c #436B20",
"G 	c #599422",
"H 	c #DB9701",
"I 	c #FFB500",
"J 	c #FFD000",
"K 	c #FFC000",
"L 	c #FFA600",
"M 	c #FF7F00",
"N 	c #FF6E00",
"O 	c #DB5100",
"P 	c #C50000",
"Q 	c #FF1313",
"R 	c #FE5858",
"S 	c #EF4647",
"T 	c #DC0004",
"U 	c #8D2305",
"V 	c #52A639",
"W 	c #74F353",
"X 	c #60D740",
"Y 	c #439D1C",
"Z 	c #A98D01",
"` 	c #FFA800",
" .	c #FFBF00",
"..	c #FFA700",
"+.	c #FF7400",
"@.	c #FF6800",
"#.	c #FF7200",
"$.	c #DA5100",
"%.	c #CA0000",
"&.	c #FC0303",
"*.	c #CD0302",
"=.	c #74471A",
"-.	c #64CF65",
";.	c #92FF6C",
">.	c #8CF053",
",.	c #78DC41",
"'.	c #5CCE36",
").	c #3CA621",
"!.	c #808A06",
"~.	c #F3A200",
"{.	c #FF7B00",
"].	c #FF6600",
"^.	c #FF6D00",
"/.	c #FF7700",
"(.	c #E15300",
"_.	c #980000",
":.	c #F50000",
"<.	c #F00000",
"[.	c #686B2F",
"}.	c #93F2B0",
"|.	c #BCFFA3",
"1.	c #9BFD68",
"2.	c #85EC51",
"3.	c #74DA41",
"4.	c #69CE34",
"5.	c #6AD536",
"6.	c #43B92E",
"7.	c #5F8211",
"8.	c #F87700",
"9.	c #FF6A00",
"0.	c #FF7300",
"a.	c #FF6B00",
"b.	c #B02D00",
"c.	c #6E0000",
"d.	c #DE0000",
"e.	c #E30401",
"f.	c #4A9E32",
"g.	c #9AF084",
"h.	c #B6FE99",
"i.	c #9CFF6C",
"j.	c #86ED52",
"k.	c #75DB42",
"l.	c #6DD034",
"m.	c #66CC32",
"n.	c #2AB737",
"o.	c #287E22",
"p.	c #EC7400",
"q.	c #FC5E00",
"r.	c #942000",
"s.	c #1B0000",
"t.	c #3A0000",
"u.	c #BA0000",
"v.	c #EB0401",
"w.	c #4F9122",
"x.	c #5AD32B",
"y.	c #7ADA4C",
"z.	c #93F664",
"A.	c #8CF257",
"B.	c #7EE143",
"C.	c #58C534",
"D.	c #1BA533",
"E.	c #009635",
"F.	c #307D22",
"G.	c #FC7701",
"H.	c #EB4B00",
"I.	c #621000",
"J.	c #730300",
"K.	c #4A8E22",
"L.	c #64D634",
"M.	c #62C92D",
"N.	c #6BD137",
"O.	c #7FE349",
"P.	c #51C83F",
"Q.	c #0C9B32",
"R.	c #009533",
"S.	c #009E36",
"T.	c #2E7025",
"U.	c #B43401",
"V.	c #3E0600",
"W.	c #329D23",
"X.	c #70D837",
"Y.	c #66CC33",
"Z.	c #68CC31",
"`.	c #5CC732",
" +	c #089B33",
".+	c #009933",
"++	c #00A736",
"@+	c #07622A",
"#+	c #0D0004",
"$+	c #177C14",
"%+	c #5EC92E",
"&+	c #6ED536",
"*+	c #6BCE33",
"=+	c #5BC632",
"-+	c #009833",
";+	c #00A034",
">+	c #009336",
",+	c #003A23",
"'+	c #105109",
")+	c #4BB328",
"!+	c #71D935",
"~+	c #60CB34",
"{+	c #099F33",
"]+	c #00A135",
"^+	c #007E32",
"/+	c #002C1D",
"(+	c #022806",
"_+	c #378C23",
":+	c #0CA336",
"<+	c #00612B",
"[+	c #001311",
"}+	c #165A20",
"|+	c #074B23",
"1+	c #000609",
"                                            ",
"                                            ",
"          . +                 @ #           ",
"        $ % & *             = - ; >         ",
"    , ' ) ! ~ { ] ^       / ( _ : < [ }     ",
"  | 1 2 3 4 5 6 7 8 9 0 a b c d e f g h i   ",
"  j k l m 4 n n o p q r s t u v : h f w x   ",
"  y z A 4 3 B C D E F G H I _ J K L M N O   ",
"  P z z Q R S T U V W X Y Z `  ...+.@.#.$.  ",
"  %.z z z &.*.=.-.;.>.,.'.).!.~.{.].^./.(.  ",
"  _.:.z z <.[.}.|.1.2.3.4.5.6.7.8.9.0.a.b.  ",
"    c.d.z e.f.g.h.i.j.k.l.m.n.o.p.+.q.r.s.  ",
"      t.u.v.w.x.y.z.A.B.C.D.E.F.G.H.I.      ",
"          J.K.L.M.N.O.P.Q.R.S.T.U.V.        ",
"            W.X.Y.Z.`. +R..+++@+#+          ",
"            $+%+&+*+=+ +-+;+>+,+            ",
"              '+)+!+~+{+]+^+/+              ",
"                (+_+'.:+<+[+                ",
"                    }+|+1+                  ",
"                                            ",
"                                            ",
"                                            "};
