/* XPM */
static char * flservppal_xpm[] = {
"32 32 257 2",
"  	c None",
". 	c #84D6E3",
"+ 	c #5EC2B8",
"@ 	c #CECDCD",
"# 	c #7DC1C4",
"$ 	c #64C9C1",
"% 	c #7A9BA6",
"& 	c #5EB0AE",
"* 	c #4DB1A9",
"= 	c #A5A5A5",
"- 	c #84CAD1",
"; 	c #A5D3E2",
"> 	c #ADB2B5",
", 	c #F4F4F4",
"' 	c #929292",
") 	c #E5E5E5",
"! 	c #9E9E9E",
"~ 	c #63B5B2",
"{ 	c #38868C",
"] 	c #4AACA6",
"^ 	c #54ACA8",
"/ 	c #5CC1B7",
"( 	c #7BCDD2",
"_ 	c #91D4E3",
": 	c #9CA9B2",
"< 	c #56BAB0",
"[ 	c #9CD4E3",
"} 	c #323232",
"| 	c #C6C6C5",
"1 	c #C4E1F2",
"2 	c #A2A2A2",
"3 	c #B8B8B8",
"4 	c #E0E0E0",
"5 	c #DEDEDE",
"6 	c #6ACFCB",
"7 	c #BEBDBD",
"8 	c #C9C8C8",
"9 	c #757575",
"0 	c #F2F2F2",
"a 	c #728A95",
"b 	c #597E88",
"c 	c #A9AFB4",
"d 	c #D2D2D2",
"e 	c #7D7D7D",
"f 	c #DCDCDC",
"g 	c #989EA2",
"h 	c #96D1DE",
"i 	c #5AAEAB",
"j 	c #B3D9EB",
"k 	c #ADADAD",
"l 	c #A4ACB4",
"m 	c #52B8AD",
"n 	c #3E9A9B",
"o 	c #9EA5AB",
"p 	c #F1F0F0",
"q 	c #8ACED9",
"r 	c #EAE9E9",
"s 	c #8E8E8E",
"t 	c #56BEB2",
"u 	c #5ABEB4",
"v 	c #B5B5B5",
"w 	c #42A09F",
"x 	c #71CBCD",
"y 	c #FAFAFA",
"z 	c #2B2B2B",
"A 	c #F8F8F8",
"B 	c #3A3A3A",
"C 	c #3C9598",
"D 	c #96CBD5",
"E 	c #6D9BA1",
"F 	c #AAAAAA",
"G 	c #B3DDF2",
"H 	c #696969",
"I 	c #4CAEA8",
"J 	c #D4E9F9",
"K 	c #409D9D",
"L 	c #88D2DD",
"M 	c #BEDDEE",
"N 	c #62C6BD",
"O 	c #608B93",
"P 	c #F6F6F6",
"Q 	c #81C2C6",
"R 	c #B6B6B6",
"S 	c #6BB8B6",
"T 	c #52B6AC",
"U 	c #68CDC6",
"V 	c #4CA7A2",
"W 	c #CAE5F7",
"X 	c #969696",
"Y 	c #8A8A8A",
"Z 	c #ECECEC",
"` 	c #79A9AF",
" .	c #7ED2DA",
"..	c #50B1AA",
"+.	c #62BAB6",
"@.	c #6BD0CC",
"#.	c #AAD3E2",
"$.	c #C0C0C0",
"%.	c #D8D8D8",
"&.	c #7DACB2",
"*.	c #69959C",
"=.	c #727272",
"-.	c #48AAA4",
";.	c #398C92",
">.	c #7CC9CE",
",.	c #4BAFA7",
"'.	c #4EA9A5",
").	c #B0B0B0",
"!.	c #76C3C5",
"~.	c #DBEDFA",
"{.	c #D4D4D4",
"].	c #6EBEBD",
"^.	c #607380",
"/.	c #6FB9B9",
"(.	c #51ABA7",
"_.	c #8DA2AD",
":.	c #A1D1DE",
"<.	c #B3B3B3",
"[.	c #A1A9AF",
"}.	c #73BFBF",
"|.	c #57BCB1",
"1.	c #E3E3E3",
"2.	c #CFE6F5",
"3.	c #5E727E",
"4.	c #6E6E6E",
"5.	c #92CAD4",
"6.	c #9A9A9A",
"7.	c #50B7AD",
"8.	c #8F969B",
"9.	c #83C6CB",
"0.	c #E4F1FC",
"a.	c #76A5AC",
"b.	c #45A4A1",
"c.	c #EFEFEF",
"d.	c #BBBBBB",
"e.	c #50B4AC",
"f.	c #4FB4AB",
"g.	c #869FAB",
"h.	c #7DC5C9",
"i.	c #E1EFFA",
"j.	c #D3E7F6",
"k.	c #54B7AE",
"l.	c #93999F",
"m.	c #51B4AB",
"n.	c #CCCBCB",
"o.	c #49A9A4",
"p.	c #9BCFDB",
"q.	c #8EC9D1",
"r.	c #676767",
"s.	c #60C5BB",
"t.	c #56B2AD",
"u.	c #72A1A7",
"v.	c #91979D",
"w.	c #45A6A1",
"x.	c #FFFFFF",
"y.	c #FCFCFC",
"z.	c #FDFDFD",
"A.	c #D7D7D7",
"B.	c #63C8C0",
"C.	c #C3C3C3",
"D.	c #FEFEFE",
"E.	c #47A7A2",
"F.	c #47A8A2",
"G.	c #F1F1F1",
"H.	c #DBDBDB",
"I.	c #46A6A1",
"J.	c #848484",
"K.	c #F0F0EF",
"L.	c #46A5A1",
"M.	c #66BBB8",
"N.	c #55B6B0",
"O.	c #72C8C9",
"P.	c #5BB9B3",
"Q.	c #C9E3F3",
"R.	c #58828B",
"S.	c #67989C",
"T.	c #6DC1C0",
"U.	c #8BCCD4",
"V.	c #C5C4C4",
"W.	c #647C88",
"X.	c #D8D6D6",
"Y.	c #B0AFAF",
"Z.	c #9CD8EA",
"`.	c #D4D3D3",
" +	c #D0CFD0",
".+	c #F0EFEF",
"++	c #99D7E9",
"@+	c #5FC0BB",
"#+	c #94CDD8",
"$+	c #ACD6E7",
"%+	c #D1D0D0",
"&+	c #6CC0BF",
"*+	c #F5F5F5",
"=+	c #F6F6F5",
"-+	c #B1B0B0",
";+	c #F2F2F1",
">+	c #66C5C3",
",+	c #56B9B3",
"'+	c #56BFB4",
")+	c #707A82",
"!+	c #C1C1C1",
"~+	c #89C8CF",
"{+	c #3F9291",
"]+	c #73D0D5",
"^+	c #429795",
"/+	c #459996",
"(+	c #68B7B5",
"_+	c #66CBC3",
":+	c #68CCC5",
"<+	c #787878",
"[+	c #F3F3F3",
"}+	c #687F8C",
"|+	c #5DB4B0",
"1+	c #5DB8B4",
"2+	c #FDFCFD",
"3+	c #62C0BD",
"4+	c #66C1BF",
"5+	c #68BBB8",
"6+	c #43A19F",
"7+	c #44A29F",
"8+	c #B8DBEB",
"9+	c #BADBEC",
"0+	c #BADDEF",
"a+	c #8DCDD6",
"b+	c #585858",
"c+	c #94A5B0",
"d+	c #5E8991",
"e+	c #9AA2A8",
"f+	c #81B1B7",
"g+	c #CBE3F4",
"h+	c #B9B9B9",
"i+	c #6C8490",
"j+	c #6B8C96",
"k+	c #ABD6E7",
"l+	c #469E98",
"m+	c #EDEDED",
"n+	c #788F99",
"o+	c #DBDAD9",
"p+	c #A6D7E8",
"q+	c #439B98",
"r+	c #A5D9ED",
"s+	c #A9D9EF",
"t+	c #639097",
"u+	c #A9D7EA",
"v+	c #66979B",
"w+	c #859095",
"x+	c #BDDEF0",
"y+	c #69C1C0",
"z+	c #6DD2D0",
"A+	c #69C5C4",
"B+	c #6DC7C7",
"C+	c #8BC8D0",
"D+	c #BFE1F5",
"E+	c #70C1C2",
"F+	c #71C4C4",
"G+	c #77C0C2",
"H+	c #B2B1B1",
"                                                                ",
"                                                                ",
"                                                                ",
"    D.0 c.K.p G.0 [+, , , *+*+r m+, 0 G.G.p K.K..+c.m+m+,       ",
"    A w+*.% % g._.c+: l c > > > > > c l [.: c+_.g.% % j+c z.    ",
"    P n+]+. _ ++r+G D+W J ~.i.i.0.i.~.J W D+G s+Z._ . F+[.z.    ",
"    P n+B+ .L _ [ p+j 0+1 Q.2.j.j.2.g+1 x+j u+[ _ L  .&+[.z.    ",
"    =+a >+x ( q q h ; k+j 8+M M M M 9+j $+; [ #+q ( ( +.o 2+    ",
"    , a @+A+O.>.- U.#+p.:.; #.#.#.#.; :.p.#+a+- >.O.B+|+o y.    ",
"    *+i+,+@+4+T.!.h.9.~+q.5.D D D D 5.q.C+9.h.!.E+y+3+^ e+y.    ",
"    , }+* N.P.+.M.].}.}.# # Q Q Q Q Q # G+}.].5++.1+,+V e+y.    ",
"    , W.w.I ..t.|+|+~ (+S S /././././.S (+~ ~ |+t...I q+g y.    ",
"    *+^.;.n w L.V '.^ ^ i i & & & & i i i ^ (.V E.6+K { l.y.    ",
"    , ^.;.C n n w b.E.-.] I I * * * I ] ] F.w.7+K n C { v.y.    ",
"    [+^.C n w 7+I.-.,.* f.f.7.m m 7.7.f.* ,.] F.L.w K { l.y.    ",
"    [+^.C 6+b.F.] * e.m < |.t t '+t t < m m.* ,.-.I.7+;.v.y.    ",
"    0 ^.K L.o.] * T < |.'+/ + + + / / / u < T e.,.-.E.{+v.y.    ",
"    ;+3.6+o.I ..T < u / + N N B.B.B.N s.+ u |.k.m.I ] ^+8.y.    ",
"    G.3.L.I ..T < u + s.B._+_+:+U :+_+$ N + / |.k.m.* /+8.y.    ",
"    G.3.E.* m.< u / s.$ _+U 6 z+z+@.6 U $ N + u |.k.e.l+8.y.    ",
"    G.)+R.d+t+*.E u.a.` &.f+` v+S.` &.` a.u.E E *.t+O b g y.    ",
"    y.8 h+7 !+V.n.@  +`.X.o+@ Y.-+@ %+n.8 | | V.7 -+k H+`.D.    ",
"    c.3 2 9 9 9 e <+=.=.=.9 <+<+9 9 =.4.4.H H H r.b+r.k 7 P     ",
"  z.!+! H B B B B B } } } } } } } } } } z z z z z z z J.F %+D.  ",
"  ) F 2 s Y ' ' 6.! = = F k F = = 2 ! ! ! 6.X ' s J.e ' Y.v Z   ",
"y 7 = F ).h+C.@ A.4 r [+y z.z.y , m+r 1.4 H.%.{.n.C.d.<.H+).| y ",
"5 $.7 $.!+V.8 @ d A.H.4 1.) 4 f %.%.%.{.d @ n.8 V.$.h+v v v v {.",
"v v R 3 h+h+h+3 3 3 3 R v <.= 2 2 = H+2 ! 6.X X X ' ' ' s s ' ! ",
") 4 4 4 4 4 4 4 4 4 5 A.n.$.h+3 3 d.C.@ A.f 5 5 5 5 5 5 f f f ) ",
"                        z.y y A A y y z.                        ",
"                                                                ",
"                                                                "};
