/* XPM */
static char * flprodppal_xpm[] = {
"32 32 348 2",
"  	c None",
". 	c #000000",
"+ 	c #151515",
"@ 	c #383838",
"# 	c #353535",
"$ 	c #1A1A1A",
"% 	c #4F4F4F",
"& 	c #C6C6C6",
"* 	c #D4D4D4",
"= 	c #6A6A6A",
"- 	c #B9B9B9",
"; 	c #BABABA",
"> 	c #A0A0A0",
", 	c #6B6B6B",
"' 	c #1B1B1B",
") 	c #515151",
"! 	c #363636",
"~ 	c #3E3E3E",
"{ 	c #9F9F9F",
"] 	c #C7C7C7",
"^ 	c #6D6D6D",
"/ 	c #BEBEBE",
"( 	c #D7D7D7",
"_ 	c #D8D8D8",
": 	c #6C6C6C",
"< 	c #D9D9D9",
"[ 	c #DADADA",
"} 	c #DBDBDB",
"| 	c #DCDCDC",
"1 	c #C1C1C1",
"2 	c #454545",
"3 	c #848484",
"4 	c #929292",
"5 	c #4C706B",
"6 	c #668775",
"7 	c #4C6F5C",
"8 	c #2D3230",
"9 	c #939393",
"0 	c #D2D2D2",
"a 	c #272727",
"b 	c #747474",
"c 	c #DDDDDD",
"d 	c #DEDEDE",
"e 	c #999999",
"f 	c #425C4C",
"g 	c #A5D1B6",
"h 	c #3D5F4B",
"i 	c #1C1C1C",
"j 	c #D6D6D6",
"k 	c #424F5B",
"l 	c #B7D4D2",
"m 	c #E6F4EC",
"n 	c #E1F3E9",
"o 	c #345F49",
"p 	c #CFCFCF",
"q 	c #B3B3B3",
"r 	c #646464",
"s 	c #C5C5C5",
"t 	c #DFDFDF",
"u 	c #E0E0E0",
"v 	c #545454",
"w 	c #5E8B79",
"x 	c #E5F4EB",
"y 	c #E7F5ED",
"z 	c #D4EDDE",
"A 	c #5A816B",
"B 	c #516C5D",
"C 	c #72A09B",
"D 	c #DAF0E3",
"E 	c #325D48",
"F 	c #E1E1E1",
"G 	c #E2E2E2",
"H 	c #0E0E0E",
"I 	c #1C4135",
"J 	c #65C0A3",
"K 	c #F6FBF8",
"L 	c #D2EDDD",
"M 	c #8EC5AA",
"N 	c #416B58",
"O 	c #6E6E6E",
"P 	c #5E7C6F",
"Q 	c #30654E",
"R 	c #747A78",
"S 	c #E3E3E3",
"T 	c #E4E4E4",
"U 	c #255546",
"V 	c #50B796",
"W 	c #BDE4D7",
"X 	c #EAF6EF",
"Y 	c #D9F0E3",
"Z 	c #CAE9D8",
"` 	c #C2E6D2",
" .	c #B4E0C8",
"..	c #7CBD9E",
"+.	c #9CD6B8",
"@.	c #78C89F",
"#.	c #397A5E",
"$.	c #A9A9A9",
"%.	c #E5E5E5",
"&.	c #484848",
"*.	c #07100D",
"=.	c #55B093",
"-.	c #EBF6F1",
";.	c #EBF6F0",
">.	c #B3DFD2",
",.	c #95D2C3",
"'.	c #98D4C4",
").	c #C3E6DB",
"!.	c #E1F2E9",
"~.	c #BEE5CF",
"{.	c #B2E0C7",
"].	c #AADDC1",
"^.	c #86CEA8",
"/.	c #7AC9A1",
"(.	c #62B992",
"_.	c #19392E",
":.	c #E6E6E6",
"<.	c #E7E7E7",
"[.	c #181818",
"}.	c #1A3A32",
"|.	c #7EA58E",
"1.	c #79A28A",
"2.	c #C8DFD4",
"3.	c #E8F5EE",
"4.	c #DFF1E7",
"5.	c #49B297",
"6.	c #25A484",
"7.	c #2CA687",
"8.	c #32A98A",
"9.	c #39AC8C",
"0.	c #63BEA4",
"a.	c #D9EFE6",
"b.	c #B0DFC5",
"c.	c #8BD0AB",
"d.	c #79C9A1",
"e.	c #71C29B",
"f.	c #165E46",
"g.	c #797979",
"h.	c #E8E8E8",
"i.	c #E9E9E9",
"j.	c #A5A5A5",
"k.	c #409686",
"l.	c #EEF8F2",
"m.	c #76B29D",
"n.	c #375F56",
"o.	c #717171",
"p.	c #888888",
"q.	c #535A58",
"r.	c #286151",
"s.	c #3BA486",
"t.	c #5DBB9F",
"u.	c #DDF1E8",
"v.	c #79C8A1",
"w.	c #78C8A1",
"x.	c #4DA883",
"y.	c #3A403E",
"z.	c #CECECE",
"A.	c #EAEAEA",
"B.	c #002E25",
"C.	c #50AF9D",
"D.	c #F3FAF6",
"E.	c #E1F3E8",
"F.	c #325E49",
"G.	c #B6B6B6",
"H.	c #B7B7B7",
"I.	c #ACACAC",
"J.	c #465A54",
"K.	c #42A788",
"L.	c #99D5C2",
"M.	c #99D5B8",
"N.	c #76C7A1",
"O.	c #69BF99",
"P.	c #3B564C",
"Q.	c #EBEBEB",
"R.	c #ECECEC",
"S.	c #00352B",
"T.	c #008F71",
"U.	c #2FA68C",
"V.	c #9FD6C9",
"W.	c #EFF8F3",
"X.	c #305C47",
"Y.	c #D0D0D0",
"Z.	c #AEAEAE",
"`.	c #2D4F45",
" +	c #62BEA1",
".+	c #BAE3D0",
"++	c #75C6A0",
"@+	c #73C6A0",
"#+	c #419876",
"$+	c #2B5648",
"%+	c #878E8C",
"&+	c #EEEEEE",
"*+	c #002F25",
"=+	c #00886A",
"-+	c #009272",
";+	c #129A7B",
">+	c #D1ECDD",
",+	c #54876F",
"'+	c #787878",
")+	c #59A88F",
"!+	c #B9E2CF",
"~+	c #72C5A0",
"{+	c #71C5A0",
"]+	c #6AC19D",
"^+	c #26785B",
"/+	c #EFEFEF",
"(+	c #013F31",
"_+	c #1B9F80",
":+	c #B5E0D5",
"<+	c #D4EDDF",
"[+	c #C9E9D8",
"}+	c #A7D9C0",
"|+	c #40584D",
"1+	c #7DAC9C",
"2+	c #8DD0B1",
"3+	c #70C4A0",
"4+	c #6FC4A0",
"5+	c #6EC39F",
"6+	c #1A6149",
"7+	c #F0F0F0",
"8+	c #CDCDCD",
"9+	c #279B7F",
"0+	c #C1E5D9",
"a+	c #BAE3CC",
"b+	c #87C2A6",
"c+	c #406A58",
"d+	c #949494",
"e+	c #517A6B",
"f+	c #B4E0CC",
"g+	c #87CDAB",
"h+	c #8DCFAB",
"i+	c #83CBA5",
"j+	c #184733",
"k+	c #C3C3C3",
"l+	c #9D9D9D",
"m+	c #003026",
"n+	c #DBEFE5",
"o+	c #A1D9BC",
"p+	c #71C49C",
"q+	c #50A07D",
"r+	c #336F56",
"s+	c #35785D",
"t+	c #4C9E7D",
"u+	c #9AD5BB",
"v+	c #6EC39E",
"w+	c #60BB87",
"x+	c #64BE88",
"y+	c #5DB27F",
"z+	c #424744",
"A+	c #CCCCCC",
"B+	c #007F63",
"C+	c #5FBAA6",
"D+	c #E0F2E8",
"E+	c #CCEADA",
"F+	c #D1ECE0",
"G+	c #D5EEE0",
"H+	c #98D5B5",
"I+	c #75C7A0",
"J+	c #74C6A0",
"K+	c #70C5A0",
"L+	c #60BB91",
"M+	c #3F7456",
"N+	c #628F74",
"O+	c #4F6B5A",
"P+	c #B4B4B4",
"Q+	c #00100C",
"R+	c #00765C",
"S+	c #4FB496",
"T+	c #31A678",
"U+	c #66C09C",
"V+	c #98D5BD",
"W+	c #86CEAC",
"X+	c #72C6A0",
"Y+	c #93D3B7",
"Z+	c #6CC39F",
"`+	c #66BF9B",
" @	c #1B5643",
".@	c #C0C0C0",
"+@	c #425D57",
"@@	c #22976D",
"#@	c #226A4E",
"$@	c #63B595",
"%@	c #6AC29F",
"&@	c #83CCB3",
"*@	c #B0DFC9",
"=@	c #99D2BC",
"-@	c #7AC6A8",
";@	c #76C5A8",
">@	c #D8EFE6",
",@	c #74C6A5",
"'@	c #6CC29F",
")@	c #3D9573",
"!@	c #D3D3D3",
"~@	c #909090",
"{@	c #3E4F4A",
"]@	c #6E7673",
"^@	c #666C69",
"/@	c #427763",
"(@	c #5ABB9C",
"_@	c #CAE9DB",
":@	c #66BF9A",
"<@	c #2AA374",
"[@	c #2BA475",
"}@	c #4BB491",
"|@	c #70C4A9",
"1@	c #B2E0C9",
"2@	c #85CEA2",
"3@	c #3E5949",
"4@	c #EDEDED",
"5@	c #C2C2C2",
"6@	c #0C0C0C",
"7@	c #303030",
"8@	c #606060",
"9@	c #9C9C9C",
"0@	c #445D55",
"a@	c #52B794",
"b@	c #8ACEA5",
"c@	c #B1DEC3",
"d@	c #5EAF8A",
"e@	c #2E4D41",
"f@	c #526760",
"g@	c #3C8970",
"h@	c #56BA97",
"i@	c #87CFA3",
"j@	c #578067",
"k@	c #050C0A",
"l@	c #5DBB8C",
"m@	c #2B533B",
"n@	c #898989",
"o@	c #ADADAD",
"p@	c #39634F",
"q@	c #536058",
"r@	c #A8A8A8",
"s@	c #09110C",
"t@	c #1F3B2A",
"u@	c #366749",
"v@	c #090909",
"w@	c #262626",
"x@	c #3A3A3A",
"y@	c #A4A4A4",
"z@	c #C8C8C8",
"A@	c #B5B5B5",
"B@	c #0B0B0B",
"C@	c #0A0A0A",
"D@	c #050505",
"E@	c #020202",
"F@	c #040404",
"G@	c #414141",
"                                                                ",
"                                                                ",
"                                .                               ",
"                              . . .         . .                 ",
"                      + @ # $ . . . .     . . .                 ",
"                    % & * * = - * ; > > , ' ) ! ~ . . .         ",
"                  @ * { ] * = ^ / ( ( _ _ : < [ [ } | 1 2 .     ",
"                . 3 4 5 6 7 8 9 0 < < [ [ a b | c c d d e .     ",
"          f g h i j k l m n o p [ } } | q r s d d t u u v .     ",
"      . w x y z A B C m n D E s | c p d d 1 | u u F G [ H       ",
"      I J K y y y y m n D L M N O P Q R u F F G G S T 4 .       ",
"      U V W X y y m n Y L Z `  ...+.@.#.$.S S T T %.S &..       ",
"      *.=.-.y y ;.>.,.'.).!.~.{.].^./.(._.%.%.:.:.<.< [.        ",
"  }.|.1.2.3.y 4.5.6.7.8.9.0.a.b.c.d.e.f.g.T <.h.h.i.j..         ",
"  k.l.y y y m m.n.o.p.q.r.s.t.u.v.w.x.y.; z.i.A.A.S v .         ",
"B.C.D.3.y m E.F.G.G.H.H.I.J.K.L.M.N.O.P./ G Q.R.R.0 [.          ",
"S.T.U.V.W.E.Y X.H.& p Y.s Z.`. +.+++@+#+$+%+d &+&+> .           ",
"*+=+-+;+D.Y >+,+e h.h.i.A.d '+)+!+@+~+{+]+^+q /+d v .           ",
"    (+_+:+<+[+}+|+} A.Q.R.R.> 1+2+{+3+4+5+6+_ 7+8+[.            ",
"    . 9+0+[+` a+b+c+9 d t d+e+f+{+3+g+h+i+j+k+A.l+.             ",
"    m+n+[+` a+{.o+p+q+r+s+t+u+{+4+v+w+x+y+z+A+< v .             ",
"  . B+C+D+E+F+G+H+N.I+J+@+~+K+4+5+L+M+N+O+P+0 ] [.              ",
"  Q+R+-+S+T+U+V+u.W+J+X+{+3+Y+5+Z+`+ @P+.@.@p l+.               ",
"  . +@=+@@#@$@%@&@*@~+{+=@-@;@>@,@'@)@: .@A+!@v .               ",
"  . ~@{@]@P+^@/@(@_@{+:@<@[@}@|@1@2@3@& 7+4@5@[.                ",
"    6@7@8@'+9@0@a@b@c@d@e@f@g@h@i@j@3 .@A.} l+.                 ",
"          . . k@l@x+x+m@n@o@= p@q@r@.@A+4@] v .                 ",
"                s@t@u@. . v@w@x@8@b y@z@] A@[..                 ",
"                              B@C@D@E@[.7@6@F@                  ",
"                                        G@                      ",
"                                                                ",
"                                                                "};
