/* XPM */
static char * flconinfo_xpm[] = {
"22 22 257 2",
"  	c None",
". 	c #F59800",
"+ 	c #DADADA",
"@ 	c #ECECED",
"# 	c #FCA000",
"$ 	c #FC9A00",
"% 	c #D7D7D6",
"& 	c #F09700",
"* 	c #F9CE85",
"= 	c #FABE58",
"- 	c #BABABB",
"; 	c #E2E2E3",
"> 	c #FD9E00",
", 	c #EB9300",
"' 	c #E99100",
") 	c #F5BD60",
"! 	c #FABC51",
"~ 	c #F99300",
"{ 	c #EF9700",
"] 	c #ED9300",
"^ 	c #EB9100",
"/ 	c #FEFEFE",
"( 	c #EE9500",
"_ 	c #F49A00",
": 	c #E7E7E7",
"< 	c #F5F5F5",
"[ 	c #F19800",
"} 	c #F99D00",
"| 	c #EE9400",
"1 	c #F39900",
"2 	c #FA9F00",
"3 	c #F0F0F0",
"4 	c #F29800",
"5 	c #ED9400",
"6 	c #E68E00",
"7 	c #FBFBFB",
"8 	c #F89D00",
"9 	c #F99E00",
"0 	c #D1D1D1",
"a 	c #F69B00",
"b 	c #DCDCDC",
"c 	c #FAFAFA",
"d 	c #FCFCFC",
"e 	c #F79C00",
"f 	c #E78F00",
"g 	c #F79D00",
"h 	c #EF9300",
"i 	c #F3F3F3",
"j 	c #F69C00",
"k 	c #F7F7F7",
"l 	c #FB9F00",
"m 	c #ED9500",
"n 	c #F2F2F2",
"o 	c #F59A00",
"p 	c #DF9940",
"q 	c #E0CA97",
"r 	c #F4A019",
"s 	c #F3EAC9",
"t 	c #F89A00",
"u 	c #F0F0F1",
"v 	c #EAEAEA",
"w 	c #D2C8B2",
"x 	c #FFEBB9",
"y 	c #DDB788",
"z 	c #F5B347",
"A 	c #D5D5D5",
"B 	c #CAC6B1",
"C 	c #ECEBE4",
"D 	c #D1CCC0",
"E 	c #E29F22",
"F 	c #E5A955",
"G 	c #F1F1F2",
"H 	c #F4A221",
"I 	c #F9C368",
"J 	c #C7C7C7",
"K 	c #F7E6C7",
"L 	c #F59D0A",
"M 	c #F9F9F9",
"N 	c #D2A355",
"O 	c #E9E9E9",
"P 	c #EFC088",
"Q 	c #F7C166",
"R 	c #F6C87D",
"S 	c #FCD581",
"T 	c #EB960E",
"U 	c #FDE4A1",
"V 	c #F7F6F5",
"W 	c #F3B040",
"X 	c #F5B240",
"Y 	c #ED9402",
"Z 	c #FBD89B",
"` 	c #F6C873",
" .	c #EFE4CA",
"..	c #FCB842",
"+.	c #C7C5BF",
"@.	c #FBE4BE",
"#.	c #CECECC",
"$.	c #FEBC48",
"%.	c #FCC25E",
"&.	c #FECB72",
"*.	c #F2BB70",
"=.	c #EFB441",
"-.	c #DFC89C",
";.	c #DB933A",
">.	c #ABACAD",
",.	c #E5E6E7",
"'.	c #EDEDEE",
").	c #F8F5F2",
"!.	c #F29F15",
"~.	c #E6E3DF",
"{.	c #F6BC5E",
"].	c #ECF4FC",
"^.	c #CCCCCC",
"/.	c #CFCDCC",
"(.	c #B4B4B4",
"_.	c #FDD691",
":.	c #EC9304",
"<.	c #F8CF88",
"[.	c #E0E0E1",
"}.	c #F6EBD7",
"|.	c #F2C474",
"1.	c #ED9612",
"2.	c #EF9500",
"3.	c #FDFDFD",
"4.	c #F09D08",
"5.	c #FDFAF5",
"6.	c #E58E00",
"7.	c #F99C00",
"8.	c #F0B655",
"9.	c #FA9E00",
"0.	c #F89500",
"a.	c #F39000",
"b.	c #ABAAAA",
"c.	c #E9E4DB",
"d.	c #F3B957",
"e.	c #FEE3B0",
"f.	c #F3F8FE",
"g.	c #F69500",
"h.	c #F0AA33",
"i.	c #FDF0C8",
"j.	c #C9CCD1",
"k.	c #FCFFFF",
"l.	c #F3F4F4",
"m.	c #FFDA87",
"n.	c #FBA310",
"o.	c #F28C00",
"p.	c #FAD08A",
"q.	c #F5F6F6",
"r.	c #C6AA75",
"s.	c #FFC344",
"t.	c #EDAD46",
"u.	c #F3B246",
"v.	c #F8B74A",
"w.	c #F7B646",
"x.	c #F0B44F",
"y.	c #F4F1E8",
"z.	c #C2B7A0",
"A.	c #F7E5A9",
"B.	c #F19606",
"C.	c #FFE4A8",
"D.	c #F8FBFF",
"E.	c #FBA000",
"F.	c #E2C381",
"G.	c #DDD5C5",
"H.	c #EA8904",
"I.	c #F6D9AB",
"J.	c #A5A6A6",
"K.	c #F8B33E",
"L.	c #FACB7C",
"M.	c #F79900",
"N.	c #D1C6A3",
"O.	c #D7C0A0",
"P.	c #D5C7A2",
"Q.	c #F8C872",
"R.	c #FFCD70",
"S.	c #F0B552",
"T.	c #F8C570",
"U.	c #EFB24D",
"V.	c #EF9E21",
"W.	c #D5C79D",
"X.	c #F3A529",
"Y.	c #D29C3B",
"Z.	c #E7B966",
"`.	c #EFBF67",
" +	c #C3BDB1",
".+	c #E7DFD0",
"++	c #E3B379",
"@+	c #FAEECA",
"#+	c #FFF2E0",
"$+	c #FFECCE",
"%+	c #EEEFEF",
"&+	c #DCDBDB",
"*+	c #E6EBF2",
"=+	c #E99200",
"-+	c #E5E8EC",
";+	c #F2BB5A",
">+	c #FDCA6D",
",+	c #F3BA5C",
"'+	c #C2C0BE",
")+	c #EEF5F7",
"!+	c #EFA128",
"~+	c #F7A51C",
"{+	c #E3D9B9",
"]+	c #CDCDCE",
"^+	c #FEC76A",
"/+	c #B0B0B0",
"(+	c #F79F00",
"_+	c #F6D398",
":+	c #FBD995",
"<+	c #F4D39D",
"[+	c #EF9202",
"}+	c #FCE1B4",
"|+	c #F9B037",
"1+	c #EED08E",
"2+	c #FBB945",
"3+	c #FEBA44",
"4+	c #F4DD9F",
"5+	c #BCBCBC",
"6+	c #F5B852",
"7+	c #C4C6CA",
"8+	c #F2C170",
"9+	c #F7ECDB",
"0+	c #EA9215",
"a+	c #C9C8C7",
"b+	c #EF9400",
"c+	c #FDFDFC",
"d+	c #EDDCA4",
"e+	c #DCDEE3",
"f+	c #FFA100",
"g+	c #FFEDBC",
"h+	c #C8C5B8",
"i+	c #FEFAF2",
"j+	c #F19400",
"k+	c #FDBC4C",
"l+	c #ADACAD",
"m+	c #F09A00",
"n+	c #FD9C00",
"o+	c #FFEBC7",
"p+	c #DFB062",
"q+	c #F6F6F6",
"r+	c #F4F4F5",
"s+	c #F0AF41",
"t+	c #F3B756",
"u+	c #F7B13C",
"v+	c #F6B03F",
"w+	c #F4D5A0",
"x+	c #F6A21B",
"y+	c #FB9700",
"z+	c #EC9400",
"A+	c #F1F2F2",
"B+	c #F09200",
"C+	c #F2A422",
"D+	c #F8F8F8",
"E+	c #EDE2D1",
"F+	c #FA9100",
"G+	c #A9A9A9",
"H+	c #FFFFFF",
"H+H+H+H+H+H+H+H+i+@+y.H+n 3 H+H+H+H+H+H+H+H+",
"H+H+H+H+H+H+H+9+o+x {+e+v 3 % H+H+H+H+H+H+H+",
"H+H+H+H+H+5.K e.}+I._+}.k.7 0 H+H+H+H+H+H+H+",
"H+H+H+H+G.:+_.<+w+Z p.|.C D.G ^.H+H+H+H+H+H+",
"H+H+.+F.`.Q.R * <.* L.Q ;+ .*+&+H+H+H+H+H+H+",
"V -.=.w.8.) ^+T.&.8+I ,+2+s+p+r.~.H+H+H+H+H+",
"s ` h.W 3+x.= {.) %.d.k+t...K.s.N c+H+H+H+H+",
"D g+6+u+u.$.U.! S.! v.X |+!+x+Y 2 Z.H+H+H+H+",
"r+w C.v+X.C+~+!.n.T L :.t j+h ( [ m+w H+H+H+",
"< ; N.R.0.h & b+| l | # 6 8 _ 8 { ( 4.E+H+H+",
"d A+A q H n+, j ' 8 _ & 2 ' e f 9 5 a E c.H+",
"H+k u h+>+[+7.4 l 6 e ' l [ | 1 , 2 { (+Y.).",
"H+/ D+% d+6+g.( _ o m 9.6 # [ E.2.5 & B+f+O.",
"H+H+/ < +.4+z . ( _ 1 4 } , j ' g 1 o.F @.a+",
"H+H+H+7 '. +U r > f o =+} . 5 g ^ ~ ++H+f.- ",
"H+H+H+H+i ,.P.= a.} m 9 6.# 4 $ H.y H+]+G+: ",
"H+H+H+H+7 n #.1+V.$ 1 a 1 ] ~ p $+H+l+5++ '.",
"H+H+H+H+H+c %+B m.1.M.z+y+0+*.)+j.b.0 : i 3.",
"H+H+H+H+H+H+c [.W.S B.F+;.#+-+J.J ; < H+H+H+",
"H+H+H+H+H+H+/ l./.A.t+P H+7+/+&+O M H+H+H+H+",
"H+H+H+H+H+H+H+k @ z.i.].>.- b 3 d H+H+H+H+H+",
"H+H+H+H+H+H+H+/ q.: '+(.b : q+H+H+H+H+H+H+H+"};
