/* XPM */
static char * lock_xpm[] = {
"32 32 126 2",
"  	c None",
". 	c #0F0F0F",
"+ 	c #0A0A0A",
"@ 	c #070707",
"# 	c #050505",
"$ 	c #040404",
"% 	c #030303",
"& 	c #111111",
"* 	c #0C0C0C",
"= 	c #020202",
"- 	c #000000",
"; 	c #010101",
"> 	c #0D0D0D",
", 	c #060606",
"' 	c #090909",
") 	c #4A4A4A",
"! 	c #8C8C8C",
"~ 	c #323232",
"{ 	c #101010",
"] 	c #131313",
"^ 	c #909090",
"/ 	c #777777",
"( 	c #656565",
"_ 	c #6B6B6B",
": 	c #292929",
"< 	c #1D1D1D",
"[ 	c #999999",
"} 	c #696969",
"| 	c #575757",
"1 	c #767676",
"2 	c #1C1C1C",
"3 	c #2B2B2B",
"4 	c #202020",
"5 	c #A2A2A2",
"6 	c #5B5B5B",
"7 	c #5A5A5A",
"8 	c #898989",
"9 	c #4F4F4F",
"0 	c #161616",
"a 	c #121212",
"b 	c #262626",
"c 	c #232323",
"d 	c #9E9E9E",
"e 	c #525252",
"f 	c #6A6A6A",
"g 	c #929292",
"h 	c #313131",
"i 	c #282828",
"j 	c #242424",
"k 	c #191919",
"l 	c #1F1F1F",
"m 	c #9A9A9A",
"n 	c #535353",
"o 	c #7A7A7A",
"p 	c #848484",
"q 	c #3E3E3E",
"r 	c #454545",
"s 	c #444444",
"t 	c #585858",
"u 	c #3B3B3B",
"v 	c #212121",
"w 	c #3C3C3C",
"x 	c #6D6D6D",
"y 	c #474747",
"z 	c #636363",
"A 	c #080808",
"B 	c #626262",
"C 	c #6C6C6C",
"D 	c #434343",
"E 	c #989898",
"F 	c #3D3D3D",
"G 	c #3A3A3A",
"H 	c #424242",
"I 	c #0B0B0B",
"J 	c #484848",
"K 	c #616161",
"L 	c #5E5E5E",
"M 	c #919191",
"N 	c #404040",
"O 	c #505050",
"P 	c #737373",
"Q 	c #0E0E0E",
"R 	c #181818",
"S 	c #272727",
"T 	c #6E6E6E",
"U 	c #808080",
"V 	c #565656",
"W 	c #686868",
"X 	c #868686",
"Y 	c #151515",
"Z 	c #545454",
"` 	c #727272",
" .	c #878787",
"..	c #353535",
"+.	c #4D4D4D",
"@.	c #7E7E7E",
"#.	c #858585",
"$.	c #333333",
"%.	c #1B1B1B",
"&.	c #171717",
"*.	c #393939",
"=.	c #AAAAAA",
"-.	c #828282",
";.	c #787878",
">.	c #373737",
",.	c #B0B0B0",
"'.	c #707070",
").	c #141414",
"!.	c #494949",
"~.	c #4B4B4B",
"{.	c #B4B4B4",
"].	c #4C4C4C",
"^.	c #ACACAC",
"/.	c #2F2F2F",
"(.	c #595959",
"_.	c #AFAFAF",
":.	c #2D2D2D",
"<.	c #2E2E2E",
"[.	c #A5A5A5",
"}.	c #303030",
"|.	c #747474",
"1.	c #8A8A8A",
"2.	c #363636",
"3.	c #666666",
"4.	c #383838",
"5.	c #2C2C2C",
"                                                                ",
"            . + @ # $ %                                         ",
"        & * =           - -                                     ",
"        +                 - -                                   ",
"      .                     ; -                                 ",
"    > $                       ;                                 ",
"    *                         ,                                 ",
"    '                         ) $ =                             ",
"    @                       ! ~ { ] -                           ",
"    ,                   ^ / ( _ ; : < -                         ",
"    $ ;               [ } | 1 2 % = 3 4 -                       ",
"      ;             5 6 7 8 9 0 a @ % b c -                     ",
"      - -         d e f g h @ # . i j k l b -                   ",
"        - -     m n o p q - - r s t u ( j v w -                 ",
"          - @ x e d y z A # r 1 B C D E | y } -                 ",
"              2 F G c H I J K L M N ! O J P Q -                 ",
"              ; { > & R S F T U r p y V W @ -                   ",
"                % k ' a 2 q D J X q K 7 = -                     ",
"                - + Y { e Z `  ...x +.a < <                     ",
"                  - a * b  .@.~ ` w - L #.$.%.                  ",
"                    ; &.> J *.o 3 - j w =.-.3                   ",
"                      , k F ;.4 -   %.>.s ,.'.I                 ",
"                      - ).!.Y -       v *.~.{.].                ",
"                        - - -           j h O ^.N               ",
"                                          & /.(._.:.            ",
"                                            j <.( [.}.          ",
"                                              i ~ |.1.A         ",
"                                              a >.2.3.4.;       ",
"                                                0 G q F I       ",
"                                                  { l 5.Q       ",
"                                                        ;       ",
"                                                                "};
