/* XPM */
static char * eneboodev_xpm[] = {
"32 32 551 2",
"  	c #FFFFFF",
". 	c #FEFFFF",
"+ 	c #FEFEFE",
"@ 	c #FEFEFD",
"# 	c #FDFDFD",
"$ 	c #FBFCFD",
"% 	c #FAFBFC",
"& 	c #FEFEFF",
"* 	c #FEFCFE",
"= 	c #FDFBFB",
"- 	c #F9FBFB",
"; 	c #D7E2E6",
"> 	c #A8B8C0",
", 	c #A6B1B9",
"' 	c #F3F5F6",
") 	c #FCFAFC",
"! 	c #F0F2F6",
"~ 	c #9DABB5",
"{ 	c #517180",
"] 	c #274E61",
"^ 	c #4E6778",
"/ 	c #EBEEF0",
"( 	c #FDFEFC",
"_ 	c #F0F5F6",
": 	c #889CA7",
"< 	c #29485C",
"[ 	c #24475A",
"} 	c #1A4358",
"| 	c #496779",
"1 	c #EAEEF0",
"2 	c #FAFCFC",
"3 	c #9BA8B3",
"4 	c #2D4B5C",
"5 	c #264B5E",
"6 	c #22485C",
"7 	c #1F485E",
"8 	c #4D7183",
"9 	c #EAEFF1",
"0 	c #F9F9FA",
"a 	c #F6F7F9",
"b 	c #F6F7F8",
"c 	c #FCFCFC",
"d 	c #F4F7F8",
"e 	c #F5F7F8",
"f 	c #FEFFFE",
"g 	c #FCFDFD",
"h 	c #CED4D8",
"i 	c #4A6173",
"j 	c #1F4052",
"k 	c #204254",
"l 	c #1C3C4D",
"m 	c #1D4051",
"n 	c #496A79",
"o 	c #EBEFF0",
"p 	c #A6B8BF",
"q 	c #6D8A95",
"r 	c #6B7E8B",
"s 	c #8F9BA8",
"t 	c #F3F4F5",
"u 	c #E9EDEF",
"v 	c #859EA9",
"w 	c #6D8994",
"x 	c #667986",
"y 	c #B1BAC1",
"z 	c #FCFDFC",
"A 	c #F7FAFB",
"B 	c #8594A2",
"C 	c #203E51",
"D 	c #224659",
"E 	c #224455",
"F 	c #1D3D4F",
"G 	c #214157",
"H 	c #476375",
"I 	c #FBFCFC",
"J 	c #7C99A0",
"K 	c #1D4549",
"L 	c #1C3944",
"M 	c #577280",
"N 	c #F1F4F4",
"O 	c #FFFEFE",
"P 	c #E5EDED",
"Q 	c #466871",
"R 	c #1E4048",
"S 	c #1E3A47",
"T 	c #94A3AE",
"U 	c #DAE0E4",
"V 	c #486073",
"W 	c #254153",
"X 	c #254557",
"Y 	c #1E3E4E",
"Z 	c #224156",
"` 	c #516A7C",
" .	c #8C9CA7",
"..	c #F1F3F4",
"+.	c #7A939D",
"@.	c #1F4748",
"#.	c #23424B",
"$.	c #59707F",
"%.	c #F2F3F5",
"&.	c #E5EBEC",
"*.	c #46676F",
"=.	c #1F4B4E",
"-.	c #1F4248",
";.	c #93A1A9",
">.	c #FDFEFD",
",.	c #FFFFFE",
"'.	c #AAB5BD",
").	c #274356",
"!.	c #203B4B",
"~.	c #203A45",
"{.	c #254251",
"].	c #768C9B",
"^.	c #D5DEE3",
"/.	c #F6FAFA",
"(.	c #FEFDFE",
"_.	c #78929C",
":.	c #1C3E43",
"<.	c #1B3542",
"[.	c #566A7B",
"}.	c #F3F3F5",
"|.	c #E6ECEE",
"1.	c #42626A",
"2.	c #193D44",
"3.	c #1A3643",
"4.	c #919FA8",
"5.	c #FFFFFD",
"6.	c #FAFCFA",
"7.	c #81939D",
"8.	c #233F51",
"9.	c #21404C",
"0.	c #1F3940",
"a.	c #57727C",
"b.	c #D8E1E4",
"c.	c #FDFEFE",
"d.	c #FCFCFB",
"e.	c #FDFCFA",
"f.	c #FAFCF9",
"g.	c #7C9A9F",
"h.	c #245154",
"i.	c #224C53",
"j.	c #56747E",
"k.	c #EFF4F3",
"l.	c #FEFCFC",
"m.	c #FDFCFC",
"n.	c #FCFDFB",
"o.	c #E5ECED",
"p.	c #467075",
"q.	c #215453",
"r.	c #204A51",
"s.	c #8FA2A8",
"t.	c #FBFCFB",
"u.	c #FDFDFC",
"v.	c #F2F4F4",
"w.	c #607783",
"x.	c #213F4B",
"y.	c #24434C",
"z.	c #223C43",
"A.	c #9DAEB3",
"B.	c #FBFDF9",
"C.	c #DEE6E7",
"D.	c #DDE4E8",
"E.	c #DAE4E8",
"F.	c #6D8C95",
"G.	c #1B4148",
"H.	c #193D45",
"I.	c #526D78",
"J.	c #D4DFE1",
"K.	c #DFE5E8",
"L.	c #E0E3E7",
"M.	c #ECEEF2",
"N.	c #D9E0E6",
"O.	c #D5E0E3",
"P.	c #C0D0D7",
"Q.	c #41666F",
"R.	c #193F41",
"S.	c #1C3D48",
"T.	c #80919F",
"U.	c #DAE0E3",
"V.	c #F9FCFF",
"W.	c #E9ECEC",
"X.	c #48616D",
"Y.	c #224049",
"Z.	c #27454C",
"`.	c #364F56",
" +	c #D3DADF",
".+	c #E1E5E8",
"++	c #577782",
"@+	c #3C6B7A",
"#+	c #3F7984",
"$+	c #2E696F",
"%+	c #235456",
"&+	c #234351",
"*+	c #3A4F59",
"=+	c #354753",
"-+	c #41535E",
";+	c #7C8F98",
">+	c #3B6371",
",+	c #366B78",
"'+	c #377780",
")+	c #215F5E",
"!+	c #215552",
"~+	c #214A52",
"{+	c #2E4854",
"]+	c #364955",
"^+	c #31414F",
"/+	c #556771",
"(+	c #E5EAEC",
"_+	c #E3E7E9",
":+	c #3F555F",
"<+	c #264045",
"[+	c #254348",
"}+	c #445F65",
"|+	c #DEE7EB",
"1+	c #356877",
"2+	c #175964",
"3+	c #184F53",
"4+	c #174444",
"5+	c #1A3C40",
"6+	c #1B343D",
"7+	c #17303D",
"8+	c #1F3F51",
"9+	c #1D465D",
"0+	c #2A5568",
"a+	c #7491A1",
"b+	c #1A5567",
"c+	c #1A585F",
"d+	c #194D4C",
"e+	c #15433F",
"f+	c #193D3E",
"g+	c #193238",
"h+	c #1A333D",
"i+	c #1F4358",
"j+	c #1E4A60",
"k+	c #456E7D",
"l+	c #E6EDEE",
"m+	c #E2E6E8",
"n+	c #3F5760",
"o+	c #244145",
"p+	c #254549",
"q+	c #48666B",
"r+	c #E7ECED",
"s+	c #DDE6EA",
"t+	c #336C7D",
"u+	c #16626E",
"v+	c #1D6067",
"w+	c #1D595B",
"x+	c #215458",
"y+	c #224951",
"z+	c #21434D",
"A+	c #234757",
"B+	c #1E475B",
"C+	c #285364",
"D+	c #7292A3",
"E+	c #19596D",
"F+	c #1B626A",
"G+	c #205F5E",
"H+	c #1D5857",
"I+	c #235154",
"J+	c #25454A",
"K+	c #25434E",
"L+	c #23495B",
"M+	c #1E475C",
"N+	c #456878",
"O+	c #E7ECEC",
"P+	c #E7EAEC",
"Q+	c #49646C",
"R+	c #25484A",
"S+	c #25494C",
"T+	c #416165",
"U+	c #DEE3E6",
"V+	c #DCE6E9",
"W+	c #346A7B",
"X+	c #185C67",
"Y+	c #1A595C",
"Z+	c #195350",
"`+	c #1A4A4B",
" @	c #1C4247",
".@	c #1A3B46",
"+@	c #1A3546",
"@@	c #1B394B",
"#@	c #234555",
"$@	c #6D8B9B",
"%@	c #18586B",
"&@	c #1A5C66",
"*@	c #1B5558",
"=@	c #19504D",
"-@	c #1A4647",
";@	c #1B3F41",
">@	c #1C3A48",
",@	c #1A3848",
"'@	c #193A4A",
")@	c #42606E",
"!@	c #E8EAEC",
"~@	c #EDF1F0",
"{@	c #56737A",
"]@	c #214A4C",
"^@	c #224E4F",
"/@	c #2E585C",
"(@	c #BAC8CB",
"_@	c #FEFBFB",
":@	c #FFFDFE",
"<@	c #DDE5E8",
"[@	c #3F6C7C",
"}@	c #205765",
"|@	c #215459",
"1@	c #215353",
"2@	c #1F4E50",
"3@	c #22474D",
"4@	c #224956",
"5@	c #2C556B",
"6@	c #2F607A",
"7@	c #386C80",
"8@	c #7093A2",
"9@	c #225A6A",
"0@	c #235762",
"a@	c #205259",
"b@	c #1B5250",
"c@	c #1C4D4C",
"d@	c #20484C",
"e@	c #2A4E61",
"f@	c #2C546B",
"g@	c #2A5C75",
"h@	c #517A8B",
"i@	c #E8ECED",
"j@	c #F5F8F6",
"k@	c #6E8C91",
"l@	c #215051",
"m@	c #215052",
"n@	c #1F4F4F",
"o@	c #7B989B",
"p@	c #F5F8FA",
"q@	c #F2F6F8",
"r@	c #B8C9CF",
"s@	c #B3C4CC",
"t@	c #AFBFC3",
"u@	c #608185",
"v@	c #225154",
"w@	c #1B3E45",
"x@	c #48616E",
"y@	c #AAB8C2",
"z@	c #B1C2CA",
"A@	c #B1C5CB",
"B@	c #CBD5DB",
"C@	c #AAC0C6",
"D@	c #ACBEC2",
"E@	c #99AEB1",
"F@	c #3D6869",
"G@	c #224E4E",
"H@	c #1C3D44",
"I@	c #677E8C",
"J@	c #ACB8C1",
"K@	c #AABCC4",
"L@	c #B3C6CC",
"M@	c #F5F8F8",
"N@	c #FAFCFD",
"O@	c #94A9AF",
"P@	c #224F52",
"Q@	c #235555",
"R@	c #225350",
"S@	c #376264",
"T@	c #A8BDC1",
"U@	c #F8FAFA",
"V@	c #FCFCFA",
"W@	c #FEFDFD",
"X@	c #78929A",
"Y@	c #1D454C",
"Z@	c #1D4047",
"`@	c #58737B",
" #	c #F1F4F3",
".#	c #FDFCF9",
"+#	c #FDFBF9",
"@#	c #E5E9EB",
"##	c #43696E",
"$#	c #1A4245",
"%#	c #1D4147",
"&#	c #8FA5AD",
"*#	c #FBFCF9",
"=#	c #FDFCFD",
"-#	c #C3CBD1",
";#	c #33575F",
">#	c #255A58",
",#	c #25575A",
"'#	c #426A72",
")#	c #95ABB2",
"!#	c #CBD7DB",
"~#	c #F9FCFA",
"{#	c #FCFEFC",
"]#	c #F9FDFC",
"^#	c #7D9DA4",
"/#	c #235557",
"(#	c #214951",
"_#	c #546D78",
":#	c #F1F4F5",
"<#	c #4B7077",
"[#	c #20444E",
"}#	c #909EA9",
"|#	c #EEF0F3",
"1#	c #64838D",
"2#	c #21585B",
"3#	c #1E585D",
"4#	c #215B5F",
"5#	c #205962",
"6#	c #275A67",
"7#	c #5B7A87",
"8#	c #7A9199",
"9#	c #1D474C",
"0#	c #1E4352",
"a#	c #576D7E",
"b#	c #F2F3F4",
"c#	c #E6EDED",
"d#	c #41636A",
"e#	c #1B464C",
"f#	c #204152",
"g#	c #94A0AE",
"h#	c #A6BAC0",
"i#	c #2A5E6A",
"j#	c #1E5C64",
"k#	c #216269",
"l#	c #1D5C66",
"m#	c #1E585F",
"n#	c #477380",
"o#	c #E9EFF1",
"p#	c #7D959D",
"q#	c #1C4F55",
"r#	c #204F5A",
"s#	c #587280",
"t#	c #446971",
"u#	c #1E4F56",
"v#	c #214C5A",
"w#	c #8FA1AB",
"x#	c #FCFEFD",
"y#	c #6D939E",
"z#	c #1D5967",
"A#	c #1E5D6A",
"B#	c #1E5968",
"C#	c #1D545F",
"D#	c #46757F",
"E#	c #8BA2AC",
"F#	c #2F5362",
"G#	c #305263",
"H#	c #698292",
"I#	c #557B84",
"J#	c #2E5160",
"K#	c #345266",
"L#	c #9AAAB6",
"M#	c #FDFDFB",
"N#	c #C7D7DB",
"O#	c #557D8C",
"P#	c #1F5869",
"Q#	c #1D5667",
"R#	c #1C5563",
"S#	c #43707C",
"T#	c #E8EEEF",
"U#	c #B9CAD1",
"V#	c #86A1AC",
"W#	c #899EAB",
"X#	c #A8B5C1",
"Y#	c #F7F8F9",
"Z#	c #F2F4F5",
"`#	c #9AB3BD",
" $	c #889EAC",
".$	c #8A9DAB",
"+$	c #C3CFD4",
"@$	c #F9FCFC",
"#$	c #C1CCD2",
"$$	c #5D8291",
"%$	c #1F556A",
"&$	c #195365",
"*$	c #426C7A",
"=$	c #E9EFF0",
"-$	c #CAD5D7",
";$	c #A3B8BA",
">$	c #A7B8BE",
",$	c #BDC6CF",
"'$	c #F9FAFA",
")$	c #F3F5F5",
"!$	c #B4C3C6",
"~$	c #A6B8BB",
"{$	c #A6B8BE",
"]$	c #D0DADC",
"^$	c #FBFBFB",
"/$	c #DBE4E7",
"($	c #91AAB3",
"_$	c #517885",
":$	c #5C7C8C",
"<$	c #EBEEF1",
"[$	c #D6DEDF",
"}$	c #B8C7C9",
"|$	c #B7C4C7",
"1$	c #CAD0D6",
"2$	c #FBFAFB",
"3$	c #F6F7F7",
"4$	c #C4CECE",
"5$	c #B7C6C6",
"6$	c #B6C6C7",
"7$	c #DCE0E2",
"8$	c #FFFEFD",
"9$	c #F0F3F3",
"0$	c #CAD9DD",
"a$	c #9EBAC0",
"b$	c #9CB2BD",
"c$	c #F3F5F7",
"d$	c #E2E8EA",
"e$	c #CED9DC",
"f$	c #CDD8D8",
"g$	c #D9DEE0",
"h$	c #FBFBFC",
"i$	c #F8F9F9",
"j$	c #D7DEE0",
"k$	c #CDD9DA",
"l$	c #CDD8D7",
"m$	c #E5EAEA",
"n$	c #FCFEFE",
"o$	c #BDCBD1",
"p$	c #9DB6BE",
"q$	c #97B5BA",
"r$	c #ACBFC5",
"s$	c #F4F6F8",
"t$	c #EBF0F1",
"u$	c #DFE7E8",
"v$	c #DFE6E6",
"w$	c #E8ECEB",
"x$	c #FAFBFB",
"y$	c #DEE5E6",
"z$	c #E1E6E5",
"A$	c #EFF2F1",
"B$	c #EDF2F3",
"C$	c #C2D1D4",
"D$	c #A6C2C6",
"E$	c #A5C1C4",
"F$	c #B8C9CE",
"G$	c #F2F5F5",
"H$	c #F5F7F6",
"I$	c #FCFBFC",
"J$	c #F4F5F5",
"K$	c #F8F9F8",
"L$	c #FAFAFB",
"M$	c #D5DFE1",
"N$	c #B7CBCB",
"O$	c #B7CDCE",
"P$	c #B5CDCD",
"Q$	c #B4CACC",
"R$	c #C5D4D6",
"S$	c #F8FAFB",
"T$	c #ECEDEF",
"U$	c #CAD8D9",
"V$	c #C6D6D6",
"W$	c #C8D7D7",
"X$	c #C4D6D9",
"Y$	c #C6D5D8",
"Z$	c #D2DCDD",
"              . .                                               ",
"            + @ @ +                                             ",
"      + + + # $ % # +                                           ",
"    & * = - ; > , ' +                                           ",
"    + ) ! ~ { ] ^ / +     + + + + +           + + + + +         ",
"    ( _ : < [ } | 1 + + + + # # # + +       + + + + # # +       ",
"  + 2 3 4 5 6 7 8 9 # + + 0 a b b # +       + c a d e 0 +       ",
"f g h i j k l m n o # + c p q r s t +     + # u v w x y z       ",
"+ A B C D E F G H 1 # + I J K L M N O     + # P Q R S T #       ",
"+ U V W X Y Z `  ...# + c +.@.#.$.%.+   . + # &.*.=.-.;.>.  ,.  ",
"z '.).!.~.{.].^./.c # (.I _.:.<.[.}.+ + + + # |.1.2.3.4.# + @ 5.",
"6.7.8.9.0.a.b.c c.# d.e.f.g.h.i.j.k.z l.l.m.n.o.p.q.r.s.t.u.z # ",
"v.w.x.y.z.A.B.+ + 2 C.D.E.F.G.H.I.J.K.L.M.N.O.P.Q.R.S.T.U U.U V.",
"W.X.Y.Z.`. +u.. + .+++@+#+$+%+i.&+*+=+-+;+>+,+'+)+!+~+{+]+^+/+(+",
"_+:+<+[+}+(+@ ,.+ |+1+2+3+4+5+6+7+8+9+0+a+b+c+d+e+f+g+h+i+j+k+l+",
"m+n+o+p+q+r+@ ,.(.s+t+u+v+w+x+y+z+A+B+C+D+E+F+G+H+I+J+K+L+M+N+O+",
"P+Q+R+S+T+U+u.+ c.V+W+X+Y+Z+`+ @.@+@@@#@$@%@&@*@=@-@;@>@,@'@)@!@",
"~@{@]@^@/@(@_@:@(.<@[@}@|@1@2@3@4@5@6@7@8@9@0@a@b@c@d@e@f@g@h@i@",
"j@k@l@m@n@o@p@(.(.q@r@s@t@u@v@w@x@y@z@A@B@C@D@E@F@G@H@I@J@K@L@M@",
"N@O@P@Q@R@S@T@U@z d.V@W@% X@Y@Z@`@ #.#+#+#I $ @###$#%#&#*#.#t.# ",
"=#-#;#>#Q@,#'#)#!#~#{#@ ]#^#/#(#_#:#c.@ ( >.# r+<#%+[#}#g c.@ 5.",
"(.|#1#2#3#4#5#6#7#u # + I 8#9#0#a#b#+ f f + # c#d#e#f#g#W@. O   ",
". N@h#i#j#k#l#m#n#o## + I p#q#r#s# #+     + # &.t#u#v#w#{#      ",
". x#~@y#z#A#B#C#D#9 # + I E#F#G#H#:#+     + # P I#J#K#L##       ",
"  f M#N#O#P#Q#R#S#T#+ + # U#V#W#X#Y#+     + # Z#`# $.$+$>.      ",
"    @ @$#$$$%$&$*$=$+   + -$;$>$,$'$,.    + # )$!$~${$]$c.      ",
"    + @ ^$/$($_$:$<$+   + [$}$|$1$2$+     + # 3$4$5$6$7$c.      ",
"    8$W@^$9$0$a$b$c$+ + # d$e$f$g$h$+       + i$j$k$l$m$n$      ",
"    @ x#|.o$p$q$r$s$+ + # t$u$v$w$c + + + + + x$&.y$z$A$g + +   ",
"    + B$C$C@D$E$F$e # # # b )$G$H$I$# # # # # c b ' J$K$z # # # ",
"  + L$M$N$O$P$Q$R$S$+ + + W@u.# # (.+ + + + + + W@u.# W@+ + +   ",
"  # T$U$V$W$X$Y$Z$-                                             "};
