/* XPM */
static char * misc_doc_xpm[] = {
"32 32 217 2",
"  	c None",
". 	c #E1E1E1",
"+ 	c #ECECEC",
"@ 	c #EAEAEA",
"# 	c #EBEBEB",
"$ 	c #EEEDEC",
"% 	c #CFD3DA",
"& 	c #5C7DAD",
"* 	c #1A4F9C",
"= 	c #1B4686",
"- 	c #D8D8D8",
"; 	c #F0F0F0",
"> 	c #F1F1F1",
", 	c #F3F3F3",
"' 	c #EFEFEF",
") 	c #E8E6E5",
"! 	c #CFCECD",
"~ 	c #798CA8",
"{ 	c #2D5EA6",
"] 	c #2B6BCC",
"^ 	c #316EC8",
"/ 	c #1D437B",
"( 	c #D5D5D5",
"_ 	c #F5F5F5",
": 	c #F4F4F4",
"< 	c #E6E6E6",
"[ 	c #DBDADA",
"} 	c #D5D2CE",
"| 	c #9DA4AE",
"1 	c #2D5590",
"2 	c #2D67C0",
"3 	c #4686ED",
"4 	c #3C77D5",
"5 	c #1B3D70",
"6 	c #EDEDED",
"7 	c #F7F7F7",
"8 	c #F8F8F8",
"9 	c #F6F6F6",
"0 	c #EEEEEE",
"a 	c #DDDDDD",
"b 	c #C9C9C9",
"c 	c #C5C3BF",
"d 	c #929AA6",
"e 	c #234F8F",
"f 	c #2962B8",
"g 	c #4782E1",
"h 	c #5792F6",
"i 	c #3668B8",
"j 	c #F2F2F2",
"k 	c #FAFAFA",
"l 	c #FDFDFD",
"m 	c #FCFCFC",
"n 	c #CBCBCB",
"o 	c #BBBBBB",
"p 	c #BAB7B2",
"q 	c #6E819B",
"r 	c #1B509D",
"s 	c #2764BF",
"t 	c #3D77D3",
"u 	c #649AF8",
"v 	c #4E86DF",
"w 	c #D4D4D4",
"x 	c #E2E2E2",
"y 	c #CCCCCC",
"z 	c #BDBDBD",
"A 	c #B3B2B0",
"B 	c #A0A2A6",
"C 	c #2D599B",
"D 	c #2561B9",
"E 	c #2867C4",
"F 	c #326ECA",
"G 	c #679CF2",
"H 	c #5B94EC",
"I 	c #FBFBFB",
"J 	c #C5C5C5",
"K 	c #CECECE",
"L 	c #E4E4E4",
"M 	c #CDCDCD",
"N 	c #B2B2B1",
"O 	c #AAA9A8",
"P 	c #486A9C",
"Q 	c #1F5AB2",
"R 	c #235FB8",
"S 	c #1953A6",
"T 	c #1C509C",
"U 	c #406EB5",
"V 	c #356CC0",
"W 	c #D2D2D2",
"X 	c #DEDEDE",
"Y 	c #A5A5A5",
"Z 	c #C8C8C8",
"` 	c #DCDCDC",
" .	c #C6C6C6",
"..	c #B8B8B8",
"+.	c #ACACAC",
"@.	c #B1ADA9",
"#.	c #5976A0",
"$.	c #154A9A",
"%.	c #355B92",
"&.	c #576E90",
"*.	c #6F7D93",
"=.	c #798596",
"-.	c #71829B",
";.	c #4E678B",
">.	c #D3D3D3",
",.	c #B0B0B0",
"'.	c #D6D6D6",
").	c #8E8E8E",
"!.	c #A7A5A3",
"~.	c #8290A5",
"{.	c #7B899E",
"].	c #B0AEA9",
"^.	c #B5B2AF",
"/.	c #BCBAB7",
"(.	c #C3C1BD",
"_.	c #979795",
":.	c #4C4C4C",
"<.	c #C3C3C3",
"[.	c #C0C0C0",
"}.	c #FFFFFF",
"|.	c #E9E9E9",
"1.	c #F9F9F9",
"2.	c #808080",
"3.	c #A3A3A3",
"4.	c #BCBBB9",
"5.	c #BDBAB8",
"6.	c #B8B7B7",
"7.	c #B7B7B7",
"8.	c #BABABA",
"9.	c #C1C1C1",
"0.	c #939393",
"a.	c #868686",
"b.	c #ABABAB",
"c.	c #C7C7C7",
"d.	c #848484",
"e.	c #E5E5E5",
"f.	c #AEAEAE",
"g.	c #A7A7A7",
"h.	c #BCBCBC",
"i.	c #D1D1D1",
"j.	c #969696",
"k.	c #BEBEBE",
"l.	c #E8E8E8",
"m.	c #DADADA",
"n.	c #A1A1A1",
"o.	c #D9D9D9",
"p.	c #979797",
"q.	c #6C6C6C",
"r.	c #FEFEFE",
"s.	c #DFDFDF",
"t.	c #A8A8A8",
"u.	c #8F8F8F",
"v.	c #DBDBDB",
"w.	c #888888",
"x.	c #CFCFCF",
"y.	c #C2C2C2",
"z.	c #9E9E9E",
"A.	c #AAAAAA",
"B.	c #C4C4C4",
"C.	c #E3E3E3",
"D.	c #D0D0D0",
"E.	c #999999",
"F.	c #CACACA",
"G.	c #B6B6B6",
"H.	c #4F4F4F",
"I.	c #E7E7E7",
"J.	c #ADADAD",
"K.	c #8C8C8C",
"L.	c #8B8B8B",
"M.	c #B9B9B9",
"N.	c #B2B2B2",
"O.	c #3B3B3B",
"P.	c #E0E0E0",
"Q.	c #D7D7D7",
"R.	c #919191",
"S.	c #BFBFBF",
"T.	c #252525",
"U.	c #4B4B4B",
"V.	c #8A8A8A",
"W.	c #A9A9A9",
"X.	c #959595",
"Y.	c #272727",
"Z.	c #B5B5B5",
"`.	c #A0A0A0",
" +	c #B1B1B1",
".+	c #A4A4A4",
"++	c #A6A6A6",
"@+	c #B3B3B3",
"#+	c #292929",
"$+	c #4A4A4A",
"%+	c #878787",
"&+	c #7A7A7A",
"*+	c #A2A2A2",
"=+	c #949494",
"-+	c #2A2A2A",
";+	c #B4B4B4",
">+	c #9A9A9A",
",+	c #7B7B7B",
"'+	c #909090",
")+	c #2C2C2C",
"!+	c #494949",
"~+	c #9D9D9D",
"{+	c #9B9B9B",
"]+	c #2D2D2D",
"^+	c #AFAFAF",
"/+	c #2E2E2E",
"(+	c #4E4E4E",
"_+	c #9C9C9C",
":+	c #9F9F9F",
"<+	c #989898",
"[+	c #929292",
"}+	c #333333",
"|+	c #3C3C3C",
"1+	c #363636",
"2+	c #373737",
"3+	c #383838",
"4+	c #393939",
"                                                                ",
"                                                                ",
"            . + @ @ @ @ # $ % & * =                             ",
"            - + + ; > , , ' ) ! ~ { ] ^ /                       ",
"            ( @ + ; , _ : ' < [ } | 1 2 3 4 5                   ",
"            ( # 6 > : 7 8 9 0 a b c d e f g h i                 ",
"            ( + 0 j 9 k l m , . n o p q r s t u v               ",
"            w + ' , 7 m 8 l _ x y z A B C D E F G H             ",
"            w ' > _ I : J K : L M z N O P Q R S T U V           ",
"            W - X 0 ; x L Y Z `  ...+.@.#.$.%.&.*.=.-.;.        ",
"            b o w M w 8 m >.,.'.. W ).!.~.{.Y ].^./.(._.        ",
"          :.<.[.k 8 9 l }.8 |.8 1.y 2.3.4.5.6.7.8.z 9.0.        ",
"            ..9.m }.}.}.}.}.l 9 , W a.b.n b Z Z Z c.J 0.        ",
"          d.a e.I }.}.}.}.}.}.1., a f.g.h.i.( w i.M Z j.        ",
"        k.}.l k l }.}.}.}.}.}.1.j l.m.b ,.n.K o.>.K Z p.        ",
"        q.X , 8 r.}.}.}.}.}.}.8 ; |.s.a t.u.K v.>.y J p.        ",
"          j.+ 7 m }.}.}.}.}.l _ 6 e.. J w.7.X o.x.c.y.p.        ",
"          z.: > 8 l }.}.}.r.1.> |.. - A.0.'.X w n B.k.p.        ",
"          8 # + j 8 I m m 1., # C.v.D.o E.9.o.x.c.[.8.p.        ",
"        F.j x l.+ ; : : : ; # C.v.>.K M +.p.c.n y.o G.p.        ",
"        H.).B.m.x l.# # @ I.x v.W W M J.K.L.M.J z G.N.j.        ",
"          O.u.J.- X P.. P.` Q.D.b b R.d.3...9.S...N.f.j.T.      ",
"          U.f.Y D.o.o.( w i.W F.<.S.V.A.n c.[.M.N.J.W.X.Y.      ",
"          U.Z.`.M. +.+8.F.n f.++f.f.w.f. .S...@+J.t.++X.#+      ",
"          $+7.R.2.2.%+R...t.&+%+V.a.%+f.k...N.J.t..+*+=+-+      ",
"          $+..J.W.;+8.>+L.,+'+M...f.t.;+G. +J.W..+`.z.0.)+      ",
"          !+..o z k.S.M.0.).;+S.z h...;+,.+.t.Y n.~+{+0.]+      ",
"          $+..7.....M.8.Z.;+M.7.Z.;+ +^+b.t.Y n.z.>+E.0./+      ",
"          (+W.p.E.{+_+z.`.`.`.`.`.:+z.~+>+<+j.=+R.u.u.[+}+      ",
"            |+1+1+1+1+2+2+2+2+2+2+3+3+3+2+2+2+2+2+2+1+4+        ",
"                                                                ",
"                                                                "};
