/* XPM */
static char * flrrhhppal_xpm[] = {
"32 32 452 2",
"  	c None",
". 	c #435C9F",
"+ 	c #8897C2",
"@ 	c #8C9BC5",
"# 	c #9FACCF",
"$ 	c #9EAACE",
"% 	c #9BA8CD",
"& 	c #98A5CB",
"* 	c #7E8FBD",
"= 	c #7285B7",
"- 	c #798BBB",
"; 	c #B2BCD9",
"> 	c #D7DCEC",
", 	c #DEE2EF",
"' 	c #EAEDF5",
") 	c #EDEFF7",
"! 	c #ECEFF6",
"~ 	c #EBEEF6",
"{ 	c #CAD0E6",
"] 	c #B7C0DC",
"^ 	c #8091BF",
"/ 	c #5168A5",
"( 	c #5B71AC",
"_ 	c #C1C9E0",
": 	c #DFE3F0",
"< 	c #F4F5FA",
"[ 	c #EFF0F7",
"} 	c #D8DDED",
"| 	c #C9CFE5",
"1 	c #BCC4DF",
"2 	c #D6DBEC",
"3 	c #D1D7E9",
"4 	c #BFC6E1",
"5 	c #B8C1DE",
"6 	c #CDD3E8",
"7 	c #F2F4F9",
"8 	c #DDE2EF",
"9 	c #B5BEDC",
"0 	c #8393C1",
"a 	c #354F94",
"b 	c #8494C0",
"c 	c #D8DDEC",
"d 	c #F1F3F9",
"e 	c #ECEEF6",
"f 	c #C7CDE5",
"g 	c #BBC3DF",
"h 	c #B7C0DD",
"i 	c #C0C7E1",
"j 	c #F5F6FA",
"k 	c #FAFAFC",
"l 	c #F6F7FB",
"m 	c #F1F2F8",
"n 	c #B6BEDC",
"o 	c #98A5CF",
"p 	c #93A0CC",
"q 	c #AAB4D7",
"r 	c #E9ECF5",
"s 	c #C9D0E6",
"t 	c #94A2CB",
"u 	c #4D64A2",
"v 	c #97A5CA",
"w 	c #DCE0EE",
"x 	c #F8F9FC",
"y 	c #D5DAEC",
"z 	c #BFC7E1",
"A 	c #B3BDDB",
"B 	c #D9DDED",
"C 	c #F5F5FA",
"D 	c #F3F3F9",
"E 	c #EFEFF7",
"F 	c #D6D9EB",
"G 	c #93A0CD",
"H 	c #8E9CCA",
"I 	c #8998C8",
"J 	c #8493C5",
"K 	c #BEC6E1",
"L 	c #E6E9F3",
"M 	c #98A5CD",
"N 	c #5067A3",
"O 	c #8E9DC5",
"P 	c #FBFCFD",
"Q 	c #CED4E8",
"R 	c #BBC4DF",
"S 	c #B8C0DE",
"T 	c #AFB9D9",
"U 	c #DDE0EE",
"V 	c #EEEFF6",
"W 	c #EBECF4",
"X 	c #D2D6E9",
"Y 	c #7F8EC3",
"Z 	c #798AC0",
"` 	c #A8B3D6",
" .	c #919FCA",
"..	c #4B609C",
"+.	c #556BA8",
"@.	c #BCC4E0",
"#.	c #B4BDDC",
"$.	c #AFB9DA",
"%.	c #ABB5D7",
"&.	c #EAEBF4",
"*.	c #E9EAF3",
"=.	c #E6E7F2",
"-.	c #B9C0DD",
";.	c #8A98C8",
">.	c #7F8FC3",
",.	c #7A8AC1",
"'.	c #7485BE",
").	c #6F81BB",
"!.	c #A3AED3",
"~.	c #E3E6F2",
"{.	c #8393C2",
"].	c #1D377B",
"^.	c #B5BEDA",
"/.	c #D2D8EA",
"(.	c #C0C8E1",
"_.	c #B0B9DA",
":.	c #ABB6D8",
"<.	c #A7B2D6",
"[.	c #A2AED3",
"}.	c #C8CDE4",
"|.	c #E9EAF4",
"1.	c #BDC4DF",
"2.	c #8594C6",
"3.	c #7081BB",
"4.	c #6C7EBA",
"5.	c #697CB8",
"6.	c #B2BCDB",
"7.	c #BAC3DF",
"8.	c #677BB1",
"9.	c #E8EBF4",
"0.	c #C0C8E2",
"a.	c #C4CBE3",
"b.	c #C6CDE4",
"c.	c #C3CAE3",
"d.	c #BDC5E0",
"e.	c #BAC2DE",
"f.	c #F6F7FA",
"g.	c #FAFAFD",
"h.	c #F9F9FC",
"i.	c #A2ADD3",
"j.	c #9DA9D1",
"k.	c #99A5CF",
"l.	c #94A1CD",
"m.	c #909DCB",
"n.	c #8D9BC9",
"o.	c #8B99C8",
"p.	c #7F8FC2",
"q.	c #6376B5",
"r.	c #8494C4",
"s.	c #3B518D",
"t.	c #AFB9D7",
"u.	c #C8CFE5",
"v.	c #BCC5E0",
"w.	c #F2F3F9",
"x.	c #F8F8FB",
"y.	c #FCFCFD",
"z.	c #FDFDFE",
"A.	c #FCFCFE",
"B.	c #FBFBFD",
"C.	c #F7F7FB",
"D.	c #F4F4F9",
"E.	c #F2F3F8",
"F.	c #F1F1F8",
"G.	c #ECEDF5",
"H.	c #7A8AC0",
"I.	c #9AA7CF",
"J.	c #C1C8E2",
"K.	c #596FA9",
"L.	c #546AA7",
"M.	c #D6DBEB",
"N.	c #E7EAF4",
"O.	c #B9C1DE",
"P.	c #CDD3E7",
"Q.	c #D3D8EA",
"R.	c #D2D7EA",
"S.	c #D0D6E9",
"T.	c #CFD4E8",
"U.	c #CCD3E7",
"V.	c #CAD1E6",
"W.	c #EEF0F7",
"X.	c #D6DAEB",
"Y.	c #B4BDDB",
"Z.	c #B2BADA",
"`.	c #AFB8D9",
" +	c #ADB6D8",
".+	c #A8B2D5",
"++	c #9DA8D0",
"@+	c #5E72B3",
"#+	c #5B6FB2",
"$+	c #798ABE",
"%+	c #0A215E",
"&+	c #7183B6",
"*+	c #E4E8F3",
"=+	c #D1D7EA",
"-+	c #B9C2DE",
";+	c #B1BBDA",
">+	c #A4AFD4",
",+	c #9FABD2",
"'+	c #9AA7D0",
")+	c #95A2CD",
"!+	c #E0E3F0",
"~+	c #F6F6FA",
"{+	c #B5BDDC",
"]+	c #7383BD",
"^+	c #6F80BB",
"/+	c #6C7EB9",
"(+	c #697BB8",
"_+	c #6578B6",
":+	c #6175B5",
"<+	c #5E72B4",
"[+	c #576CB0",
"}+	c #919FCB",
"|+	c #344982",
"1+	c #8E9DC6",
"2+	c #EFF1F8",
"3+	c #BDC6E0",
"4+	c #B5BEDD",
"5+	c #ADB7D8",
"6+	c #96A3CE",
"7+	c #909ECB",
"8+	c #DDE1EF",
"9+	c #B3BCDB",
"0+	c #6C7FBA",
"a+	c #6578B7",
"b+	c #6275B5",
"c+	c #5F72B4",
"d+	c #586CB1",
"e+	c #556AAF",
"f+	c #8897C7",
"g+	c #A6B1D5",
"h+	c #516599",
"i+	c #94A2CA",
"j+	c #B6BFDD",
"k+	c #B1BBDB",
"l+	c #ADB7D9",
"m+	c #A9B3D6",
"n+	c #A0ABD2",
"o+	c #9BA7D0",
"p+	c #919ECB",
"q+	c #8C9AC9",
"r+	c #DBDFEE",
"s+	c #B1BADA",
"t+	c #6D7FBA",
"u+	c #697CB9",
"v+	c #6679B7",
"w+	c #6376B6",
"x+	c #5F73B4",
"y+	c #5C70B3",
"z+	c #596DB1",
"A+	c #556AB0",
"B+	c #5268AE",
"C+	c #7B8BC1",
"D+	c #C7CEE5",
"E+	c #4760A2",
"F+	c #AFB9D8",
"G+	c #B2BBDB",
"H+	c #ADB8D9",
"I+	c #A9B4D7",
"J+	c #A4B0D4",
"K+	c #919FCC",
"L+	c #8796C7",
"M+	c #F4F5F9",
"N+	c #F3F4F9",
"O+	c #F3F3F8",
"P+	c #6A7CB9",
"Q+	c #6779B7",
"R+	c #6377B6",
"S+	c #6074B5",
"T+	c #5D71B3",
"U+	c #5A6EB1",
"V+	c #566BB0",
"W+	c #5368AE",
"X+	c #5065AD",
"Y+	c #4D63AB",
"Z+	c #556BAA",
"`+	c #AAB5D5",
" @	c #AEB8D9",
".@	c #A5B0D4",
"+@	c #A0ACD2",
"@@	c #9BA8D0",
"#@	c #8C9BC9",
"$@	c #8291C4",
"%@	c #677AB8",
"&@	c #6477B6",
"*@	c #6174B5",
"=@	c #5E71B3",
"-@	c #5A6FB2",
";@	c #5469AF",
">@	c #5066AD",
",@	c #4E63AC",
"'@	c #546AA9",
")@	c #8A99C4",
"!@	c #FAFBFD",
"~@	c #A5B0D5",
"{@	c #A1ACD2",
"]@	c #9CA8D0",
"^@	c #97A3CE",
"/@	c #929FCC",
"(@	c #8D9BCA",
"_@	c #8896C7",
":@	c #8292C4",
"<@	c #7E8DC2",
"[@	c #F2F2F8",
"}@	c #F0F1F7",
"|@	c #5167AE",
"1@	c #4E64AC",
"2@	c #445DA0",
"3@	c #7B8CBD",
"4@	c #ABB5D8",
"5@	c #A1ACD3",
"6@	c #9CA8D1",
"7@	c #97A4CE",
"8@	c #92A0CC",
"9@	c #8292C5",
"0@	c #F1F1F7",
"a@	c #BEC6E0",
"b@	c #EFEFF6",
"c@	c #CCD1E6",
"d@	c #6276B5",
"e@	c #5267AE",
"f@	c #4F64AC",
"g@	c #8594C5",
"h@	c #475B91",
"i@	c #5D71AA",
"j@	c #C2C9E2",
"k@	c #8795C7",
"l@	c #8191C4",
"m@	c #7E8EC2",
"n@	c #8695C6",
"o@	c #7D8DC2",
"p@	c #ACB6D8",
"q@	c #EDEEF6",
"r@	c #CACFE5",
"s@	c #6074B4",
"t@	c #596EB1",
"u@	c #4F65AD",
"v@	c #8C9AC8",
"w@	c #2B4079",
"x@	c #405795",
"y@	c #8F9DCA",
"z@	c #7E8EC3",
"A@	c #7888C0",
"B@	c #EEEEF6",
"C@	c #6B7DB9",
"D@	c #E3E5F1",
"E@	c #5A6EB2",
"F@	c #4D63AC",
"G@	c #6A7DB6",
"H@	c #081B4D",
"I@	c #8997C8",
"J@	c #8392C5",
"K@	c #7C8CC1",
"L@	c #7989C0",
"M@	c #7586BE",
"N@	c #687BB8",
"O@	c #8795C6",
"P@	c #5166AD",
"Q@	c #475E9F",
"R@	c #556BA4",
"S@	c #B8C1DD",
"T@	c #8695C7",
"U@	c #808FC3",
"V@	c #7687BF",
"W@	c #7384BD",
"X@	c #6678B7",
"Y@	c #E9E9F3",
"Z@	c #6F81B9",
"`@	c #293E78",
" #	c #7C8DBE",
".#	c #E9EBF5",
"+#	c #A3AED4",
"@#	c #8190C4",
"##	c #7787BF",
"$#	c #7385BE",
"%#	c #7082BC",
"&#	c #6073B4",
"*#	c #E8E9F3",
"=#	c #E7E8F3",
"-#	c #4C62A1",
";#	c #030B21",
">#	c #344B89",
",#	c #9DA9CF",
"'#	c #7788BF",
")#	c #7183BC",
"!#	c #6E7FBB",
"~#	c #B6BDDC",
"{#	c #6276B2",
"]#	c #112458",
"^#	c #556AA2",
"/#	c #A8B3D5",
"(#	c #F7F8FB",
"_#	c #7283BD",
":#	c #6E80BB",
"<#	c #6B7DBA",
"[#	c #C7CCE4",
"}#	c #A3ADD3",
"|#	c #C2C8E1",
"1#	c #E4E5F1",
"2#	c #9AA5CF",
"3#	c #6D80B8",
"4#	c #2E437F",
"5#	c #586DA7",
"6#	c #9BA8CF",
"7#	c #9EAAD2",
"8#	c #C5CAE3",
"9#	c #E5E6F1",
"0#	c #99A4CF",
"a#	c #586DB1",
"b#	c #C0C6E0",
"c#	c #E3E4F0",
"d#	c #98A3CE",
"e#	c #6D7FB8",
"f#	c #32498B",
"g#	c #495F9C",
"h#	c #8796C5",
"i#	c #DBE0EE",
"j#	c #7C8CC2",
"k#	c #BAC1DD",
"l#	c #6D7EBA",
"m#	c #BDC3DF",
"n#	c #5F73B0",
"o#	c #2B4383",
"p#	c #2D4380",
"q#	c #677BB3",
"r#	c #A3AFD3",
"s#	c #E2E6F2",
"t#	c #7F8FC1",
"u#	c #4B62A4",
"v#	c #192D63",
"w#	c #06153D",
"x#	c #394E8A",
"y#	c #5B70AD",
"z#	c #8393C3",
"A#	c #CBD2E7",
"B#	c #D5DAEB",
"C#	c #D4D9EB",
"D#	c #D3D9EA",
"E#	c #93A0CB",
"F#	c #6C7FB8",
"G#	c #455DA2",
"H#	c #273C76",
"I#	c #030B20",
"J#	c #05102F",
"K#	c #1A2F64",
"L#	c #3C518C",
"M#	c #465FA2",
"N#	c #4E65A7",
"O#	c #4D64A6",
"P#	c #4B63A5",
"Q#	c #4A62A5",
"R#	c #3F589B",
"S#	c #334882",
"                                                                ",
"                      . + @ # $ % & * =                         ",
"                  - ; > , ' ) ! ~ ' , { ] ^ /                   ",
"              ( _ : < [ } | 1 2 3 4 5 6 7 8 9 0 a               ",
"            b c d e f g h i j k l m n o p q r s t u             ",
"          v w x y z g h A B < C D E F G H I J K L M N           ",
"        O , P Q z R S A T U [ [ V W X H I J Y Z ` l  ...        ",
"      +.c x Q i @.5 #.$.%.i &.&.*.=.-.;.J >.,.'.).!.~.{.].      ",
"      ^.j /.(.@.5 #._.:.<.[.}.&.|.1.;.2.>.,.'.3.4.5.6.7.8.      ",
"    - , 9.0.a.| b.c.0.d.e.@.f.g.h.~.i.j.k.l.m.n.o.p.q.~ r.s.    ",
"    t.x u.v.w.x.h.g.y.z.z.A.B.k x C.j D.E.F.[ V G.W H.I.J.K.    ",
"  L.M.N.d.O.P.Q.R.S.T.U.V.W.k h.x.l X.Y.Z.`. +q .+++@+#+' $+%+  ",
"  &+*+=+-+9 ;+ +` >+,+'+)+!+h.x.C.~+{+]+^+/+(+_+:+<+#+[+z }+|+  ",
"  1+2+3+4+;+5+` >+,+'+6+7+8+x.C.~+C 9+3.0+(+a+b+c+#+d+e+f+g+h+  ",
"  i+B.j+k+l+m+>+n+o+6+p+q+r+~+~+C D.s+t+u+v+w+x+y+z+A+B+C+D+E+  ",
"  F+! G+H+I+J+n+o+6+K+q+L+B C M+N+O+`.P+Q+R+S+T+U+V+W+X+Y+Q.Z+  ",
"  `+~  @I+.@+@@@6+K+#@L+$@M.N+D E.m 5+%@&@*@=@-@[+;@>@,@Y+Q.'@  ",
"  )@!@q ~@{@]@^@/@(@_@:@<@E.[@m F.}@%.a+b+<+#+d+;@|@1@Y+H.D+2@  ",
"  3@N.4@5@6@7@8@(@_@9@<@Z 0@}@.+a@b@c@d@x+y+z+e+e@f@Y+Y+g@g+h@  ",
"  i@/.j@o+7@8@q+k@l@m@,.n@[ [ o@p@q@r@s@T+t@V+W+u@Y+Y+Y+v.v@w@  ",
"  x@] 2 y@q+f+2.$@z@C+A@p B@q@C@p+G.D@T+E@[+;@>@F@Y+Y+Y+r G@H@  ",
"    0 d o+I@n@J@>.K@L@M@p+G.G.N@O@&.&.#+d+;@P@1@Y+Y+Y+7+v.Q@    ",
"    R@S@Q.T@J@U@o@Z V@W@5+&.r@X@W@|.Y@:+e+e@f@Y+Y+Y+Y+r Z@`@    ",
"       #.#+#@#o@,.##$#%#%.|.}.w+&#*#=#H.W+u@Y+Y+Y+Y+g+;+-#;#    ",
"      >#,#2+6+C+'#'.)#!#-.*#~#S+T+=.=.'#>@Y+Y+Y+Y+7+, {#]#      ",
"        ^#/#(#K+M@_#:#<#[#=.}#<+#+|#1#2#1@Y+Y+Y+7+< 3#4#        ",
"          5#6#W.7#).4.(+8#9#0##+a#b#c#d#Y+Y+Y+g+, e#f#          ",
"            g#h#i#=+j#v+p k#l#z+V+V@m#(+Y+H., ;+n#o#            ",
"              p#q#r#s#} g+n@E@V+W+#+H.g+r D+t#u#v#              ",
"                w#x#y#z#~@A#B#C#D#Q.v.E#F#G#H#I#                ",
"                    J#K#L#M#N#O#P#Q#R#S#]#I#                    ",
"                                                                "};
