/* XPM */
static char * flar2kut_xpm[] = {
"32 32 297 2",
"  	c None",
". 	c #767978",
"+ 	c #717473",
"@ 	c #8D908F",
"# 	c #858889",
"$ 	c #6D7171",
"% 	c #9DA09E",
"& 	c #8E9291",
"* 	c #808483",
"= 	c #CECECE",
"- 	c #EDEDED",
"; 	c #FFFFFF",
"> 	c #BABBB9",
", 	c #ABACAB",
"' 	c #9B9D9B",
") 	c #898987",
"! 	c #7F817F",
"~ 	c #CDCDCD",
"{ 	c #EEEEEE",
"] 	c #FEFEFE",
"^ 	c #EFEFEF",
"/ 	c #EAEAEA",
"( 	c #EBEBEB",
"_ 	c #C3C4C3",
": 	c #B3B5B3",
"< 	c #9FA19F",
"[ 	c #898C8B",
"} 	c #7A7D7C",
"| 	c #646765",
"1 	c #F8F8F8",
"2 	c #F5F5F5",
"3 	c #E8E8E8",
"4 	c #E9E9E9",
"5 	c #F1F1F1",
"6 	c #CFD0CF",
"7 	c #C2C3C3",
"8 	c #B0B2B1",
"9 	c #9A9C9C",
"0 	c #838584",
"a 	c #717372",
"b 	c #747876",
"c 	c #888B8A",
"d 	c #F9F9F9",
"e 	c #BCBDBE",
"f 	c #BEC0C0",
"g 	c #B6B7B7",
"h 	c #A4A6A6",
"i 	c #969A9A",
"j 	c #828687",
"k 	c #757878",
"l 	c #727575",
"m 	c #767B79",
"n 	c #777C7B",
"o 	c #6D7170",
"p 	c #BFC0C0",
"q 	c #E7E7E7",
"r 	c #F0F0F0",
"s 	c #D8D8D8",
"t 	c #959897",
"u 	c #A2A4A4",
"v 	c #A9ABAB",
"w 	c #A8AAAA",
"x 	c #A3A5A4",
"y 	c #999B9A",
"z 	c #8C908F",
"A 	c #7A7C7D",
"B 	c #797D7D",
"C 	c #747776",
"D 	c #6C6F6E",
"E 	c #767A79",
"F 	c #737675",
"G 	c #494E4E",
"H 	c #FAFAFA",
"I 	c #B1B1B1",
"J 	c #7E817F",
"K 	c #858785",
"L 	c #8B8D8C",
"M 	c #979896",
"N 	c #9C9E9D",
"O 	c #949694",
"P 	c #898A88",
"Q 	c #828482",
"R 	c #737471",
"S 	c #767877",
"T 	c #797C79",
"U 	c #737472",
"V 	c #737574",
"W 	c #777875",
"X 	c #464846",
"Y 	c #434643",
"Z 	c #FCFCFC",
"` 	c #C9CAC9",
" .	c #979997",
"..	c #767977",
"+.	c #848684",
"@.	c #818483",
"#.	c #858887",
"$.	c #828582",
"%.	c #797C7A",
"&.	c #787A78",
"*.	c #777A79",
"=.	c #747774",
"-.	c #777B78",
";.	c #747673",
">.	c #5D615F",
",.	c #515755",
"'.	c #404541",
").	c #373B38",
"!.	c #F2F2F2",
"~.	c #D9DADA",
"{.	c #6F716F",
"].	c #6F7271",
"^.	c #696C6A",
"/.	c #626563",
"(.	c #707371",
"_.	c #6C706F",
":.	c #3E4240",
"<.	c #494D4B",
"[.	c #474C49",
"}.	c #424644",
"|.	c #4D504F",
"1.	c #F7F7F7",
"2.	c #BBBCBC",
"3.	c #757979",
"4.	c #434849",
"5.	c #4B5050",
"6.	c #434746",
"7.	c #484D4B",
"8.	c #484E4E",
"9.	c #3D4243",
"0.	c #464B4B",
"a.	c #454947",
"b.	c #3E4341",
"c.	c #404646",
"d.	c #424746",
"e.	c #454948",
"f.	c #444948",
"g.	c #4D5251",
"h.	c #969999",
"i.	c #F3F3F3",
"j.	c #E3E3E3",
"k.	c #B1B3B3",
"l.	c #828686",
"m.	c #3F4344",
"n.	c #4C5151",
"o.	c #474A4A",
"p.	c #3D4241",
"q.	c #434848",
"r.	c #414545",
"s.	c #464A4A",
"t.	c #4A4E4D",
"u.	c #3D4140",
"v.	c #464949",
"w.	c #454847",
"x.	c #565A58",
"y.	c #646868",
"z.	c #DDDEDE",
"A.	c #B3B3B3",
"B.	c #CFCFCF",
"C.	c #676967",
"D.	c #464A48",
"E.	c #505451",
"F.	c #424542",
"G.	c #474A48",
"H.	c #4B4D4A",
"I.	c #464948",
"J.	c #4C4F4C",
"K.	c #494C49",
"L.	c #454846",
"M.	c #444643",
"N.	c #525452",
"O.	c #6C6E6B",
"P.	c #929493",
"Q.	c #B1B2B1",
"R.	c #444847",
"S.	c #424541",
"T.	c #4C504D",
"U.	c #454744",
"V.	c #454745",
"W.	c #4B4F4E",
"X.	c #40433F",
"Y.	c #4C504C",
"Z.	c #4D4F4B",
"`.	c #404341",
" +	c #4C5050",
".+	c #5E625F",
"++	c #767876",
"@+	c #929492",
"#+	c #A5A6A5",
"$+	c #ACADAD",
"%+	c #8C8C8C",
"&+	c #8E9190",
"*+	c #4B4F4D",
"=+	c #474B48",
"-+	c #3B3E3C",
";+	c #484C49",
">+	c #444845",
",+	c #404441",
"'+	c #656967",
")+	c #7F8381",
"!+	c #989A99",
"~+	c #B2B3B2",
"{+	c #C8CAC9",
"]+	c #707372",
"^+	c #434846",
"/+	c #474E4D",
"(+	c #424646",
"_+	c #454A4B",
":+	c #585A59",
"<+	c #7D8180",
"[+	c #929595",
"}+	c #C1C1C2",
"|+	c #E6E6E6",
"1+	c #C1C2C2",
"2+	c #3C403F",
"3+	c #474C4C",
"4+	c #474A49",
"5+	c #3C3F3F",
"6+	c #4E5454",
"7+	c #585B5B",
"8+	c #6C6F6F",
"9+	c #979999",
"0+	c #C4C5C6",
"a+	c #FDFDFD",
"b+	c #B9B9B9",
"c+	c #7D7E7D",
"d+	c #9A9B9A",
"e+	c #4D514E",
"f+	c #484B49",
"g+	c #4D524F",
"h+	c #444744",
"i+	c #4A4E4C",
"j+	c #555A58",
"k+	c #5E6260",
"l+	c #828583",
"m+	c #E2E2E2",
"n+	c #BABAB9",
"o+	c #818380",
"p+	c #424443",
"q+	c #4C4F4B",
"r+	c #4E504C",
"s+	c #4D504D",
"t+	c #50524E",
"u+	c #5C5D5A",
"v+	c #636564",
"w+	c #FBFBFB",
"x+	c #A7A7A7",
"y+	c #CACAC9",
"z+	c #565957",
"A+	c #424645",
"B+	c #464A47",
"C+	c #484C4A",
"D+	c #444745",
"E+	c #444846",
"F+	c #494D4A",
"G+	c #6E6F6F",
"H+	c #A4A7A7",
"I+	c #444747",
"J+	c #3D413E",
"K+	c #494E4B",
"L+	c #404544",
"M+	c #494C4D",
"N+	c #393C3A",
"O+	c #3E4342",
"P+	c #959595",
"Q+	c #A5A7A6",
"R+	c #868A8A",
"S+	c #454848",
"T+	c #474D4C",
"U+	c #454949",
"V+	c #3E4343",
"W+	c #494D4E",
"X+	c #4C4F4F",
"Y+	c #D7D8D7",
"Z+	c #CFD0D0",
"`+	c #686C6B",
" @	c #4F5453",
".@	c #494E4C",
"+@	c #3E413F",
"@@	c #4C504F",
"#@	c #999A99",
"$@	c #686868",
"%@	c #B4B5B3",
"&@	c #4A4D49",
"*@	c #484945",
"=@	c #4B4E4C",
"-@	c #40413F",
";@	c #969796",
">@	c #D4D4D4",
",@	c #8F908F",
"'@	c #8E918F",
")@	c #3F4340",
"!@	c #3B3F3C",
"~@	c #DEDEDE",
"{@	c #CACBCA",
"]@	c #676B6A",
"^@	c #C7C7C7",
"                                                                ",
"                . +                                             ",
"                @ # $                                           ",
"                % & *           = - ;                           ",
"              > , ' ) !     ~ { ] ^ / (                         ",
"              _ : < [ } | { 1 2 3 ; 4 5 =                       ",
"            6 7 8 9 0 a b c 5 ; ( 4 ; 3 d                       ",
"          e f g h i j k l m n o p q r ; s                       ",
"      t u v w x y z A B C D E F G q 3 H I                       ",
"    J K L M N O P Q R S T U V W X Y Z 4 ;                       ",
"  `  ...+.@.#.$.%.&...*.=.-.;.>.,.'.).!.3 ;                     ",
"    ~.0 {.b C ].^./.C *.(.*._.:.<.[.}.|./ / 1.                  ",
"      2.3.4.5.6.7.8.9.0.a.b.8.c.d.e.f.g.h.3 i.j.                ",
"      k.l.m.n.o.p.q.r.s.t.u.p.v.0.w.x.y.l z.4 Z A.              ",
"        B.C.D.E.F.G.H.I.J.K.L.M.|.N.O.0 P P.H 4 ;               ",
"          Q.R.S.T.U.V.W.X.Y.Z.`. +.+++@+#+$+; r q ;             ",
"          %+&+}.*+=+-+<.;+>+*+,+w.'+)+!+~+` 3 ; 3 ( ]           ",
"            {+]+^+/+q.(+a.a.c._+s.:+<+[+v }+/ ( ; 3 2 |+        ",
"              1+5.2+3+0.4+q.5+s.6+7+8+#.9+0+; q 2 ] 4 a+b+      ",
"              c+d+>+H.e+*+f+g+h+i+j+k+*.l+m+Z ] 4 a+1.3 ;       ",
"                n+o+p+D.q+M.r+f+`.s+t+u+v+w+3 ; 1 3 ; ^ x+      ",
"                  y+z+A+B+C+F.D+E+,+F+=+a ; r 3 ; - -           ",
"                  G+H+I+J+K+L+(+M+N+D.O+5 - ; 3 !.P+            ",
"                    Q+R+S+T+U+V+W+X+q.Y+; 3 1 (                 ",
"                      Z+`+e. @.@+@@@#@3 ; ] $@                  ",
"                        %@&@*@=@-@;@; 5 >@                      ",
"                        ,@'@)@!@~@/ 2                           ",
"                          {@]@5 ] ^@                            ",
"                            ; d                                 ",
"                                                                ",
"                                                                ",
"                                                                "};
