/* XPM */
static char * flprodproc_xpm[] = {
"32 32 478 2",
"  	c None",
". 	c #868686",
"+ 	c #8F8F8F",
"@ 	c #898989",
"# 	c #888888",
"$ 	c #878787",
"% 	c #858585",
"& 	c #848484",
"* 	c #838383",
"= 	c #808080",
"- 	c #7C7C7C",
"; 	c #787878",
"> 	c #666666",
", 	c #5D5D5D",
"' 	c #FFFFFF",
") 	c #FAFAFA",
"! 	c #F8F8F7",
"~ 	c #FEFEFD",
"{ 	c #ECECEB",
"] 	c #C5C5C5",
"^ 	c #919191",
"/ 	c #989898",
"( 	c #EEEEEE",
"_ 	c #F2F1EF",
": 	c #F6F6F6",
"< 	c #E5E8EF",
"[ 	c #DDE1E9",
"} 	c #D9DEE9",
"| 	c #D3DAE7",
"1 	c #D0D8E6",
"2 	c #CCD6E6",
"3 	c #C9D3E6",
"4 	c #C5D0E5",
"5 	c #C1CDE2",
"6 	c #BECBE1",
"7 	c #BBC8DF",
"8 	c #B7C4DD",
"9 	c #B4C2DA",
"0 	c #B1C0D8",
"a 	c #B0BED7",
"b 	c #AEBCD4",
"c 	c #ADBACF",
"d 	c #C8D0DD",
"e 	c #F0F0F1",
"f 	c #E0E0DF",
"g 	c #B8B8B8",
"h 	c #494949",
"i 	c #9F9F9F",
"j 	c #E9E7E5",
"k 	c #D6DEEA",
"l 	c #7CA5E0",
"m 	c #83ACE1",
"n 	c #80A9E0",
"o 	c #83ACE2",
"p 	c #85AEE3",
"q 	c #87B0E5",
"r 	c #8BB3E6",
"s 	c #8CB5E7",
"t 	c #8EB7E8",
"u 	c #8FB8E9",
"v 	c #90B8EA",
"w 	c #91B9EA",
"x 	c #92BAEA",
"y 	c #90B9EA",
"z 	c #90B8E9",
"A 	c #8FB7E8",
"B 	c #8CB4E7",
"C 	c #6995D7",
"D 	c #567AB0",
"E 	c #D8D9DA",
"F 	c #BDBCBC",
"G 	c #444444",
"H 	c #9D9D9D",
"I 	c #F2EEE8",
"J 	c #94B1DE",
"K 	c #3071D7",
"L 	c #ABD2F8",
"M 	c #D1F1FF",
"N 	c #CAEBFF",
"O 	c #C9EBFF",
"P 	c #C9EAFF",
"Q 	c #C8E9FF",
"R 	c #C7E8FF",
"S 	c #C6E7FF",
"T 	c #C4E6FF",
"U 	c #C3E6FF",
"V 	c #C3E5FF",
"W 	c #C1E4FF",
"X 	c #C1E3FF",
"Y 	c #BDE0FF",
"Z 	c #5E8FD2",
"` 	c #174993",
" .	c #ABB1BA",
"..	c #BFBEBC",
"+.	c #3F3F3F",
"@.	c #9F9E9E",
"#.	c #F1EEE9",
"$.	c #7FA5DE",
"%.	c #2469D2",
"&.	c #4A82DB",
"*.	c #84AEF4",
"=.	c #8EB6FB",
"-.	c #8AB3FA",
";.	c #89B2F9",
">.	c #87B1F8",
",.	c #86AEF8",
"'.	c #84AEF8",
").	c #83ADF7",
"!.	c #82ACF7",
"~.	c #81ABF7",
"{.	c #80ABF6",
"].	c #7FAAF6",
"^.	c #80ABF7",
"/.	c #4F83D4",
"(.	c #205AB1",
"_.	c #1E509A",
":.	c #9FA9B7",
"<.	c #BCBBB8",
"[.	c #3B3B3B",
"}.	c #9F9F9E",
"|.	c #EDECE9",
"1.	c #739FDD",
"2.	c #276BD2",
"3.	c #3A76D5",
"4.	c #467DD7",
"5.	c #5688DE",
"6.	c #5587DD",
"7.	c #5487DC",
"8.	c #5385DC",
"9.	c #5285DB",
"0.	c #5185DA",
"a.	c #5184DA",
"b.	c #5084DA",
"c.	c #5083D9",
"d.	c #5082D9",
"e.	c #4F82D9",
"f.	c #5083DA",
"g.	c #4479D1",
"h.	c #2F69C0",
"i.	c #2761B6",
"j.	c #1C509B",
"k.	c #95A1B3",
"l.	c #BAB8B5",
"m.	c #373737",
"n.	c #EDEBEA",
"o.	c #6E9BDE",
"p.	c #3C78D6",
"q.	c #427AD5",
"r.	c #3F78D1",
"s.	c #3F77CF",
"t.	c #3F76CE",
"u.	c #3A71C9",
"v.	c #316AC2",
"w.	c #2660B5",
"x.	c #93A0B2",
"y.	c #B4B2AF",
"z.	c #333333",
"A.	c #9F9E9D",
"B.	c #EBEBE9",
"C.	c #6B99DD",
"D.	c #286CD2",
"E.	c #3C78D5",
"F.	c #4178D1",
"G.	c #4077CF",
"H.	c #3A72CA",
"I.	c #306AC1",
"J.	c #255FB4",
"K.	c #1D509A",
"L.	c #96A2B1",
"M.	c #AFADAA",
"N.	c #2B2B2B",
"O.	c #9E9D9C",
"P.	c #EBEAE9",
"Q.	c #6998DD",
"R.	c #286CD1",
"S.	c #3069C0",
"T.	c #255EB3",
"U.	c #1D5099",
"V.	c #9CA5B3",
"W.	c #A7A5A2",
"X.	c #212121",
"Y.	c #9D9D9C",
"Z.	c #EAEAE9",
"`.	c #6897DD",
" +	c #3C77D5",
".+	c #3971C9",
"++	c #2E68BF",
"@+	c #235DB2",
"#+	c #205096",
"$+	c #A4AAB4",
"%+	c #A19F9D",
"&+	c #9C9C9B",
"*+	c #EAE9E8",
"=+	c #276BD1",
"-+	c #3B77D4",
";+	c #427AD4",
">+	c #3870C8",
",+	c #2D68BE",
"'+	c #235DB0",
")+	c #225092",
"!+	c #ACB0B6",
"~+	c #9A9997",
"{+	c #9B9B9A",
"]+	c #6B9ADE",
"^+	c #266BD0",
"/+	c #3A76D4",
"(+	c #4178CF",
"_+	c #376FC7",
":+	c #2C67BD",
"<+	c #215BAF",
"[+	c #25508D",
"}+	c #B4B5B8",
"|+	c #939392",
"1+	c #999998",
"2+	c #E9E8E6",
"3+	c #6F9DDF",
"4+	c #266AD0",
"5+	c #4179D4",
"6+	c #4177CF",
"7+	c #3D75CE",
"8+	c #3A73CC",
"9+	c #366EC6",
"0+	c #2B65BD",
"a+	c #1F59AD",
"b+	c #2D548B",
"c+	c #B8B8B9",
"d+	c #8C8B8A",
"e+	c #989897",
"f+	c #EAE8E6",
"g+	c #74A0E0",
"h+	c #2469D0",
"i+	c #3975D4",
"j+	c #3E75CE",
"k+	c #3B74CD",
"l+	c #3770CA",
"m+	c #326DC7",
"n+	c #2E6AC4",
"o+	c #2B68C3",
"p+	c #2A67C0",
"q+	c #2964BA",
"r+	c #1A53A6",
"s+	c #3D6092",
"t+	c #CFCECD",
"u+	c #828281",
"v+	c #969695",
"w+	c #EAE8E5",
"x+	c #7CA5E2",
"y+	c #2368CF",
"z+	c #3875D4",
"A+	c #4079D4",
"B+	c #4179D1",
"C+	c #3F76CF",
"D+	c #3C74CD",
"E+	c #3871CB",
"F+	c #336DC7",
"G+	c #2F6BC5",
"H+	c #2C69C3",
"I+	c #2967C1",
"J+	c #2765BF",
"K+	c #2764BE",
"L+	c #2764BD",
"M+	c #2562BA",
"N+	c #1D59AF",
"O+	c #154790",
"P+	c #9FAEC4",
"Q+	c #DFDEDB",
"R+	c #757574",
"S+	c #949494",
"T+	c #ECE8E4",
"U+	c #86ABE4",
"V+	c #2167CE",
"W+	c #3674D3",
"X+	c #3E76CF",
"Y+	c #346FC9",
"Z+	c #316CC6",
"`+	c #2D69C3",
" @	c #2A67C1",
".@	c #2866C0",
"+@	c #2662BB",
"@@	c #2360B8",
"#@	c #1E5AB1",
"$@	c #1752A9",
"%@	c #1A52A4",
"&@	c #2E5DA0",
"*@	c #A4B4CB",
"=@	c #F3F2F0",
"-@	c #C1C2C2",
";@	c #686869",
">@	c #929291",
",@	c #EEEAE3",
"'@	c #92B4E6",
")@	c #1D64CC",
"!@	c #3574D3",
"~@	c #3B75D0",
"{@	c #2E6BC5",
"]@	c #2A67C2",
"^@	c #2966C0",
"/@	c #2865BF",
"(@	c #2763BC",
"_@	c #2561B8",
":@	c #215DB5",
"<@	c #1955AC",
"[@	c #1851A3",
"}@	c #2658A1",
"|@	c #4970AA",
"1@	c #7996BE",
"2@	c #AEBDD4",
"3@	c #DFE3E9",
"4@	c #E7E5E1",
"5@	c #C9C8C4",
"6@	c #BABBB8",
"7@	c #5F5F5F",
"8@	c #909090",
"9@	c #E8E5DF",
"0@	c #A6C1E9",
"a@	c #2267CD",
"b@	c #3070CF",
"c@	c #2A68C2",
"d@	c #2763BD",
"e@	c #235FB7",
"f@	c #1C58AF",
"g@	c #1650A5",
"h@	c #2055A1",
"i@	c #325FA0",
"j@	c #6484B3",
"k@	c #9FB1CC",
"l@	c #D7DEE6",
"m@	c #F3F3F3",
"n@	c #F7F5F1",
"o@	c #EBE9E5",
"p@	c #D4D4CE",
"q@	c #C5C9B3",
"r@	c #BDC99F",
"s@	c #BBC2A2",
"t@	c #5B5F52",
"u@	c #D6D4D2",
"v@	c #D9E2F0",
"w@	c #487ED1",
"x@	c #2F6AC4",
"y@	c #1857B1",
"z@	c #1955AD",
"A@	c #1D54A3",
"B@	c #2B5BA1",
"C@	c #5579AD",
"D@	c #8DA3C4",
"E@	c #C6D0DD",
"F@	c #EDEEF1",
"G@	c #FBFAF8",
"H@	c #FEFDFA",
"I@	c #EDECEA",
"J@	c #E1E1E0",
"K@	c #D6D6D6",
"L@	c #CBCBCB",
"M@	c #CACCB9",
"N@	c #6ED25A",
"O@	c #28BE1D",
"P@	c #7DB256",
"Q@	c #666E42",
"R@	c #8E8E8E",
"S@	c #C9C9C9",
"T@	c #E7E5E3",
"U@	c #C7D4E8",
"V@	c #789AC9",
"W@	c #6084B9",
"X@	c #6F8DB9",
"Y@	c #93A7C7",
"Z@	c #B7C3D6",
"`@	c #E3E7EC",
" #	c #FBFAF9",
".#	c #FDFAF6",
"+#	c #EDEBE9",
"@#	c #E1E0DF",
"##	c #DDDDDD",
"$#	c #C7C7C7",
"%#	c #D4D2D2",
"&#	c #BAC5A2",
"*#	c #35D92B",
"=#	c #08CF12",
"-#	c #47A62A",
";#	c #6D7A32",
">#	c #8C8C8C",
",#	c #D1D1D1",
"'#	c #E3E1DD",
")#	c #F1EEEB",
"!#	c #F5F3F2",
"~#	c #FBF8F5",
"{#	c #FEFBF7",
"]#	c #F8F5F3",
"^#	c #EEEEEC",
"/#	c #E4E4E3",
"(#	c #F7F7F7",
"_#	c #FBFBFB",
":#	c #EBEBEB",
"<#	c #B4B4B4",
"[#	c #B2B2B2",
"}#	c #BFBFBF",
"|#	c #BCBCBC",
"1#	c #DADBDA",
"2#	c #C2C4AE",
"3#	c #7EBF5B",
"4#	c #48B62A",
"5#	c #91BD5B",
"6#	c #5E6D2F",
"7#	c #C4C4C4",
"8#	c #CECECE",
"9#	c #CFCFCF",
"0#	c #D2D1D1",
"a#	c #D7D7D6",
"b#	c #DBDBDA",
"c#	c #DBDBDB",
"d#	c #DEDEDE",
"e#	c #E0E0E0",
"f#	c #EDEDED",
"g#	c #979797",
"h#	c #AEAEAE",
"i#	c #B3B3B3",
"j#	c #C7C8C8",
"k#	c #B9BBB3",
"l#	c #BCBFA1",
"m#	c #C4C999",
"n#	c #A0A87C",
"o#	c #7E7E7E",
"p#	c #C1C1C1",
"q#	c #CACACA",
"r#	c #CCCCCC",
"s#	c #CDCDCD",
"t#	c #D9D9D9",
"u#	c #B6B6B6",
"v#	c #DADADA",
"w#	c #F8F8F8",
"x#	c #E7E7E7",
"y#	c #939393",
"z#	c #A2A2A2",
"A#	c #BABABA",
"B#	c #B9B9B9",
"C#	c #BBBBBB",
"D#	c #B8B8B5",
"E#	c #9A9B96",
"F#	c #3D3E38",
"G#	c #6E6E6E",
"H#	c #C0C0C0",
"I#	c #C8C8C8",
"J#	c #D2D2D2",
"K#	c #C6C6C6",
"L#	c #BEBEBE",
"M#	c #F1F1F1",
"N#	c #A8A8A8",
"O#	c #C2C2C2",
"P#	c #ADADAD",
"Q#	c #6B6B6C",
"R#	c #1D1D1E",
"S#	c #6D6D6D",
"T#	c #BDBDBD",
"U#	c #D8D8D8",
"V#	c #A0A0A0",
"W#	c #6A6A6A",
"X#	c #6B6B6B",
"Y#	c #B7B7B7",
"Z#	c #C3C3C3",
"`#	c #999999",
" $	c #797979",
".$	c #3D3D3D",
"+$	c #9B9B9B",
"@$	c #717171",
"#$	c #414141",
"$$	c #5B5B5B",
"%$	c #A9A9A9",
"&$	c #ACACAC",
"*$	c #9A9A9A",
"=$	c #757575",
"-$	c #A3A3A3",
";$	c #A7A7A7",
">$	c #676767",
",$	c #424242",
"'$	c #595959",
")$	c #606060",
"!$	c #555555",
"~$	c #363636",
"          . + @ @ @ # $ $ % & * = = - ; > , ,                   ",
"        ' ) ! ~ ' ' ' ' ' ' ' ' ' ' ' ' ' ' ' ' ' { ] ^         ",
"      / ( _ : < [ } | 1 2 3 4 5 6 7 8 9 0 a b c d e f g h       ",
"      i j k l m n o p q r s t u v w x x y z A B C D E F G       ",
"      H I J K L M N O P Q R S T U V V W W X V Y Z `  ...+.      ",
"      @.#.$.%.&.*.=.-.;.>.,.'.).!.~.{.].].^.]./.(._.:.<.[.      ",
"      }.|.1.2.3.4.5.5.6.7.8.9.0.a.b.c.d.e.f.g.h.i.j.k.l.m.      ",
"      }.n.o.2.p.q.r.s.s.s.t.t.t.t.t.t.t.t.t.u.v.w.j.x.y.z.      ",
"      A.B.C.D.E.q.F.G.G.G.G.G.G.G.G.G.G.G.G.H.I.J.K.L.M.N.      ",
"      O.P.Q.R.E.q.F.G.G.G.G.G.G.G.G.G.G.G.G.u.S.T.U.V.W.X.      ",
"      Y.Z.`.R. +q.F.G.G.G.G.G.G.G.G.G.G.G.G..+++@+#+$+%+        ",
"      &+*+Q.=+-+;+F.G.G.G.G.G.G.G.G.G.G.G.G.>+,+'+)+!+~+        ",
"      {+*+]+^+/+;+F.G.G.G.G.G.G.G.G.G.G.(+G._+:+<+[+}+|+        ",
"      1+2+3+4+/+5+F.G.G.G.G.G.G.6+(+G.s.7+8+9+0+a+b+c+d+        ",
"      e+f+g+h+i+5+F.G.G.6+(+6+s.j+k+l+m+n+o+p+q+r+s+t+u+        ",
"      v+w+x+y+z+A+B+6+G.C+D+E+F+G+H+I+J+K+L+M+N+O+P+Q+R+        ",
"      S+T+U+V+W+A+X+E+Y+Z+`+ @.@K+L++@@@#@$@%@&@*@=@-@;@        ",
"      >@,@'@)@!@~@{@]@^@/@K+(@_@:@<@[@}@|@1@2@3@4@5@6@7@        ",
"      8@9@0@a@b@c@L+d@M+e@f@g@h@i@j@k@l@m@n@o@p@q@r@s@t@        ",
"      + u@v@w@x@y@z@g@A@B@C@D@E@F@G@H@I@J@K@L@M@N@O@P@Q@        ",
"      R@S@T@U@V@W@X@Y@Z@`@ #.#+#@#L@S@##K@$#%#&#*#=#-#;#        ",
"      >#$#,#'#)#!#~#{#]#^#/###(#_#:#<#[#}#|#1#2#3#4#5#6#        ",
"      @ 7#8#9#0#a#b#c#d#e#L@f#' ' ' e#g#h#i#j#k#l#m#n#          ",
"      o#p#q#r#8#,#8#8#s#t#u#v#' ' w#x#y#z#A#B#C#D#E#F#          ",
"      G#H#] I#I#S@C#t#J#K#i#L#: m@M#r#o#N#O#H#P#Q#R#            ",
"      S#T#T#q#K@|#[#8#K#}#7#i p#U#] @ 8@<#V#W#N.                ",
"      X#A#A#B#I#}#Y#C#H#Z#$#u#`#8@*  $W#.$                      ",
"      X#Y#|#B#T#}#H#}#}#}#L#Y#+$@$#$                            ",
"      $$%$g A#C#B#u#[#&$*$=$G                                   ",
"        >#-$%$;$H @ >$,$                                        ",
"          '$)$!$~$                                              ",
"                                                                "};
