/* XPM */
static char * floppy_xpm[] = {
"32 32 490 2",
"  	c None",
". 	c #000086",
"+ 	c #000691",
"@ 	c #000A93",
"# 	c #000792",
"$ 	c #000791",
"% 	c #000993",
"& 	c #000C94",
"* 	c #00058E",
"= 	c #000068",
"- 	c #000087",
"; 	c #193EBD",
"> 	c #589BED",
", 	c #699CEA",
"' 	c #9CB3E3",
") 	c #9DB6E8",
"! 	c #9BB5E8",
"~ 	c #9AB3E7",
"{ 	c #98B3E6",
"] 	c #97B1E6",
"^ 	c #96B1E5",
"/ 	c #95B1E5",
"( 	c #97B1E4",
"_ 	c #97B1E3",
": 	c #97B0E3",
"< 	c #97B0E2",
"[ 	c #97B1E2",
"} 	c #9AB2E1",
"| 	c #89A4D7",
"1 	c #4B8EEC",
"2 	c #3782EC",
"3 	c #0A24B0",
"4 	c #00003D",
"5 	c #00058D",
"6 	c #5B97ED",
"7 	c #9AD8FF",
"8 	c #9DC5F5",
"9 	c #FCF8F0",
"0 	c #FFFFFF",
"a 	c #FDFFFF",
"b 	c #FAFEFF",
"c 	c #F8FBFF",
"d 	c #F5FAFF",
"e 	c #F3F9FF",
"f 	c #F6FAFF",
"g 	c #F8FDFF",
"h 	c #FAFDFF",
"i 	c #FCFEFF",
"j 	c #DDDDDD",
"k 	c #6DABF4",
"l 	c #60B3F8",
"m 	c #2864DC",
"n 	c #00004D",
"o 	c #00078E",
"p 	c #5E98EC",
"q 	c #8ECCFF",
"r 	c #97BFF3",
"s 	c #F0EFEE",
"t 	c #F4F7FF",
"u 	c #F2F6FF",
"v 	c #EFF3FF",
"w 	c #ECF2FF",
"x 	c #EAF1FF",
"y 	c #E7EDFF",
"z 	c #E5EDFF",
"A 	c #E8EEFF",
"B 	c #EAF0FF",
"C 	c #ECF1FF",
"D 	c #EEF3FF",
"E 	c #F0F4FF",
"F 	c #F4F8FF",
"G 	c #FBFBFC",
"H 	c #D4D7DE",
"I 	c #5892DA",
"J 	c #2973B8",
"K 	c #2761D9",
"L 	c #00004F",
"M 	c #5E97EB",
"N 	c #8BCAFF",
"O 	c #99C1F4",
"P 	c #F3F1EF",
"Q 	c #FBFDFF",
"R 	c #F7F9FF",
"S 	c #F5F7FF",
"T 	c #EFF4FF",
"U 	c #EDF2FF",
"V 	c #E6EDFF",
"W 	c #E8EFFF",
"X 	c #F1F5FF",
"Y 	c #F3F7FF",
"Z 	c #F9FAFD",
"` 	c #D3D5DB",
" .	c #64A2F1",
"..	c #48A0F7",
"+.	c #2C67DF",
"@.	c #00004C",
"#.	c #00088E",
"$.	c #5F98EB",
"%.	c #89C8FF",
"&.	c #9BC2F5",
"*.	c #F5F2EF",
"=.	c #FEFFFF",
"-.	c #FAFCFF",
";.	c #F5F8FF",
">.	c #EBF1FF",
",.	c #F6F8FD",
"'.	c #D2D6DC",
").	c #6CA8F6",
"!.	c #59ADFF",
"~.	c #306ADE",
"{.	c #01098E",
"].	c #5F99EB",
"^.	c #87C7FF",
"/.	c #9DC4F5",
"(.	c #F6F3F0",
"_.	c #FDFDFF",
":.	c #FAFBFF",
"<.	c #F3F6FF",
"[.	c #F4F7FD",
"}.	c #D4D7DC",
"|.	c #6BA8F6",
"1.	c #53A9FF",
"2.	c #326BDE",
"3.	c #020A8E",
"4.	c #6099EB",
"5.	c #84C5FF",
"6.	c #A0C5F6",
"7.	c #F8F4F1",
"8.	c #F2F5FD",
"9.	c #D6D9DD",
"0.	c #6CA9F6",
"a.	c #50A7FF",
"b.	c #346CDE",
"c.	c #030A8E",
"d.	c #81C3FF",
"e.	c #A2C7F6",
"f.	c #F8F5F2",
"g.	c #FFFEFF",
"h.	c #FCFDFF",
"i.	c #FBFBFF",
"j.	c #F8FAFF",
"k.	c #F0F4FD",
"l.	c #D8D9DE",
"m.	c #6DAAF6",
"n.	c #4DA6FF",
"o.	c #356EDE",
"p.	c #040B8E",
"q.	c #619AEB",
"r.	c #7FC2FF",
"s.	c #A4CAF7",
"t.	c #FAF7F3",
"u.	c #EDF2FD",
"v.	c #D9DBE0",
"w.	c #6EA9F7",
"x.	c #4AA4FF",
"y.	c #386FDE",
"z.	c #050C8E",
"A.	c #619BEB",
"B.	c #7CC0FF",
"C.	c #A7CAF7",
"D.	c #FBF7F3",
"E.	c #FDFEFF",
"F.	c #FBFCFF",
"G.	c #F7FAFF",
"H.	c #F2F7FF",
"I.	c #EBF2FF",
"J.	c #E6EEFF",
"K.	c #EBF0FD",
"L.	c #DADCE1",
"M.	c #6EABF7",
"N.	c #47A2FF",
"O.	c #3970DE",
"P.	c #070D8E",
"Q.	c #78BEFF",
"R.	c #ABCEF7",
"S.	c #FFFAF3",
"T.	c #FFFFFE",
"U.	c #FFFFFD",
"V.	c #FCFDFC",
"W.	c #FAFAFC",
"X.	c #F7F8FC",
"Y.	c #F6F7FC",
"Z.	c #F3F4FC",
"`.	c #F0F3FC",
" +	c #EEF1FC",
".+	c #ECF0FC",
"++	c #EDEFFA",
"@+	c #DEDEDF",
"#+	c #6FACF7",
"$+	c #44A0FF",
"%+	c #3C72DE",
"&+	c #080D8E",
"*+	c #639BEB",
"=+	c #78BDFF",
"-+	c #A7CCFB",
";+	c #E3E9F3",
">+	c #DDE7F4",
",+	c #DCE6F3",
"'+	c #DBE5F2",
")+	c #DBE5F1",
"!+	c #D9E3F0",
"~+	c #D9E2EF",
"{+	c #D8E3EF",
"]+	c #D8E0ED",
"^+	c #D7DFED",
"/+	c #D5DFEB",
"(+	c #D5DEEA",
"_+	c #D3DCEA",
":+	c #D1DAE8",
"<+	c #D1DAE7",
"[+	c #D1D9E6",
"}+	c #D0D8E4",
"|+	c #71AEFB",
"1+	c #419EFF",
"2+	c #080E8E",
"3+	c #649BEB",
"4+	c #7ABEFF",
"5+	c #7BB8FF",
"6+	c #7DB9FF",
"7+	c #7CBAFF",
"8+	c #79B8FF",
"9+	c #78B7FF",
"0+	c #76B6FF",
"a+	c #75B5FF",
"b+	c #73B4FF",
"c+	c #71B3FF",
"d+	c #70B2FF",
"e+	c #6EB1FF",
"f+	c #6CB0FF",
"g+	c #6BAFFF",
"h+	c #69AEFF",
"i+	c #68AEFF",
"j+	c #67ADFF",
"k+	c #66ACFF",
"l+	c #62A9FF",
"m+	c #64A9FF",
"n+	c #509EFF",
"o+	c #449FFF",
"p+	c #3F74DE",
"q+	c #0A0F8E",
"r+	c #649CEB",
"s+	c #77BCFF",
"t+	c #6FB3FF",
"u+	c #6AAFFE",
"v+	c #579EF2",
"w+	c #4F97EF",
"x+	c #4E96F0",
"y+	c #4C96F0",
"z+	c #4993F0",
"A+	c #4793F0",
"B+	c #4490F2",
"C+	c #4290F4",
"D+	c #3F8FF5",
"E+	c #3E8DF8",
"F+	c #3C8CFA",
"G+	c #398AFC",
"H+	c #3789FD",
"I+	c #3D8EFE",
"J+	c #3C8EFE",
"K+	c #3F94FF",
"L+	c #3E96FF",
"M+	c #3E93FF",
"N+	c #449EFF",
"O+	c #4074DE",
"P+	c #0A108E",
"Q+	c #669CEB",
"R+	c #74B9FF",
"S+	c #71B6FF",
"T+	c #559BF0",
"U+	c #6584BF",
"V+	c #ADBAD3",
"W+	c #A6B5D3",
"X+	c #A6B5D6",
"Y+	c #A6B5D9",
"Z+	c #A6B5DD",
"`+	c #A5B5E0",
" @	c #A5B5E3",
".@	c #AAB8E6",
"+@	c #99ACE5",
"@@	c #1C51EE",
"#@	c #0B48F1",
"$@	c #3987FB",
"%@	c #449AFF",
"&@	c #3E94FF",
"*@	c #419DFF",
"=@	c #4376DE",
"-@	c #0C108E",
";@	c #669DEB",
">@	c #71B8FF",
",@	c #6EB4FF",
"'@	c #4C93ED",
")@	c #92A5CA",
"!@	c #FFFFF5",
"~@	c #FFFCF4",
"{@	c #FFFFF6",
"]@	c #FFFFF4",
"^@	c #FCF8F3",
"/@	c #FCF9F2",
"(@	c #FCF9F1",
"_@	c #FCF9F0",
":@	c #FFFEF0",
"<@	c #E9E8E7",
"[@	c #2B5DEA",
"}@	c #0C4AF2",
"|@	c #3887FC",
"1@	c #4198FF",
"2@	c #3B92FF",
"3@	c #3E9BFF",
"4@	c #4377DE",
"5@	c #01004C",
"6@	c #0D108E",
"7@	c #679EEB",
"8@	c #6FB7FF",
"9@	c #6CB3FF",
"0@	c #889EC8",
"a@	c #FDF8F2",
"b@	c #D3D6DF",
"c@	c #9FAFD2",
"d@	c #B9C2D9",
"e@	c #EEEDED",
"f@	c #EEEEEF",
"g@	c #EDEDEE",
"h@	c #F3F2F0",
"i@	c #DADBE5",
"j@	c #2F65EB",
"k@	c #1657F4",
"l@	c #3888FC",
"m@	c #3E95FF",
"n@	c #3991FF",
"o@	c #3B99FF",
"p@	c #4678DE",
"q@	c #0E128E",
"r@	c #689EEB",
"s@	c #6CB5FF",
"t@	c #69B1FF",
"u@	c #4A92ED",
"v@	c #8399C5",
"w@	c #FDF6EE",
"x@	c #9FAACD",
"y@	c #001FB7",
"z@	c #4764C8",
"A@	c #EBE9E8",
"B@	c #E7E7EB",
"C@	c #E6E6EA",
"D@	c #EBEAEB",
"E@	c #D3D5E0",
"F@	c #346CEC",
"G@	c #1D61F6",
"H@	c #388AFD",
"I@	c #3B93FF",
"J@	c #368FFF",
"K@	c #3997FF",
"L@	c #487ADE",
"M@	c #0F128E",
"N@	c #689FEB",
"O@	c #69B3FF",
"P@	c #66AFFF",
"Q@	c #4892F0",
"R@	c #7E94C6",
"S@	c #F5EEE6",
"T@	c #99A5CF",
"U@	c #0023CE",
"V@	c #4264D5",
"W@	c #E4E2E1",
"X@	c #DFDFE5",
"Y@	c #DEDEE5",
"Z@	c #E3E2E6",
"`@	c #CCCEDB",
" #	c #3973EC",
".#	c #246CF7",
"+#	c #378BFD",
"@#	c #3891FF",
"##	c #348DFF",
"$#	c #3696FF",
"%#	c #497ADE",
"&#	c #10138E",
"*#	c #69A0EB",
"=#	c #66B2FF",
"-#	c #64AEFF",
";#	c #4690F3",
">#	c #7A8FC9",
",#	c #EDE6E0",
"'#	c #919FD0",
")#	c #001FE6",
"!#	c #3D60E0",
"~#	c #DCDADC",
"{#	c #D8D8E1",
"]#	c #D7D7E1",
"^#	c #DCDAE1",
"/#	c #C5C7D7",
"(#	c #3E79EC",
"_#	c #2C76F9",
":#	c #378CFD",
"<#	c #358FFF",
"[#	c #318BFF",
"}#	c #3494FF",
"|#	c #4B7CDE",
"1#	c #02004C",
"2#	c #11148E",
"3#	c #6AA0EB",
"4#	c #63B0FF",
"5#	c #61ACFF",
"6#	c #4490F7",
"7#	c #758BCC",
"8#	c #E2DBDA",
"9#	c #98A2CC",
"0#	c #2949E0",
"a#	c #5C77D6",
"b#	c #D2D0D7",
"c#	c #D0D0DC",
"d#	c #CFCFDC",
"e#	c #D4D2DC",
"f#	c #BEC0D1",
"g#	c #4381ED",
"h#	c #3481FA",
"i#	c #378CFE",
"j#	c #328DFF",
"k#	c #2E8AFF",
"l#	c #3193FF",
"m#	c #4D7CDE",
"n#	c #13158F",
"o#	c #6AA1ED",
"p#	c #60ADFF",
"q#	c #5EA9FF",
"r#	c #428FFB",
"s#	c #6D83CC",
"t#	c #C5C1CB",
"u#	c #B8B8C9",
"v#	c #B6B6C6",
"w#	c #B7B6C7",
"x#	c #BBBBCD",
"y#	c #BCBCCD",
"z#	c #C0BECD",
"A#	c #AFB1C7",
"B#	c #4887EE",
"C#	c #3B8AFC",
"D#	c #358DFE",
"E#	c #2B87FF",
"F#	c #2C8FFF",
"G#	c #4D7FE0",
"H#	c #02004D",
"I#	c #0B0C8B",
"J#	c #6D9FEA",
"K#	c #65B8FF",
"L#	c #5FB0FF",
"M#	c #4395FF",
"N#	c #738AD4",
"O#	c #D9D5D7",
"P#	c #D1D1DB",
"Q#	c #D4D3DB",
"R#	c #D2D2DB",
"S#	c #CFCFDA",
"T#	c #D4D2DB",
"U#	c #BBBECE",
"V#	c #5096F2",
"W#	c #469DFF",
"X#	c #3794FF",
"Y#	c #2D8FFF",
"Z#	c #298BFF",
"`#	c #369DFF",
" $	c #4D78D9",
".$	c #010049",
"+$	c #2E3CB1",
"@$	c #6592E4",
"#$	c #6695EA",
"$$	c #598AE8",
"%$	c #7787CE",
"&$	c #BAB8D3",
"*$	c #B5B5D4",
"=$	c #B9B8D5",
"-$	c #A0A2C9",
";$	c #5E87DE",
">$	c #5D8FE9",
",$	c #568AE8",
"'$	c #5288E8",
")$	c #528AEA",
"!$	c #517FDE",
"~$	c #1B249E",
"{$	c #000025",
"]$	c #000040",
"^$	c #000053",
"/$	c #010055",
"($	c #020054",
"_$	c #020155",
":$	c #000054",
"<$	c #030054",
"[$	c #030154",
"}$	c #040155",
"|$	c #020050",
"1$	c #000027",
"                                                                ",
"                                                                ",
"                                                                ",
"        . + @ # + + + $ $ $ $ $ + + + + + + + + % & * =         ",
"      - ; > , ' ) ! ~ { ] ^ / ^ ^ ( _ : < < [ } | 1 2 3 4       ",
"      5 6 7 8 9 0 0 a b c d e f g h i 0 0 0 0 0 j k l m n       ",
"      o p q r s c t u v w x y z A B C D E u F G H I J K L       ",
"      o M N O P Q R S u T U x A V W B U D X Y Z `  ...+.@.      ",
"      #.$.%.&.*.=.-.R ;.u E U >.A V A B C D E ,.'.).!.~.@.      ",
"      {.].^./.(.0 _.:.R t <.T U >.A V W B U v [.}.|.1.2.@.      ",
"      3.4.5.6.7.0 0 _.-.R ;.u E U >.A V A B C 8.9.0.a.b.@.      ",
"      c.4.d.e.f.0 0 g.h.i.j.t <.E U >.A V W B k.l.m.n.o.@.      ",
"      p.q.r.s.t.0 0 0 0 _.-.R S Y E U >.A V A u.v.w.x.y.@.      ",
"      z.A.B.C.D.0 0 0 0 0 E.F.G.;.H.X D I.W J.K.L.M.N.O.@.      ",
"      P.q.Q.R.S.T.U.U.U.U.U.U.V.W.X.Y.Z.`. +.+++@+#+$+%+@.      ",
"      &+*+=+-+;+>+,+'+)+!+~+{+]+^+/+(+_+_+:+<+[+}+|+1+%+@.      ",
"      2+3+4+5+6+7+8+9+0+a+b+c+d+e+f+g+h+i+j+k+l+m+n+o+p+@.      ",
"      q+r+s+t+u+v+w+x+y+z+A+B+C+D+E+F+G+H+I+J+K+L+M+N+O+@.      ",
"      P+Q+R+S+T+U+V+W+W+W+W+X+Y+Z+`+ @.@+@@@#@$@%@&@*@=@@.      ",
"      -@;@>@,@'@)@!@~@{@]@^@/@/@(@(@_@:@<@[@}@|@1@2@3@4@5@      ",
"      6@7@8@9@'@0@a@b@c@d@e@f@g@g@g@g@h@i@j@k@l@m@n@o@p@5@      ",
"      q@r@s@t@u@v@w@x@y@z@A@B@C@C@C@C@D@E@F@G@H@I@J@K@L@5@      ",
"      M@N@O@P@Q@R@S@T@U@V@W@X@Y@Y@Y@Y@Z@`@ #.#+#@###$#%#5@      ",
"      &#*#=#-#;#>#,#'#)#!#~#{#]#]#]#]#^#/#(#_#:#<#[#}#|#1#      ",
"      2#3#4#5#6#7#8#9#0#a#b#c#d#d#d#d#e#f#g#h#i#j#k#l#m#1#      ",
"      n#o#p#q#r#s#t#u#v#w#x#y#y#y#y#y#z#A#B#C#D#k#E#F#G#H#      ",
"      I#J#K#L#M#N#O#P#Q#R#S#S#S#S#S#S#T#U#V#W#X#Y#Z#`# $.$      ",
"        +$@$#$$$%$&$*$*$*$*$*$*$*$*$*$=$-$;$>$,$'$)$!$~${$      ",
"        ]$^$/$($_$^$^$^$^$^$^$^$^$^$^$^$:$($($<$[$}$|$1$        ",
"                                                                ",
"                                                                ",
"                                                                "};
