/* XPM */
static char * marketing_xpm[] = {
"36 36 598 2",
"  	c None",
". 	c #8F5D05",
"+ 	c #B37612",
"@ 	c #A66A0C",
"# 	c #895D00",
"$ 	c #F5D906",
"% 	c #FFBA25",
"& 	c #FFB81F",
"* 	c #D99513",
"= 	c #99610E",
"- 	c #754500",
"; 	c #E2C801",
"> 	c #FFEB01",
", 	c #FFD016",
"' 	c #FFB923",
") 	c #FFB71C",
"! 	c #F5AD15",
"~ 	c #945E10",
"{ 	c #C6A601",
"] 	c #FFE601",
"^ 	c #FFA801",
"/ 	c #FFAD17",
"( 	c #FFB820",
"_ 	c #FFB619",
": 	c #F5AC12",
"< 	c #7D4E16",
"[ 	c #A98300",
"} 	c #FFB801",
"| 	c #FF9901",
"1 	c #FDA30E",
"2 	c #FBB31E",
"3 	c #FFB517",
"4 	c #A1650C",
"5 	c #040E27",
"6 	c #36415E",
"7 	c #4C5671",
"8 	c #777F93",
"9 	c #78839F",
"0 	c #72798B",
"a 	c #3E4A69",
"b 	c #232E4A",
"c 	c #030B1D",
"d 	c #875A00",
"e 	c #FFCD01",
"f 	c #EA981B",
"g 	c #DE972B",
"h 	c #D79128",
"i 	c #85531C",
"j 	c #202C49",
"k 	c #737E98",
"l 	c #BEC7DC",
"m 	c #D4DCE5",
"n 	c #DAE5E5",
"o 	c #E5F5E5",
"p 	c #D5DEE5",
"q 	c #E3F3E4",
"r 	c #D6DFE5",
"s 	c #D1D9E5",
"t 	c #A8B2CB",
"u 	c #57637F",
"v 	c #161F35",
"w 	c #734101",
"x 	c #F5DF01",
"y 	c #FFDC02",
"z 	c #FF9B05",
"A 	c #FF9A02",
"B 	c #F19813",
"C 	c #965D17",
"D 	c #8C8073",
"E 	c #051130",
"F 	c #4B5C84",
"G 	c #A9B9CC",
"H 	c #C8E2CF",
"I 	c #C3DBCF",
"J 	c #D4F3CD",
"K 	c #D7F8CB",
"L 	c #C3DAC8",
"M 	c #AEBCCA",
"N 	c #BFD7C9",
"O 	c #D1F3C5",
"P 	c #D6FAC2",
"Q 	c #C6E2C5",
"R 	c #B4C7CA",
"S 	c #7E6B63",
"T 	c #D9BD05",
"U 	c #FFEB02",
"V 	c #FFE602",
"W 	c #FFA709",
"X 	c #FF9C08",
"Y 	c #FF9B06",
"Z 	c #F7990D",
"` 	c #AA6B18",
" .	c #826B55",
"..	c #999999",
"+.	c #07173F",
"@.	c #5A6E9D",
"#.	c #AFCEC0",
"$.	c #CBF8BE",
"%.	c #CFFDBC",
"&.	c #CEFDB9",
"*.	c #B4D6B3",
"=.	c #ABC8B0",
"-.	c #AAC8B0",
";.	c #C5F2B0",
">.	c #C8F7AC",
",.	c #C6F6A9",
"'.	c #C5F4A6",
").	c #C4F4A4",
"!.	c #A6B670",
"~.	c #BC9B0A",
"{.	c #FFEC0D",
"].	c #FFEC08",
"^.	c #FFB20D",
"/.	c #FF9E0E",
"(.	c #FF9D0B",
"_.	c #FD9C0B",
":.	c #E09729",
"<.	c #C88423",
"[.	c #795838",
"}.	c #071944",
"|.	c #3F5793",
"1.	c #AED5B5",
"2.	c #C8FCB1",
"3.	c #C7FBAE",
"4.	c #C5FAAC",
"5.	c #C4F9A8",
"6.	c #BAE9A6",
"7.	c #B0DAA3",
"8.	c #BCEDA0",
"9.	c #BFF39C",
"0.	c #BDF299",
"a.	c #BCF095",
"b.	c #BAEF92",
"c.	c #AFD77E",
"d.	c #9B7813",
"e.	c #FFED19",
"f.	c #FFED14",
"g.	c #FFC213",
"h.	c #FFA114",
"i.	c #FF9F11",
"j.	c #FF9F0F",
"k.	c #E39725",
"l.	c #784D22",
"m.	c #071740",
"n.	c #0C2970",
"o.	c #9EC9A6",
"p.	c #C0F9A3",
"q.	c #BEF89F",
"r.	c #B3E79C",
"s.	c #96B89B",
"t.	c #7A8C9B",
"u.	c #76869E",
"v.	c #7381A7",
"w.	c #87A29C",
"x.	c #B3ED87",
"y.	c #B1EC84",
"z.	c #B0EA80",
"A.	c #AADD76",
"B.	c #917820",
"C.	c #F5E222",
"D.	c #FFED1F",
"E.	c #FFD61B",
"F.	c #FFA319",
"G.	c #FFA217",
"H.	c #E99820",
"I.	c #D9932B",
"J.	c #DC952B",
"K.	c #875112",
"L.	c #95918C",
"M.	c #0A225C",
"N.	c #589179",
"O.	c #B6F593",
"P.	c #ABE390",
"Q.	c #8CB18F",
"R.	c #6A7A92",
"S.	c #66769D",
"T.	c #677AA8",
"U.	c #687CAD",
"V.	c #8CB98D",
"W.	c #A6E671",
"X.	c #A5E56D",
"Y.	c #A3E369",
"Z.	c #87802B",
"`.	c #E2CC27",
" +	c #FFEE2B",
".+	c #FFE125",
"++	c #FFA91F",
"@+	c #FFA41C",
"#+	c #FFA31A",
"$+	c #EE9A1E",
"%+	c #D4902B",
"&+	c #D7912B",
"*+	c #985C13",
"=+	c #8D8074",
"-+	c #081A47",
";+	c #1D4472",
">+	c #88E059",
",+	c #A1DE80",
"'+	c #5E6F89",
")+	c #5A6C96",
"!+	c #5C70A3",
"~+	c #5C72A7",
"{+	c #688798",
"]+	c #93D265",
"^+	c #99DF58",
"/+	c #97DD55",
"(+	c #859C35",
"_+	c #C6A925",
":+	c #FFEF37",
"<+	c #FFEB31",
"[+	c #FFB426",
"}+	c #FFA622",
"|+	c #FFA520",
"1+	c #F69F20",
"2+	c #D38D29",
"3+	c #D28D2A",
"4+	c #B1721D",
"5+	c #7F644B",
"6+	c #0A225E",
"7+	c #4E9456",
"8+	c #78CD4B",
"9+	c #617E7A",
"0+	c #4E6292",
"a+	c #5068A1",
"b+	c #6C9B79",
"c+	c #90DA48",
"d+	c #8ED746",
"e+	c #8DD646",
"f+	c #86B639",
"g+	c #A9851F",
"h+	c #FFF042",
"i+	c #FFF03D",
"j+	c #FFC42F",
"k+	c #FFA828",
"l+	c #FFA726",
"m+	c #FCA423",
"n+	c #D58D28",
"o+	c #CD8A2A",
"p+	c #BB7B22",
"q+	c #624228",
"r+	c #0D2A74",
"s+	c #70D12A",
"t+	c #204453",
"u+	c #465B7C",
"v+	c #445D99",
"w+	c #58827B",
"x+	c #85D239",
"y+	c #84D039",
"z+	c #83CE39",
"A+	c #81C336",
"B+	c #876917",
"C+	c #FFF14E",
"D+	c #FFF149",
"E+	c #FFD23B",
"F+	c #FFAB2E",
"G+	c #FFAA2B",
"H+	c #FFA929",
"I+	c #D88F29",
"J+	c #C8862A",
"K+	c #C48227",
"L+	c #69421F",
"M+	c #16295A",
"N+	c #0A1F52",
"O+	c #0E2E7D",
"P+	c #62BF1F",
"Q+	c #2D6037",
"R+	c #2C4D82",
"S+	c #385293",
"T+	c #406186",
"U+	c #76C030",
"V+	c #79C62C",
"W+	c #78C42C",
"X+	c #756312",
"Y+	c #F5E654",
"Z+	c #FFF254",
"`+	c #FFE44A",
" @	c #FFAD33",
".@	c #FFAC31",
"+@	c #E4982B",
"@@	c #C3822A",
"#@	c #C5842A",
"$@	c #895710",
"%@	c #3D6328",
"&@	c #0C286C",
"*@	c #7B7F8A",
"=@	c #0D2560",
"-@	c #24555E",
";@	c #65CA01",
">@	c #64C800",
",@	c #5FBD09",
"'@	c #569742",
")@	c #34577E",
"!@	c #2B478C",
"~@	c #406B68",
"{@	c #6DBB1F",
"]@	c #6A7610",
"^@	c #E2CF52",
"/@	c #FFF360",
"(@	c #FFEE59",
"_@	c #FFB33B",
":@	c #FFAE37",
"<@	c #FFAD34",
"[@	c #EEA02F",
"}@	c #BE7E29",
"|@	c #C0802A",
"1@	c #9A5F18",
"2@	c #465E10",
"3@	c #478F01",
"4@	c #0D2A73",
"5@	c #626A7F",
"6@	c #0F2968",
"7@	c #38793F",
"8@	c #61C200",
"9@	c #60BF00",
"0@	c #5EBC00",
"a@	c #5EBA01",
"b@	c #56A11E",
"c@	c #234379",
"d@	c #1F3D86",
"e@	c #203E87",
"f@	c #223F88",
"g@	c #3F4F49",
"h@	c #BC9F3F",
"i@	c #FFF36C",
"j@	c #FFF367",
"k@	c #FFC248",
"l@	c #FFB03C",
"m@	c #FFAF3A",
"n@	c #FBAB36",
"o@	c #BD7D2A",
"p@	c #BB7C29",
"q@	c #AD6F22",
"r@	c #4D4615",
"s@	c #265229",
"t@	c #3D7B11",
"u@	c #0D2B74",
"v@	c #646D82",
"w@	c #112B6C",
"x@	c #36753F",
"y@	c #5DB900",
"z@	c #5BB600",
"A@	c #5AB400",
"B@	c #59B100",
"C@	c #57AE00",
"D@	c #4F9D12",
"E@	c #214570",
"F@	c #1C3A84",
"G@	c #273A75",
"H@	c #9B7C37",
"I@	c #FFF477",
"J@	c #FFF472",
"K@	c #FFCF56",
"L@	c #FFB242",
"M@	c #FFB140",
"N@	c #FFB03D",
"O@	c #C2812C",
"P@	c #B67829",
"Q@	c #B37526",
"R@	c #583812",
"S@	c #3E7C06",
"T@	c #366E10",
"U@	c #214D4F",
"V@	c #0D2B76",
"W@	c #666F85",
"X@	c #172F6C",
"Y@	c #2A604E",
"Z@	c #58B000",
"`@	c #56AB00",
" #	c #54A800",
".#	c #53A600",
"+#	c #3E7C1B",
"@#	c #193376",
"##	c #1E3B86",
"$#	c #755932",
"%#	c #F5E97A",
"&#	c #FFF57E",
"*#	c #FFE16A",
"=#	c #FFB448",
"-#	c #FFB445",
";#	c #FFB343",
">#	c #D28E33",
",#	c #B27429",
"'#	c #B47629",
")#	c #6F3E0D",
"!#	c #2E5725",
"~#	c #153758",
"{#	c #14386E",
"]#	c #0D2C77",
"^#	c #667086",
"/#	c #1C3470",
"(#	c #1B4565",
"_#	c #53A500",
":#	c #51A200",
"<#	c #50A000",
"[#	c #4E9D00",
"}#	c #1E3867",
"|#	c #233F89",
"1#	c #534445",
"2#	c #E2D173",
"3#	c #FFF689",
"4#	c #FFEA7A",
"5#	c #FFBB50",
"6#	c #FFB64B",
"7#	c #FFB548",
"8#	c #DF9A3B",
"9#	c #AD7029",
"0#	c #AF7229",
"a#	c #874F12",
"b#	c #242F59",
"c#	c #2F6016",
"d#	c #366C06",
"e#	c #285630",
"f#	c #1D454F",
"g#	c #8B8E94",
"h#	c #0D2C79",
"i#	c #4C9808",
"j#	c #4D9A00",
"k#	c #3B751C",
"l#	c #305B4A",
"m#	c #243E82",
"n#	c #2A458D",
"o#	c #9F7B40",
"p#	c #FFF794",
"q#	c #FFF28B",
"r#	c #FFC45D",
"s#	c #FFB850",
"t#	c #FFB74E",
"u#	c #EEA845",
"v#	c #AD712A",
"w#	c #AA6E29",
"x#	c #92591A",
"y#	c #40394D",
"z#	c #1C377B",
"A#	c #24482B",
"B#	c #356901",
"C#	c #346701",
"D#	c #153966",
"E#	c #223B7A",
"F#	c #15317B",
"G#	c #306541",
"H#	c #4A9401",
"I#	c #43850C",
"J#	c #223B69",
"K#	c #2E488F",
"L#	c #3E446C",
"M#	c #CFB694",
"N#	c #FFF6A2",
"O#	c #FFD170",
"P#	c #FFBA56",
"Q#	c #FFB954",
"R#	c #F9B34F",
"S#	c #B4772F",
"T#	c #A56A28",
"U#	c #9B6121",
"V#	c #553E38",
"W#	c #213770",
"X#	c #294F3C",
"Y#	c #234435",
"Z#	c #336601",
"`#	c #2F6011",
" $	c #102F7E",
".$	c #516086",
"+$	c #314882",
"@$	c #1D3D7C",
"#$	c #448709",
"$$	c #2F5A2D",
"%$	c #283F7E",
"&$	c #314B91",
"*$	c #344E93",
"=$	c #4F414A",
"-$	c #F5E8CE",
";$	c #FFECC3",
">$	c #FFBF63",
",$	c #FFBB59",
"'$	c #FFBA57",
")$	c #BC7F36",
"!$	c #A06628",
"~$	c #9E6526",
"{$	c #694223",
"]$	c #364B89",
"^$	c #294556",
"/$	c #2D5061",
"($	c #254088",
"_$	c #254660",
":$	c #1F416C",
"<$	c #18357F",
"[$	c #8D9096",
"}$	c #1C3982",
"|$	c #305760",
"1$	c #3C760C",
"2$	c #273C64",
"3$	c #375094",
"4$	c #3B5496",
"5$	c #826C5F",
"6$	c #FFF5DF",
"7$	c #FFF3D9",
"8$	c #FFEAC4",
"9$	c #FFC979",
"0$	c #D29444",
"a$	c #9B6228",
"b$	c #9D6428",
"c$	c #764516",
"d$	c #425184",
"e$	c #395295",
"f$	c #354F93",
"g$	c #2C478E",
"h$	c #26428B",
"i$	c #495B89",
"j$	c #54648B",
"k$	c #203C87",
"l$	c #365B65",
"m$	c #365179",
"n$	c #3E5598",
"o$	c #42599A",
"p$	c #BCA182",
"q$	c #FFF6E2",
"r$	c #FFF4DC",
"s$	c #FFF2D6",
"t$	c #FFF0CF",
"u$	c #DFC298",
"v$	c #C29B6A",
"w$	c #83501B",
"x$	c #51506C",
"y$	c #445A9B",
"z$	c #405799",
"A$	c #364F94",
"B$	c #29458D",
"C$	c #274184",
"D$	c #4B5D89",
"E$	c #29448C",
"F$	c #3F5798",
"G$	c #445B9B",
"H$	c #505376",
"I$	c #E2D4BF",
"J$	c #FFF7E6",
"K$	c #FFF3DA",
"L$	c #FFF1D3",
"M$	c #C6A880",
"N$	c #755742",
"O$	c #565879",
"P$	c #4D62A0",
"Q$	c #4A609E",
"R$	c #465C9C",
"S$	c #41599A",
"T$	c #3C5497",
"U$	c #213E86",
"V$	c #828894",
"W$	c #51618B",
"X$	c #5A515D",
"Y$	c #C6C2BB",
"Z$	c #FFF8E9",
"`$	c #FFF6E3",
" %	c #E2D0B3",
".%	c #8B6A4B",
"+%	c #5E5B73",
"@%	c #596CA6",
"#%	c #576AA5",
"$%	c #5468A4",
"%%	c #5065A2",
"&%	c #4C619F",
"*%	c #475D9D",
"=%	c #3E5698",
"-%	c #2E4788",
";%	c #787F92",
">%	c #66728F",
",%	c #2B4689",
"'%	c #5D5253",
")%	c #706F6F",
"!%	c #B3ACA2",
"~%	c #9C7F56",
"{%	c #494F01",
"]%	c #466B4B",
"^%	c #416936",
"/%	c #4D6B6A",
"(%	c #506B7D",
"_%	c #566AA5",
":%	c #5266A3",
"<%	c #344E92",
"[%	c #344C86",
"}%	c #8D9097",
"|%	c #665646",
"1%	c #504857",
"2%	c #51696A",
"3%	c #4F7058",
"4%	c #416B2D",
"5%	c #4D6E57",
"6%	c #486670",
"7%	c #334B88",
"8%	c #6E7890",
"9%	c #725233",
"0%	c #90877F",
"a%	c #788092",
"b%	c #3D538B",
"c%	c #435890",
"d%	c #435790",
"e%	c #425790",
"f%	c #3F5489",
"g%	c #5A698C",
"                                                                        ",
"                                                                        ",
"                                                      . + @             ",
"                                                    # $ % & * =         ",
"                                                  - ; > , ' ) ! ~       ",
"                                                  { > ] ^ / ( _ : <     ",
"                                                [ > > } | | 1 2 3 4     ",
"                      5 6 7 8 9 0 a b c       d > > e | | | f g h i     ",
"                  j k l m n o p q r s t u v w x > y z A | B g g C D     ",
"              E F G H I J K L M N O P Q R S T U V W X Y Z g g `  ...    ",
"            +.@.#.$.%.&.*.=.-.;.>.,.'.).!.~.{.].^./.(._.:.g <.[.....    ",
"          }.|.1.2.3.4.5.6.7.8.9.0.a.b.c.d.e.f.g.h.i.j.k.g h l.....      ",
"        m.n.o.p.q.r.s.t.u.v.w.x.y.z.A.B.C.D.E.F.G.h.H.I.J.K.L...        ",
"        M.N.O.P.Q.R.S.T.U.U.V.W.X.Y.Z.`. +.+++@+#+$+%+&+*+=+..          ",
"      -+;+>+,+'+)+!+~+~+~+{+]+^+/+(+_+:+<+[+}+|+1+2+3+4+5+....          ",
"      6+7+8+9+0+a+a+a+a+b+c+d+e+f+g+h+i+j+k+l+m+n+o+p+q+....            ",
"      r+s+t+u+v+v+v+v+w+x+y+z+A+B+C+D+E+F+G+H+I+J+K+L+M+..              ",
"    N+O+P+Q+R+S+S+S+S+T+U+V+W+X+Y+Z+`+ @.@F++@@@#@$@%@&@*@              ",
"    =@-@;@>@,@'@)@!@!@!@~@{@]@^@/@(@_@:@<@[@}@|@1@2@3@4@5@              ",
"    6@7@8@9@0@a@b@c@d@e@f@g@h@i@j@k@l@m@n@o@p@q@r@s@t@u@v@              ",
"    w@x@y@z@A@B@C@D@E@F@G@H@I@J@K@L@M@N@O@P@Q@R@S@T@U@V@W@              ",
"    X@Y@Z@C@`@ #.#+#@###$#%#&#*#=#-#;#>#,#'#)#!#~#{#O+]#^#              ",
"    /#(# #_#:#<#[#}#|#1#2#3#4#5#6#7#8#9#0#a#b#c#d#e#f#r+g#              ",
"      h#i#[#j#k#l#m#n#o#p#q#r#s#t#u#v#w#x#y#z#A#B#C#D#E#..              ",
"      F#G#H#I#J#n#K#L#M#N#O#P#Q#R#S#T#U#V#W#X#Y#Z#`# $.$..              ",
"      +$@$#$$$%$&$*$=$-$;$>$,$'$)$!$~${$]$^$/$($_$:$<$[$                ",
"        }$|$1$2$3$4$5$6$7$8$9$0$a$b$c$d$e$f$&$g$h$##i$..                ",
"        j$k$l$m$n$o$p$q$r$s$t$u$v$w$x$y$z$4$A$&$B$C$....                ",
"          D$E$F$G$H$I$J$6$K$L$M$N$O$P$Q$R$S$T$A$U$V$..                  ",
"            W$g$Q$X$Y$Z$`$ %.%+%@%#%$%%%&%*%=%-%;%..                    ",
"              >%,%'%)%!%~%{%]%^%]%/%(%_%:%<%[%}%....                    ",
"                ..|%|%1%2%3%4%4%4%5%6%e$7%8%....                        ",
"                  9%0%a%i$b%c%d%e%f%g%V$......                          ",
"                    ......................                              ",
"                                                                        ",
"                                                                        "};
