/* XPM */
static char * flfactinfo_xpm[] = {
"22 22 123 2",
"  	c None",
". 	c #B9B9B9",
"+ 	c #D7D7D7",
"@ 	c #AEAEAE",
"# 	c #6A6A6A",
"$ 	c #D6D6D6",
"% 	c #E7E7E7",
"& 	c #E1E1E1",
"* 	c #E3E3E3",
"= 	c #A9A9A9",
"- 	c #BFBFBF",
"; 	c #DEDEDE",
"> 	c #D9D9D9",
", 	c #D2D2D2",
"' 	c #D8D8D8",
") 	c #E4E4E4",
"! 	c #C9C9C9",
"~ 	c #676767",
"{ 	c #CBCBCB",
"] 	c #DCDCDC",
"^ 	c #B1B1B1",
"/ 	c #DFDFDF",
"( 	c #DBDBDB",
"_ 	c #DDDDDD",
": 	c #434343",
"< 	c #AFAFAF",
"[ 	c #D0D0D0",
"} 	c #ADADAD",
"| 	c #777777",
"1 	c #6C6C6C",
"2 	c #CCCCCC",
"3 	c #E5E5E5",
"4 	c #696969",
"5 	c #F1F1F1",
"6 	c #E2E2E2",
"7 	c #6F6F6F",
"8 	c #CFCFCF",
"9 	c #E0E0E0",
"0 	c #9D9D9D",
"a 	c #EEEEEE",
"b 	c #DADADA",
"c 	c #606060",
"d 	c #727272",
"e 	c #E9E9E9",
"f 	c #CDCDCD",
"g 	c #F0F0F0",
"h 	c #2A2A2A",
"i 	c #717171",
"j 	c #D4D4D4",
"k 	c #EBEBEB",
"l 	c #E8E8E8",
"m 	c #C2C2C2",
"n 	c #EFEFEF",
"o 	c #131313",
"p 	c #737373",
"q 	c #ECECEC",
"r 	c #B6B6B6",
"s 	c #C1C1C1",
"t 	c #C3C3C3",
"u 	c #3B3B3B",
"v 	c #757575",
"w 	c #E6E6E6",
"x 	c #909090",
"y 	c #1C1C1C",
"z 	c #EDEDED",
"A 	c #AAAAAA",
"B 	c #535353",
"C 	c #787878",
"D 	c #F9F9F9",
"E 	c #F6F6F6",
"F 	c #F5F5F5",
"G 	c #F2F2F2",
"H 	c #A4A4A4",
"I 	c #232323",
"J 	c #7A7A7A",
"K 	c #A7A7A7",
"L 	c #C5C5C5",
"M 	c #FAFAFA",
"N 	c #FBFBFB",
"O 	c #F3F3F3",
"P 	c #636363",
"Q 	c #7D7D7D",
"R 	c #B7B7B7",
"S 	c #ACACAC",
"T 	c #A0A0A0",
"U 	c #CECECE",
"V 	c #BEBEBE",
"W 	c #FCFCFC",
"X 	c #CACACA",
"Y 	c #FEFEFE",
"Z 	c #2D2D2D",
"` 	c #868686",
" .	c #B0B0B0",
"..	c #969696",
"+.	c #C6C6C6",
"@.	c #797979",
"#.	c #8C8C8C",
"$.	c #9A9A9A",
"%.	c #BDBDBD",
"&.	c #A3A3A3",
"*.	c #8B8B8B",
"=.	c #8E8E8E",
"-.	c #989898",
";.	c #3F3F3F",
">.	c #0F0F0F",
",.	c #2E2E2E",
"'.	c #3D3D3D",
").	c #555555",
"!.	c #858585",
"~.	c #A6A6A6",
"{.	c #767676",
"].	c #6D6D6D",
"^.	c #616161",
"/.	c #848484",
"(.	c #050505",
"_.	c #171717",
":.	c #646464",
"<.	c #5B5B5B",
"[.	c #323232",
"}.	c #212121",
"|.	c #151515",
"1.	c #0D0D0D",
"2.	c #191919",
"                                            ",
"                                            ",
"      . + @ #                               ",
"      $ % & * =                             ",
"    - ; > , ' ) !                           ",
"  ~ { & ] + ' ' ) ^                         ",
"  # ! * / ( ( ( ; _ :     < , ( [ } |       ",
"  1 2 3 & _ _ _ ; % 4   ' 5 * ] / 3 6 -     ",
"  7 8 % * / 9 9 & ] 0 _ a + b b > > ; * c   ",
"  d , e 3 6 * * ) f } g ( ; ; _ _ _ % @ h   ",
"  i j k % 3 3 ) l m ^ n / 9 & 9 9 6 6 7 o   ",
"  p ' q e l l l q r s 5 & * ) * 6 k t u     ",
"  v b a k e k k a ^ 8 g ) w 3 w % a x y     ",
"  | ( 5 n z z a a A & z l e l l n ' B       ",
"  C _ D E F G 5 % = g z z q q q E H I       ",
"  J & { K L a M > ^ N F E E G O l P         ",
"  Q z R S T } q U V W b X $ g Y . Z         ",
"  ` M $ & ; R - m -  ...T  .+.k @.          ",
"  1 #.# J $.%.s ^ &.*.=.-.r , = ;.          ",
"    >.y ,.'.).!.~.!.# {.].^./.4             ",
"            (._.:.<.[.,.}.|.                ",
"                1.2.                        "};
