/* XPM */
static char * facturacion_xpm[] = {
"22 22 324 2",
"  	c None",
". 	c #CECECE",
"+ 	c #E2E2E2",
"@ 	c #D4D4D4",
"# 	c #D3D3D3",
"$ 	c #DBD8D7",
"% 	c #DDD9E3",
"& 	c #76948C",
"* 	c #085B17",
"= 	c #034D16",
"- 	c #DDDDDD",
"; 	c #FFFFFF",
"> 	c #F6F6F6",
", 	c #FAFAFA",
"' 	c #FBFBFB",
") 	c #FCFCFC",
"! 	c #F7F4F3",
"~ 	c #EEE3E7",
"{ 	c #9CA1B4",
"] 	c #2C763A",
"^ 	c #199308",
"/ 	c #2B8436",
"( 	c #F8F8F8",
"_ 	c #EFEFEF",
": 	c #F2F2F2",
"< 	c #F7F7F7",
"[ 	c #F9F9F9",
"} 	c #F5F5F5",
"| 	c #E6E4E6",
"1 	c #E2D7D9",
"2 	c #AFA5C2",
"3 	c #2C6445",
"4 	c #1F9113",
"5 	c #41B348",
"6 	c #317940",
"7 	c #F3F3F3",
"8 	c #FDFDFD",
"9 	c #E7E7E7",
"0 	c #CAC8C8",
"a 	c #D2C4C6",
"b 	c #928FAE",
"c 	c #145F23",
"d 	c #1E8D0D",
"e 	c #49B453",
"f 	c #53B468",
"g 	c #D5D5D5",
"h 	c #FEFEFE",
"i 	c #E9E9E9",
"j 	c #C7C9C9",
"k 	c #BCB7B8",
"l 	c #BCADC2",
"m 	c #397144",
"n 	c #0A7A00",
"o 	c #158501",
"p 	c #2B922E",
"q 	c #3BA344",
"r 	c #B9BDBB",
"s 	c #B6ADAE",
"t 	c #BCB1B9",
"u 	c #407153",
"v 	c #005E00",
"w 	c #155B25",
"x 	c #2A554F",
"y 	c #456F67",
"z 	c #38765F",
"A 	c #EFF7F3",
"B 	c #E3F1E8",
"C 	c #D0E5D1",
"D 	c #B2DBBE",
"E 	c #98C6A3",
"F 	c #7FB38A",
"G 	c #61A26F",
"H 	c #2D7A52",
"I 	c #196C42",
"J 	c #226C30",
"K 	c #1B5A21",
"L 	c #094108",
"M 	c #1E4D2A",
"N 	c #B8B2B3",
"O 	c #6F8194",
"P 	c #63788A",
"Q 	c #9D99A5",
"R 	c #B3A8B7",
"S 	c #C6B9C9",
"T 	c #C1BDC6",
"U 	c #494D4F",
"V 	c #E5F2EA",
"W 	c #D8EAD9",
"X 	c #BED8C5",
"Y 	c #A7C9AF",
"Z 	c #8AB690",
"` 	c #6D9D77",
" .	c #2B6C5F",
"..	c #809841",
"+.	c #877C29",
"@.	c #002A27",
"#.	c #123A1D",
"$.	c #092405",
"%.	c #1B2B23",
"&.	c #BEBEBB",
"*.	c #C0BCBD",
"=.	c #C9C1C2",
"-.	c #C8C1C1",
";.	c #C5C2C1",
">.	c #D0CDCC",
",.	c #D6D2D2",
"'.	c #54524F",
").	c #D5ECD8",
"!.	c #C1E3CA",
"~.	c #A6D1B7",
"{.	c #8FC19B",
"].	c #79B383",
"^.	c #4A986D",
"/.	c #00575E",
"(.	c #FFFF37",
"_.	c #E3C323",
":.	c #001822",
"<.	c #004F1D",
"[.	c #013A09",
"}.	c #123E19",
"|.	c #D2D0D0",
"1.	c #D1D1D0",
"2.	c #D0D0D0",
"3.	c #D4D4D7",
"4.	c #D1D1D1",
"5.	c #4C4C4C",
"6.	c #BFE4C9",
"7.	c #ADDBBB",
"8.	c #92C8A1",
"9.	c #7EBA8C",
"0.	c #63AB76",
"a.	c #137668",
"b.	c #5E9A49",
"c.	c #FFFF26",
"d.	c #FFEB1D",
"e.	c #001C15",
"f.	c #002019",
"g.	c #001A0B",
"h.	c #03371E",
"i.	c #EBEBEB",
"j.	c #E6E6E6",
"k.	c #E1E1E1",
"l.	c #D8D8D8",
"m.	c #D2D2D2",
"n.	c #4E4E4E",
"o.	c #B4DEBB",
"p.	c #93CEA5",
"q.	c #79C090",
"r.	c #67B47C",
"s.	c #24876A",
"t.	c #167E5E",
"u.	c #FFFF2E",
"v.	c #7A5B1F",
"w.	c #E2D416",
"x.	c #3B4610",
"y.	c #003B17",
"z.	c #678000",
"A.	c #00131B",
"B.	c #F0F0F0",
"C.	c #E8E8E8",
"D.	c #E0E0E0",
"E.	c #CFCFCF",
"F.	c #505050",
"G.	c #92D2B1",
"H.	c #67C2A3",
"I.	c #4EB790",
"J.	c #2CA67C",
"K.	c #148B6D",
"L.	c #FAFF3B",
"M.	c #F4D21D",
"N.	c #00001D",
"O.	c #B0DA1B",
"P.	c #8D7F0C",
"Q.	c #8FA00C",
"R.	c #FFFF00",
"S.	c #605D11",
"T.	c #DBDBDB",
"U.	c #CCCCCC",
"V.	c #3DBAB9",
"W.	c #B2E182",
"X.	c #91B45F",
"Y.	c #00827E",
"Z.	c #ECFF46",
"`.	c #FFD318",
" +	c #000818",
".+	c #00232F",
"++	c #4DA61F",
"@+	c #EBCF07",
"#+	c #E1C702",
"$+	c #1B1C00",
"%+	c #7D9816",
"&+	c #EDEDED",
"*+	c #C9C9C9",
"=+	c #525252",
"-+	c #A9E987",
";+	c #FFFF46",
">+	c #FFE227",
",+	c #99AD3B",
"'+	c #FFFF1E",
")+	c #2E200C",
"!+	c #003B28",
"~+	c #007138",
"{+	c #2B8F23",
"]+	c #FDDE00",
"^+	c #391900",
"/+	c #000000",
"(+	c #001E18",
"_+	c #E3E3E3",
":+	c #D9D9D9",
"<+	c #C7C7C7",
"[+	c #C4C4C4",
"}+	c #545454",
"|+	c #FFFF38",
"1+	c #8F742A",
"2+	c #416630",
"3+	c #FFFF16",
"4+	c #7D5705",
"5+	c #003224",
"6+	c #12963D",
"7+	c #04872F",
"8+	c #566106",
"9+	c #001900",
"0+	c #004019",
"a+	c #C0C0C0",
"b+	c #BEBEBE",
"c+	c #BFBFBF",
"d+	c #A29045",
"e+	c #0C473A",
"f+	c #00916E",
"g+	c #69D360",
"h+	c #225822",
"i+	c #0D813A",
"j+	c #25A342",
"k+	c #0C7D28",
"l+	c #003511",
"m+	c #002610",
"n+	c #00370D",
"o+	c #003A05",
"p+	c #094019",
"q+	c #D7D7D7",
"r+	c #C8C8C8",
"s+	c #B8B8B8",
"t+	c #B5B5B5",
"u+	c #BABABA",
"v+	c #585858",
"w+	c #328C61",
"x+	c #3F9E5B",
"y+	c #56E284",
"z+	c #2BB771",
"A+	c #27AA56",
"B+	c #2CA147",
"C+	c #20983C",
"D+	c #117027",
"E+	c #01370E",
"F+	c #004013",
"G+	c #004E12",
"H+	c #003906",
"I+	c #073512",
"J+	c #CDCDCD",
"K+	c #B2B2B2",
"L+	c #AEAEAE",
"M+	c #B6B6B6",
"N+	c #5B5B5B",
"O+	c #63DB82",
"P+	c #60D97C",
"Q+	c #57D776",
"R+	c #45C865",
"S+	c #35B858",
"T+	c #29A244",
"U+	c #169837",
"V+	c #0A6E21",
"W+	c #004711",
"X+	c #004C0E",
"Y+	c #004109",
"Z+	c #002E03",
"`+	c #062810",
" @	c #C5C5C5",
".@	c #B9B9B9",
"+@	c #ACACAC",
"@@	c #A9A9A9",
"#@	c #B3B3B3",
"$@	c #5D5D5D",
"%@	c #69CA7B",
"&@	c #57BA6C",
"*@	c #49A357",
"=@	c #3AA45B",
"-@	c #38A55A",
";@	c #359950",
">@	c #288C43",
",@	c #13622C",
"'@	c #0A4F20",
")@	c #07521C",
"!@	c #07421B",
"~@	c #062D0C",
"{@	c #0A281B",
"]@	c #BCBCBC",
"^@	c #B7B7B7",
"/@	c #B1B1B1",
"(@	c #A6A6A6",
"_@	c #A4A4A4",
":@	c #B0B0B0",
"<@	c #5E5E5E",
"[@	c #CACACA",
"}@	c #C1C1C1",
"|@	c #C2C2C2",
"1@	c #C3C3C3",
"2@	c #BDBDBD",
"3@	c #ADADAD",
"4@	c #A8A8A8",
"5@	c #A2A2A2",
"6@	c #606060",
"7@	c #BBBBBB",
"8@	c #AAAAAA",
"9@	c #A7A7A7",
"0@	c #B4B4B4",
"a@	c #6B6B6B",
"b@	c #4F4F4F",
"c@	c #424242",
"d@	c #404040",
"e@	c #414141",
"f@	c #434343",
"g@	c #444444",
"h@	c #4D4D4D",
"i@	c #343434",
"      . + @ # @ $ % & * =                   ",
"      - ; > , ' ) ! ~ { ] ^ /               ",
"      # ( _ : < [ } | 1 2 3 4 5 6           ",
"      @ , 7 } [ ; 8 9 0 a b c d e f         ",
"      g , : < h ; h i j k l m n o p q       ",
"      ; ; } [ 8 ; ; } r s t u v w x y z     ",
"A B C D E F G H I J K L M N O P Q R S T U   ",
"V W X Y Z `  ...+.@.#.$.%.&.*.=.-.;.>.,.'.  ",
").!.~.{.].^./.(._.:.<.[.}.# |.1.2.2.3.4.5.  ",
"6.7.8.9.0.a.b.c.d.e.f.g.h.i.j.k.- l.l.m.n.  ",
"o.p.q.r.s.t.u.v.w.x.y.z.A.( B.C.D.l.# E.F.  ",
"G.H.I.J.K.L.M.N.O.P.Q.R.S., : 9 T.m.E.U.F.  ",
"V.W.X.Y.Z.`. +.+++@+#+$+%+} &+D.g U.*+*+=+  ",
"-+;+>+,+'+)+!+~+{+]+^+/+(+&+_+:+E.<+[+[+}+  ",
"|+1+2+3+4+5+6+7+<.8+/+9+0++ T.4.<+a+b+c+}+  ",
"d+e+f+g+h+i+j+k+l+m+n+o+p+q+4.r+c+s+t+u+v+  ",
"w+x+y+z+A+B+C+D+E+F+G+H+I+J+<+c+s+K+L+M+N+  ",
"O+P+Q+R+S+T+U+V+W+X+Y+Z+`+ @c+.@K++@@@#@$@  ",
"%@&@*@=@-@;@>@,@'@)@!@~@{@]@^@/@+@(@_@:@<@  ",
"      b+[@}@|@|@1@|@}@b+2@.@K+3@4@_@5@L+6@  ",
"      1@2@^@.@u+u+7@7@.@s+t+K+L+8@9@_@0@a@  ",
"      b@c@d@d@e@c@c@c@f@f@g@f@f@f@c@c@h@i@  "};
