/* XPM */
static char * flcolaproy_xpm[] = {
"32 32 278 2",
"  	c None",
". 	c #CACACA",
"+ 	c #ECECEC",
"@ 	c #B9B9B9",
"# 	c #D6D6D6",
"$ 	c #FFFFFF",
"% 	c #E8E8E8",
"& 	c #DADADA",
"* 	c #F1F1F1",
"= 	c #B8B8B8",
"- 	c #D3D3D3",
"; 	c #969CAB",
"> 	c #1C3A85",
", 	c #435A9A",
"' 	c #4C629F",
") 	c #566AA4",
"! 	c #6072AA",
"~ 	c #697AAF",
"{ 	c #7381B4",
"] 	c #7C89B9",
"^ 	c #8591BE",
"/ 	c #8C96C2",
"( 	c #8994C0",
"_ 	c #818DBC",
": 	c #7886B7",
"< 	c #6E7EB2",
"[ 	c #6576AC",
"} 	c #5B6EA7",
"| 	c #4E63A0",
"1 	c #244087",
"2 	c #B1B1B1",
"3 	c #D0D0D0",
"4 	c #8A92A6",
"5 	c #334D92",
"6 	c #415899",
"7 	c #4B609E",
"8 	c #5468A4",
"9 	c #5E70A8",
"0 	c #6677AD",
"a 	c #6F7FB2",
"b 	c #7D8295",
"c 	c #AFAFAF",
"d 	c #747A95",
"e 	c #7B89B9",
"f 	c #7482B5",
"g 	c #6B7BB0",
"h 	c #6274AB",
"i 	c #596CA6",
"j 	c #5065A1",
"k 	c #364F93",
"l 	c #D9D9D9",
"m 	c #ADADAD",
"n 	c #CDCDCD",
"o 	c #858C9E",
"p 	c #354F93",
"q 	c #3E5698",
"r 	c #485E9D",
"s 	c #52659E",
"t 	c #6F7587",
"u 	c #6A728E",
"v 	c #91949E",
"w 	c #F9F9F9",
"x 	c #8B8E9B",
"y 	c #7785B7",
"z 	c #6D789A",
"A 	c #676F89",
"B 	c #5E70A9",
"C 	c #5569A4",
"D 	c #435A9B",
"E 	c #D2D2D2",
"F 	c #AAAAAA",
"G 	c #747B8E",
"H 	c #324C91",
"I 	c #3B5396",
"J 	c #566285",
"K 	c #DBDBDB",
"L 	c #DCDCDC",
"M 	c #959699",
"N 	c #F3F3F3",
"O 	c #CBCBCB",
"P 	c #8A8B8E",
"Q 	c #C1C1C1",
"R 	c #E1E1E1",
"S 	c #616B8B",
"T 	c #586BA5",
"U 	c #3A5295",
"V 	c #C9C9C9",
"W 	c #A7A7A7",
"X 	c #C8C8C8",
"Y 	c #646C80",
"Z 	c #233F89",
"` 	c #3E5597",
" .	c #475D99",
"..	c #888B93",
"+.	c #A4A4A4",
"@.	c #596A9D",
"#.	c #495F9E",
"$.	c #42599A",
"%.	c #25418A",
"&.	c #C0C0C0",
"*.	c #A3A3A3",
"=.	c #C5C5C5",
"-.	c #FEFEFE",
";.	c #575F73",
">.	c #10307E",
",.	c #2A458D",
"'.	c #375094",
").	c #415896",
"!.	c #707585",
"~.	c #E4E4E4",
"{.	c #E6E6E6",
"].	c #B3B3B3",
"^.	c #939393",
"/.	c #848793",
"(.	c #556697",
"_.	c #2B468D",
":.	c #0E2E7D",
"<.	c #B7B7B7",
"[.	c #A0A0A0",
"}.	c #9D9D9D",
"|.	c #AEAEAE",
"1.	c #A6A6A6",
"2.	c #9F9F9F",
"3.	c #9B9B9B",
"4.	c #989898",
"5.	c #969696",
"6.	c #5D6986",
"7.	c #5F6A86",
"8.	c #A1A1A1",
"9.	c #E0E0E0",
"0.	c #BCBCBC",
"a.	c #586487",
"b.	c #5064A1",
"c.	c #5A6588",
"d.	c #CFCFCF",
"e.	c #B0B0B0",
"f.	c #707687",
"g.	c #1D3A85",
"h.	c #ACACAC",
"i.	c #FBFBFB",
"j.	c #9C9C9C",
"k.	c #C4C4C4",
"l.	c #949494",
"m.	c #4A5674",
"n.	c #70778B",
"o.	c #C6C6C6",
"p.	c #CECECE",
"q.	c #495D99",
"r.	c #4C619C",
"s.	c #D5D5D5",
"t.	c #6F778A",
"u.	c #0F2F7E",
"v.	c #F7F7F7",
"w.	c #D7D7D7",
"x.	c #464F67",
"y.	c #4D5D85",
"z.	c #9E9FA4",
"A.	c #D1D1D1",
"B.	c #CCCCCC",
"C.	c #767E93",
"D.	c #4F6294",
"E.	c #9D9FA4",
"F.	c #415486",
"G.	c #254086",
"H.	c #173582",
"I.	c #F2F2F2",
"J.	c #B5B5B5",
"K.	c #D8D8D8",
"L.	c #F8F8F8",
"M.	c #838383",
"N.	c #39425C",
"O.	c #818797",
"P.	c #8A8F9B",
"Q.	c #223E88",
"R.	c #183683",
"S.	c #8A8A8A",
"T.	c #EFEFEF",
"U.	c #8F8F8F",
"V.	c #B2B2B2",
"W.	c #6C6C6C",
"X.	c #C7C7C7",
"Y.	c #5A6992",
"Z.	c #354E93",
"`.	c #2C478E",
" +	c #213E88",
".+	c #7F7F7F",
"++	c #EBEBEB",
"@+	c #BDBDBD",
"#+	c #AAABAE",
"$+	c #767F9B",
"%+	c #B4B6B9",
"&+	c #A1A3AA",
"*+	c #5E6D98",
"=+	c #3F5798",
"-+	c #1F3C87",
";+	c #757575",
">+	c #858585",
",+	c #F6F6F6",
"'+	c #919191",
")+	c #6979AB",
"!+	c #6C7CB1",
"~+	c #989DAD",
"{+	c #9A9DAB",
"]+	c #6777AA",
"^+	c #6675A4",
"/+	c #5367A3",
"(+	c #495E9D",
"_+	c #3D5598",
":+	c #26428B",
"<+	c #727272",
"[+	c #808080",
"}+	c #909090",
"|+	c #7281B4",
"1+	c #7987B8",
"2+	c #858EAF",
"3+	c #9194A0",
"4+	c #707FB3",
"5+	c #6777AE",
"6+	c #5C6FA8",
"7+	c #5166A2",
"8+	c #455C9C",
"9+	c #395195",
"0+	c #707070",
"a+	c #7C7C7C",
"b+	c #EDEDED",
"c+	c #8C8F9B",
"d+	c #8E919C",
"e+	c #8F929D",
"f+	c #8E919D",
"g+	c #8D909C",
"h+	c #888C9A",
"i+	c #868A98",
"j+	c #838896",
"k+	c #808595",
"l+	c #7C8293",
"m+	c #777B88",
"n+	c #777777",
"o+	c #FDFDFD",
"p+	c #FAFAFA",
"q+	c #F0F0F0",
"r+	c #EEEEEE",
"s+	c #8E8E8E",
"t+	c #B6B6B6",
"u+	c #696969",
"v+	c #8C8C8C",
"w+	c #E9E9E9",
"x+	c #8D8D8D",
"y+	c #BEBEBE",
"z+	c #686868",
"A+	c #898989",
"B+	c #FCFCFC",
"C+	c #EAEAEA",
"D+	c #E7E7E7",
"E+	c #E3E3E3",
"F+	c #DDDDDD",
"G+	c #F5F5F5",
"H+	c #E5E5E5",
"I+	c #8B8B8B",
"J+	c #9A9A9A",
"K+	c #9E9E9E",
"L+	c #A2A2A2",
"M+	c #F4F4F4",
"N+	c #D4D4D4",
"O+	c #E2E2E2",
"P+	c #878787",
"Q+	c #DFDFDF",
"R+	c #888888",
"S+	c #818181",
"T+	c #424242",
"U+	c #979797",
"V+	c #DEDEDE",
"W+	c #1B1B1B",
"X+	c #252525",
"Y+	c #272727",
"Z+	c #292929",
"`+	c #2A2A2A",
" @	c #868686",
".@	c #606060",
"                                                                ",
"                                                                ",
"            . + + + + + + + + + + + + + + + + + + + + + + @     ",
"            # $ % & & & & & & & & & & & & & & & & & & * $ =     ",
"            - $ ; > , ' ) ! ~ { ] ^ / ( _ : < [ } | 1 & $ 2     ",
"            3 $ 4 5 6 7 8 9 0 a b c d _ e f g h i j k l $ m     ",
"            n $ o p q r s t u ~ v w x y z A 0 B C ' D E $ F     ",
"            . $ G H I , J K L M n N O P Q R S T j r U V $ W     ",
"            X $ Y Z p `  ...+ + + + + + + +.@.j #.$.%.&.$ *.    ",
"            =.-.;.>.,.'.).!.~.{.].^.= {.{./.(.r $._.:.<.-.[.    ",
"}.|.F 1.*.2.3.4.5.6.:.7.8.V 9.0.a.b.c.0.9.d.e.f.g.:.:.h.i.j.    ",
"|.$ $ $ $ $ $ $ k.l.m.n.o.p.- h.q.r r.m s.3 0.t.u.:.:.8.v.4.    ",
"F $ $ $ $ $ $ $ 0.w.5.x.y.z.A.B.C.D.C.B.A.E.F.G.H.u.:.5.N ^.    ",
"1.$ I.I.I.I.I.I.J.K.L.M.N.O.# # E o.E # # P.H ,.Q.R.u.S.T.U.    ",
"*.$ l l l l l l m V.p.X W.X.L # L L L # L X.Y.Z.`. +H..+++S.    ",
"2.$ $ $ $ $ $ $ - 8.j.4.l.@+#+$+%+R @+$+&+@+*+=+Z.,.-+;+% >+    ",
"3.$ $ $ $ $ $ $ $ -.,+N I.'+)+!+~+{.{+g ]+^+/+(+_+H :+<+~.[+    ",
"4.$ B.B.B.B.B.B.B.X =.K T.}+|+1+2+3+2+y 4+5+6+7+8+9+`.0+9.a+    ",
"l.$ $ $ $ $ $ -.v.I.* T.b+U.c+d+e+e+f+g+x h+i+j+k+l+m++.L n+    ",
"}+$ $ $ o+p+v.N I.q+r+b+++s+t+t+t+t+t+t+t+t+t+t+t+t+t+t+t+u+    ",
"v+$ K.s.- E A.3 d.p.n K w+x+=.=.=.=.=.=.=.y+E n z+              ",
"A+B+++C+% D+{.~.E+R 9.~.D+v+y+~.~.~.~.~.F+3 $ $ v.              ",
"v+,+G+N I.q+r+b+++w+% D+H+I+@ A+e.K =.J+K+w+w i.i.=             ",
"L+M+L K & l w.# s.N+- K E+S.~.R ].].].# O+D+q+* ++a+            ",
"K+I.K l K.w.s.s.- E A.l 9.A+{.{.H+E+E+{.{.{.{.l P+              ",
"3.q+T.b+++w+% D+H+E+R 9.Q+R+m V L L L L Q W S+T+                ",
"U+r++ C+w+% {.~.E+R 9.V+L P+W+X+Y+Y+Z+`+Z+                      ",
"u+U.s+s+x+v+I+S.S.A+R+P+ @.@                                    ",
"                                                                ",
"                                                                ",
"                                                                ",
"                                                                "};
