/* XPM */
static char * exec_xpm[] = {
"32 32 506 2",
"  	c None",
". 	c #FFFFFF",
"+ 	c #7E878B",
"@ 	c #546064",
"# 	c #879093",
"$ 	c #A2A9AB",
"% 	c #BBC0C2",
"& 	c #D2D6D7",
"* 	c #F1F2F3",
"= 	c #E6EAEB",
"- 	c #677C82",
"; 	c #243E47",
"> 	c #233B44",
", 	c #273E47",
"' 	c #5F7178",
") 	c #FEFEFE",
"! 	c #FCFDFD",
"~ 	c #9CADB3",
"{ 	c #40636F",
"] 	c #67838A",
"^ 	c #DEDFDF",
"/ 	c #607B81",
"( 	c #2E5463",
"_ 	c #2E515E",
": 	c #2E525F",
"< 	c #2F525F",
"[ 	c #3A5B68",
"} 	c #EBEEEF",
"| 	c #E6ECEF",
"1 	c #7796A1",
"2 	c #3D6878",
"3 	c #406A7B",
"4 	c #2E6170",
"5 	c #214C56",
"6 	c #A1A8A9",
"7 	c #FCFCFC",
"8 	c #546C72",
"9 	c #4C7381",
"0 	c #48707F",
"a 	c #406A7A",
"b 	c #3A6676",
"c 	c #386475",
"d 	c #3B6C7F",
"e 	c #BEC6C8",
"f 	c #8F9C9F",
"g 	c #6D858D",
"h 	c #ECECED",
"i 	c #C9DAE0",
"j 	c #5F8E9E",
"k 	c #4A7F93",
"l 	c #4A8094",
"m 	c #498196",
"n 	c #1C4855",
"o 	c #001F26",
"p 	c #5E6D70",
"q 	c #DADBDB",
"r 	c #D8D9DA",
"s 	c #3D535B",
"t 	c #A8ADAE",
"u 	c #D9DCDD",
"v 	c #C5CDCF",
"w 	c #B6C3C7",
"x 	c #A7B8BD",
"y 	c #9AB1BB",
"z 	c #A1A7A9",
"A 	c #DFE0E0",
"B 	c #54676B",
"C 	c #01272F",
"D 	c #2E5F6E",
"E 	c #7095A2",
"F 	c #E4E5E5",
"G 	c #C3D8E1",
"H 	c #5796AE",
"I 	c #5896AD",
"J 	c #5193AB",
"K 	c #8BB1C0",
"L 	c #BBC1C3",
"M 	c #3C494B",
"N 	c #000A0D",
"O 	c #1E394B",
"P 	c #345985",
"Q 	c #1E3E5E",
"R 	c #999C9C",
"S 	c #FEFCFB",
"T 	c #FDFBFA",
"U 	c #FBF7F6",
"V 	c #8C8E92",
"W 	c #D2D3D4",
"X 	c #ADAEAE",
"Y 	c #1F3336",
"Z 	c #02191E",
"` 	c #001013",
" .	c #214551",
"..	c #5DA0B9",
"+.	c #6C9AAA",
"@.	c #E1E9EC",
"#.	c #ACD3E2",
"$.	c #63AFCA",
"%.	c #5FAAC5",
"&.	c #9DC2D0",
"*.	c #F1F0F0",
"=.	c #FBF8F8",
"-.	c #DEDDDD",
";.	c #707170",
">.	c #0B141E",
",.	c #3359A1",
"'.	c #355EAB",
").	c #878E9B",
"!.	c #FFFFFC",
"~.	c #FDFDFD",
"{.	c #F9F7F3",
"].	c #6E7B92",
"^.	c #3D5D9B",
"/.	c #1C2B41",
"(.	c #000404",
"_.	c #000506",
":.	c #000000",
"<.	c #0E1E23",
"[.	c #61A9C3",
"}.	c #67B4D1",
"|.	c #7BBCD3",
"1.	c #EFF7FA",
"2.	c #FBFDFD",
"3.	c #9CD4E9",
"4.	c #BBDDE9",
"5.	c #F9F6F5",
"6.	c #F1F0EF",
"7.	c #F1F1F1",
"8.	c #F9F9F9",
"9.	c #FAF9F9",
"0.	c #A9A7A5",
"a.	c #6B7DA3",
"b.	c #8CA7E0",
"c.	c #B5BBC9",
"d.	c #FBFAF8",
"e.	c #7E89A0",
"f.	c #6388D4",
"g.	c #4C6595",
"h.	c #030303",
"i.	c #323232",
"j.	c #969393",
"k.	c #98B3BD",
"l.	c #70BAD6",
"m.	c #72CBEB",
"n.	c #CFE6EE",
"o.	c #DBDCDC",
"p.	c #BFBDBC",
"q.	c #F9F8F6",
"r.	c #FBFAF9",
"s.	c #F3F3F3",
"t.	c #F6F6F6",
"u.	c #FBFBFB",
"v.	c #F3F2F1",
"w.	c #FCFBF9",
"x.	c #FFFFFE",
"y.	c #FCFCFB",
"z.	c #CDCED0",
"A.	c #9EA8BB",
"B.	c #687DA1",
"C.	c #36393E",
"D.	c #959493",
"E.	c #E7E7E7",
"F.	c #F7F6F6",
"G.	c #CFCAC9",
"H.	c #9BA6AA",
"I.	c #84C9E0",
"J.	c #A7C2CC",
"K.	c #EBEBEB",
"L.	c #919498",
"M.	c #C6CACE",
"N.	c #F7F7F6",
"O.	c #F8F8F8",
"P.	c #FAFAFA",
"Q.	c #F6F7F9",
"R.	c #F0F0EF",
"S.	c #F0F1F0",
"T.	c #F5F7F9",
"U.	c #FCFFFF",
"V.	c #FAF9F7",
"W.	c #D8D8D8",
"X.	c #E6E7E8",
"Y.	c #DFDFDF",
"Z.	c #E3E3E3",
"`.	c #E9E6E5",
" +	c #C3C4C5",
".+	c #98A4A8",
"++	c #DBE3E7",
"@+	c #7D7D7D",
"#+	c #6F6F6F",
"$+	c #616161",
"%+	c #383B43",
"&+	c #1D4367",
"*+	c #AAB3BC",
"=+	c #FEFEFC",
"-+	c #F9FCFF",
";+	c #CAC2B6",
">+	c #AA8A61",
",+	c #A77432",
"'+	c #AD7326",
")+	c #B07627",
"!+	c #AF7A34",
"~+	c #B38E59",
"{+	c #C2B199",
"]+	c #E8E8E8",
"^+	c #F7F7F7",
"/+	c #ABABAB",
"(+	c #8D8D8C",
"_+	c #C2C2C1",
":+	c #F4F4F4",
"<+	c #C7CCCE",
"[+	c #18282F",
"}+	c #000105",
"|+	c #000307",
"1+	c #000005",
"2+	c #284C6F",
"3+	c #CBD3DB",
"4+	c #ECEDEF",
"5+	c #A18560",
"6+	c #A55F06",
"7+	c #D1821C",
"8+	c #EA9B32",
"9+	c #F4A63C",
"0+	c #F8A83D",
"a+	c #F3A034",
"b+	c #E28A1A",
"c+	c #C57003",
"d+	c #A66C1E",
"e+	c #B7A893",
"f+	c #F3F6F9",
"g+	c #F2F2F2",
"h+	c #AEAFB0",
"i+	c #313537",
"j+	c #0A0E11",
"k+	c #2D3032",
"l+	c #C7C7C7",
"m+	c #748992",
"n+	c #717579",
"o+	c #71787B",
"p+	c #61696C",
"q+	c #8C9197",
"r+	c #F5F5F5",
"s+	c #F8F9F8",
"t+	c #F9FBFD",
"u+	c #A38B6A",
"v+	c #B36B0E",
"w+	c #F5CC7F",
"x+	c #FFE38F",
"y+	c #FFE18C",
"z+	c #FFD07D",
"A+	c #FFBA5F",
"B+	c #FFB554",
"C+	c #FFBD5B",
"D+	c #FFB34B",
"E+	c #E98A12",
"F+	c #A95E00",
"G+	c #A08C6D",
"H+	c #EBEDF1",
"I+	c #A6A7A7",
"J+	c #151F25",
"K+	c #02111B",
"L+	c #081923",
"M+	c #2B373D",
"N+	c #C8C8C8",
"O+	c #929FA4",
"P+	c #D0D2D3",
"Q+	c #FBFAFA",
"R+	c #F8F7F6",
"S+	c #F0F0F0",
"T+	c #FAFBFC",
"U+	c #DDDCDA",
"V+	c #A1671D",
"W+	c #F1D093",
"X+	c #FFFCC4",
"Y+	c #FFFAAF",
"Z+	c #FFDD97",
"`+	c #F5A13C",
" @	c #E5880F",
".@	c #E3860D",
"+@	c #F59E30",
"@@	c #FFC366",
"#@	c #FFBB5A",
"$@	c #E0850F",
"%@	c #945602",
"&@	c #ADA69D",
"*@	c #E7E9EB",
"=@	c #D7D7D7",
"-@	c #9A9EA0",
";@	c #7E868C",
">@	c #7D878D",
",@	c #7B868D",
"'@	c #7A7F83",
")@	c #DADADA",
"!@	c #B7BCBE",
"~@	c #959FA2",
"{@	c #E3E2E1",
"]@	c #E6E6E6",
"^@	c #EAEAEA",
"/@	c #EEEEEE",
"(@	c #F9FBFC",
"_@	c #D2CCC4",
":@	c #B57729",
"<@	c #FEE59C",
"[@	c #FFEA99",
"}@	c #FFF2B0",
"|@	c #F4A545",
"1@	c #AF701E",
"2@	c #92764F",
"3@	c #957547",
"4@	c #C9790B",
"5@	c #FFB349",
"6@	c #FFD57A",
"7@	c #F09E39",
"8@	c #AB5F01",
"9@	c #907B59",
"0@	c #D9DDE2",
"a@	c #D9D9D9",
"b@	c #E2E1E1",
"c@	c #EBE9E9",
"d@	c #EAE9E8",
"e@	c #ECEAEA",
"f@	c #939292",
"g@	c #C6C6C6",
"h@	c #788387",
"i@	c #D7D6D5",
"j@	c #E5E5E5",
"k@	c #F5F7F8",
"l@	c #DED9D4",
"m@	c #BC7C2F",
"n@	c #FEBC5A",
"o@	c #FFDC8C",
"p@	c #FCBD69",
"q@	c #B17326",
"r@	c #AFAEAD",
"s@	c #E9E9E9",
"t@	c #B7AA9B",
"u@	c #FCA82F",
"v@	c #FFDF7E",
"w@	c #F6B55D",
"x@	c #B06305",
"y@	c #94774E",
"z@	c #D5D9DF",
"A@	c #D6D6D6",
"B@	c #CCCCCC",
"C@	c #C4C4C4",
"D@	c #C0C0C0",
"E@	c #B5B5B5",
"F@	c #7C7C7C",
"G@	c #ABADAE",
"H@	c #C1C2C2",
"I@	c #EFF0F0",
"J@	c #EFF1F3",
"K@	c #BB874C",
"L@	c #F9A740",
"M@	c #FFC168",
"N@	c #ED9429",
"O@	c #9E6922",
"P@	c #D0D0D0",
"Q@	c #D1C3B1",
"R@	c #FEBB36",
"S@	c #FFF39A",
"T@	c #F2B566",
"U@	c #A65F0D",
"V@	c #B09D82",
"W@	c #DCDFE3",
"X@	c #E1E1E1",
"Y@	c #D4D4D4",
"Z@	c #9B9B9B",
"`@	c #A7A7A7",
" #	c #9F9F9F",
".#	c #989898",
"+#	c #979797",
"@#	c #989695",
"##	c #CDCBCA",
"$#	c #F9FDFF",
"%#	c #CEB89F",
"&#	c #DC8A2C",
"*#	c #FFB251",
"=#	c #F29623",
"-#	c #D97F00",
";#	c #B67F33",
">#	c #B99F7C",
",#	c #C69F6A",
"'#	c #FAAA25",
")#	c #FFEB9B",
"!#	c #FFEFC2",
"~#	c #D2893B",
"{#	c #A06C2C",
"]#	c #DCDBD8",
"^#	c #DCDCDD",
"/#	c #949393",
"(#	c #939393",
"_#	c #969696",
":#	c #DCDCDC",
"<#	c #ECECEC",
"[#	c #B1B7BA",
"}#	c #8C98A0",
"|#	c #E1E0DF",
"1#	c #F1F4F6",
"2#	c #C29460",
"3#	c #E9912D",
"4#	c #FFA945",
"5#	c #FB9F2D",
"6#	c #FD9D1E",
"7#	c #FFA51E",
"8#	c #FFB635",
"9#	c #FFDE7E",
"0#	c #FCE4BA",
"a#	c #D8924E",
"b#	c #A5651A",
"c#	c #E8EAED",
"d#	c #979C9F",
"e#	c #8D8F90",
"f#	c #D6DADD",
"g#	c #67A9D1",
"h#	c #5A91B1",
"i#	c #B5B7B8",
"j#	c #EBECED",
"k#	c #BF9056",
"l#	c #D07D1A",
"m#	c #EC9634",
"n#	c #F5A141",
"o#	c #F6A748",
"p#	c #EFAA50",
"q#	c #DE9C48",
"r#	c #BC7018",
"s#	c #A86D24",
"t#	c #D5C6B2",
"u#	c #E3E7EB",
"v#	c #CFCECE",
"w#	c #A8AFB3",
"x#	c #7E888E",
"y#	c #EFEFEF",
"z#	c #E9EAEA",
"A#	c #6CB1DA",
"B#	c #86B6D3",
"C#	c #D8D7D6",
"D#	c #E2E3E5",
"E#	c #EAECED",
"F#	c #C6B08F",
"G#	c #B17B32",
"H#	c #B26D11",
"I#	c #B16A0E",
"J#	c #AD6810",
"K#	c #AA7128",
"L#	c #C1A276",
"M#	c #E7E4DD",
"N#	c #E2E4E8",
"O#	c #C5C5C5",
"P#	c #CCCBCA",
"Q#	c #ADB0B2",
"R#	c #AFAFB0",
"S#	c #9DB2BE",
"T#	c #DFE9EF",
"U#	c #DCDAD8",
"V#	c #CECECE",
"W#	c #EBEFF4",
"X#	c #D7D1C8",
"Y#	c #D3C8B8",
"Z#	c #DAD3C8",
"`#	c #E3E3E1",
" $	c #ECEFF4",
".$	c #C4C5C7",
"+$	c #B0AFAF",
"@$	c #BFBFBF",
"#$	c #B4B4B4",
"$$	c #807F7F",
"%$	c #BABABA",
"&$	c #CBCACA",
"*$	c #A7A6A6",
"=$	c #CACACA",
"-$	c #D5D5D5",
";$	c #A3A3A3",
">$	c #8C8C8C",
",$	c #CBCCCE",
"'$	c #D1D3D7",
")$	c #D0D2D4",
"!$	c #CBCCCD",
"~$	c #8B8B8B",
"{$	c #959595",
"]$	c #A6A6A6",
"^$	c #ACACAC",
"/$	c #7E7E7E",
"($	c #B9B9B9",
"_$	c #C2C2C2",
":$	c #878787",
"<$	c #DDDDDD",
"[$	c #9AA2A7",
"}$	c #9BA5A9",
"|$	c #C1C0C0",
"1$	c #BCBCBC",
"2$	c #A1A1A1",
"3$	c #A5A5A5",
"4$	c #898989",
"5$	c #CFCFCF",
"6$	c #838383",
"7$	c #E6E8E8",
"8$	c #8EA2A9",
"9$	c #BDBBBA",
"0$	c #B8B8B8",
"a$	c #B2B2B2",
"b$	c #91999C",
"c$	c #A1A09F",
"d$	c #919191",
"e$	c #868686",
"f$	c #BDBDBD",
"g$	c #A0A0A0",
". . . . . . . . . . . . . . . . . . . . . . . . . . . . . . . . ",
". . . . . . . . . . . . . . . . . . . . . . . . . . . . . . . . ",
". . . . . . . . . . . . . . . . . . . . . . . . . . . . . . . . ",
". . . . . . . . . . . . + @ # $ % & * . . . . . . . . . . . . . ",
". . . . . = . . . . . . - ; > > > , ' ) . . . . . . . . . . . . ",
". . . ! ~ { ] ^ . . . . / ( _ : < < [ } . . . . . . . . . . . . ",
". . | 1 2 3 4 5 6 7 . . 8 9 0 a b c d e . . . . f g h . . . . . ",
". i j k l l m n o p q r s t u v w x y z . . A B C D E F . . . . ",
". G H I H J K L M N O P Q R . . S T U V W X Y Z `  ...+.@.. . . ",
". . #.$.%.&.*.=.-.;.>.,.'.).!.) ~.) {.].^./.(._.:.<.[.}.|.1.. . ",
". . 2.3.4.5.6.7.8.9.0.a.b.c.d.. . . {.e.f.g.:.h.i.j.k.l.m.n.. . ",
". . . o.p.q.r.s.t.u.. v.w.x.. . . . y.z.A.B.C.D.E.F.G.H.I.J.. . ",
". . . . K.L.M.N.O.P.. . . . Q.R.S.T.U.. V.W.X.~.K.Y.Z.`. +.+P.. ",
". ++@+#+$+%+&+*+=+u.. -+;+>+,+'+)+!+~+{+]+. ^+K.]+7.]+/+(+_+:+. ",
". <+[+}+|+1+2+3+T . 4+5+6+7+8+9+0+a+b+c+d+e+f+g+]+h+i+j+k+l+. . ",
". g+m+n+o+p+q+r+s+t+u+v+w+x+y+z+A+B+C+D+E+F+G+H+]+I+J+K+L+M+N+7 ",
". . O+P+Q+9.R+S+T+U+V+W+X+Y+Z+`+ @.@+@@@#@$@%@&@*@=@-@;@>@,@'@)@",
". . !@~@{@]@^@/@(@_@:@<@[@}@|@1@2@3@4@5@6@7@8@9@0@a@b@c@d@e@f@g@",
". . S+h@i@j@E.K.k@l@m@n@o@p@q@r@s@7.t@u@v@w@x@y@z@A@B@C@D@E@F@Z.",
". . . G@H@7.g+r+I@J@K@L@M@N@O@P@. . Q@R@S@T@U@V@W@X@Y.A@Y@Z@`@O.",
". . . r+ #.#+#@###$#%#&#*#=#-#;#>#,#'#)#!#~#{#]#^#/#(#_#_#.#:#) ",
". . . . P.s@<#[#}#|#1#2#3#4#5#6#7#8#9#0#a#b#Q@c#d#e#^@t.r+r+u.. ",
". . . . . . f#g#h#i#j#d@k#l#m#n#o#p#q#r#s#t#u#v#w#x#y#. . . . . ",
". . . . . . z#A#B#b@C#D#E#F#G#H#I#J#K#L#M#N#O#D@P#Q#R#~.. . . . ",
". . . . . . . S#T#U#V#P@o.W#X.X#Y#Z#`# $.$+$D@@$#$$$%$O.. . . . ",
". . . . . . . &$*$C@=$-$;$>$h+,$'$)$!$~$_#{$]$^$/$C@s.) . . . . ",
". . . . . . . . N+>$($_$:$<$[$}$|$C@1$2$:+) 3$4$5$8.. . . . . . ",
". . . . . . . . . s@(#6$l+. 7$8$9$D@0$a$. . . 7.P.. . . . . . . ",
". . . . . . . . . . ^+a@S+. 7 b$c$d$e$f$. . . . . . . . . . . . ",
". . . . . . . . . . . . . . . C@g$a$l+E.) . . . . . . . . . . . ",
". . . . . . . . . . . . . . . . u.. . . . . . . . . . . . . . . ",
". . . . . . . . . . . . . . . . . . . . . . . . . . . . . . . . "};
