/* XPM */
static char * flfact_tpv_xpm[] = {
"32 32 483 2",
"  	c None",
". 	c #D1D1D1",
"+ 	c #F2F2F2",
"@ 	c #F7F7F5",
"# 	c #FBF8F3",
"$ 	c #F8F5F0",
"% 	c #F8F6F0",
"& 	c #F9F6F0",
"* 	c #FAF7F1",
"= 	c #FBF9F4",
"- 	c #F5F5F4",
"; 	c #F1F1F1",
"> 	c #C9C9C9",
", 	c #BEBEBE",
"' 	c #EFEFEF",
") 	c #E6E5E3",
"! 	c #C8CBD0",
"~ 	c #788EB8",
"{ 	c #627EB4",
"] 	c #6480B5",
"^ 	c #6581B6",
"/ 	c #6682B6",
"( 	c #6782B6",
"_ 	c #6783B6",
": 	c #6782B5",
"< 	c #6883B7",
"[ 	c #99A8C5",
"} 	c #E0E0DE",
"| 	c #E5E4E3",
"1 	c #AEAEAE",
"2 	c #DFDFDF",
"3 	c #E6E5E4",
"4 	c #C7CBD0",
"5 	c #4167AD",
"6 	c #597EC3",
"7 	c #7594CE",
"8 	c #6F90CD",
"9 	c #6D8ECD",
"0 	c #698BCC",
"a 	c #6487CA",
"b 	c #5F83C9",
"c 	c #5A7FC7",
"d 	c #547AC5",
"e 	c #4D75C2",
"f 	c #4770C0",
"g 	c #416BBE",
"h 	c #3B66BC",
"i 	c #3562BA",
"j 	c #2E5DB8",
"k 	c #2958B5",
"l 	c #2254B3",
"m 	c #1D4FB0",
"n 	c #1649AB",
"o 	c #0D42A5",
"p 	c #718CBE",
"q 	c #E5E4E1",
"r 	c #E5E4E4",
"s 	c #D9D9D9",
"t 	c #DBDBDB",
"u 	c #EAE7E2",
"v 	c #7E94BB",
"w 	c #446FBC",
"x 	c #C3D1EA",
"y 	c #BCCBE9",
"z 	c #B5C6E8",
"A 	c #AFC2E6",
"B 	c #A7BCE4",
"C 	c #9FB6E1",
"D 	c #96AEDF",
"E 	c #8CA7DC",
"F 	c #82A0D8",
"G 	c #7998D5",
"H 	c #6E90D2",
"I 	c #6489CF",
"J 	c #5B81CC",
"K 	c #527AC9",
"L 	c #4A74C7",
"M 	c #426EC4",
"N 	c #3B68C1",
"O 	c #3362BD",
"P 	c #2C5CB8",
"Q 	c #1B4FAE",
"R 	c #174BA9",
"S 	c #C5CCD9",
"T 	c #E7E5E3",
"U 	c #D6D6D6",
"V 	c #DADADA",
"W 	c #E9E6DF",
"X 	c #718BBA",
"Y 	c #517AC3",
"Z 	c #B6C7E7",
"` 	c #A1B8E4",
" .	c #9AB3E3",
"..	c #92ADE1",
"+.	c #88A6DE",
"@.	c #7F9FDC",
"#.	c #7598D9",
"$.	c #6D91D7",
"%.	c #648AD4",
"&.	c #5B83D2",
"*.	c #537DCF",
"=.	c #4C78CE",
"-.	c #4573CC",
";.	c #3F6ECA",
">.	c #396AC8",
",.	c #3466C6",
"'.	c #2E61C2",
").	c #275BBC",
"!.	c #1D53B4",
"~.	c #154BAC",
"{.	c #B3BFD5",
"].	c #E8E6E2",
"^.	c #D4D4D4",
"/.	c #D7D7D7",
"(.	c #E6E3DD",
"_.	c #738EBB",
":.	c #4C78C5",
"<.	c #A7BDE5",
"[.	c #99B3E3",
"}.	c #92AFE3",
"|.	c #8BAAE3",
"1.	c #82A3E1",
"2.	c #789CDF",
"3.	c #6F96DD",
"4.	c #678FDB",
"5.	c #5F89D9",
"6.	c #5783D7",
"7.	c #507FD5",
"8.	c #4A7AD4",
"9.	c #4476D2",
"0.	c #3F72D1",
"a.	c #3A6ED0",
"b.	c #366BCF",
"c.	c #3168CD",
"d.	c #2D64C9",
"e.	c #275FC3",
"f.	c #1D56BA",
"g.	c #1850B1",
"h.	c #B4C0D4",
"i.	c #E4E3DF",
"j.	c #D2D2D2",
"k.	c #D5D5D5",
"l.	c #E4E0DA",
"m.	c #7590BD",
"n.	c #4777C8",
"o.	c #96B2E4",
"p.	c #89AAE3",
"q.	c #82A6E4",
"r.	c #7AA1E4",
"s.	c #729BE3",
"t.	c #6994E1",
"u.	c #618FE0",
"v.	c #5A8ADE",
"w.	c #5385DD",
"x.	c #4D80DB",
"y.	c #477DDA",
"z.	c #4379D9",
"A.	c #3E76D8",
"B.	c #3B74D8",
"C.	c #3871D7",
"D.	c #356FD6",
"E.	c #316CD5",
"F.	c #2D68D1",
"G.	c #2863CB",
"H.	c #1E5BC2",
"I.	c #1C55B7",
"J.	c #B3BFD3",
"K.	c #E1E0DC",
"L.	c #D0D0D0",
"M.	c #E1DDD7",
"N.	c #7691BE",
"O.	c #4074C9",
"P.	c #82A6E1",
"Q.	c #779FE3",
"R.	c #719CE5",
"S.	c #6A99E5",
"T.	c #6393E5",
"U.	c #5B8EE4",
"V.	c #558AE3",
"W.	c #4F86E2",
"X.	c #4A82E1",
"Y.	c #457FE0",
"Z.	c #417DE0",
"`.	c #3E7ADF",
" +	c #3B78DF",
".+	c #3976DE",
"++	c #3775DF",
"@+	c #3574DE",
"#+	c #3272DD",
"$+	c #2E6ED8",
"%+	c #2968D1",
"&+	c #215FC7",
"*+	c #1E59BC",
"=+	c #B1BED2",
"-+	c #DFDDD9",
";+	c #CDCDCD",
">+	c #CFCFCF",
",+	c #DEDAD4",
"'+	c #7792BF",
")+	c #3870CA",
"!+	c #6E99DF",
"~+	c #6596E3",
"{+	c #6194E6",
"]+	c #5C92E9",
"^+	c #568FE9",
"/+	c #508AE8",
"(+	c #4B87E7",
"_+	c #4785E7",
":+	c #4382E6",
"<+	c #4080E6",
"[+	c #3D7EE5",
"}+	c #3B7DE6",
"|+	c #397CE6",
"1+	c #387AE5",
"2+	c #377AE4",
"3+	c #3679E5",
"4+	c #3478E3",
"5+	c #3074DE",
"6+	c #2C6ED7",
"7+	c #2464CC",
"8+	c #205DC0",
"9+	c #B0BDD1",
"0+	c #DCDAD6",
"a+	c #CACACA",
"b+	c #DAD6D1",
"c+	c #7793BF",
"d+	c #316DCC",
"e+	c #5B8FDF",
"f+	c #568EE5",
"g+	c #548FEA",
"h+	c #508FED",
"i+	c #4C8CED",
"j+	c #488AED",
"k+	c #4587EC",
"l+	c #4286EC",
"m+	c #3F84ED",
"n+	c #3E83EC",
"o+	c #3D82EC",
"p+	c #3B81EB",
"q+	c #3A80EB",
"r+	c #3980EC",
"s+	c #3980EB",
"t+	c #387FEB",
"u+	c #377EE9",
"v+	c #347AE5",
"w+	c #2F74DD",
"x+	c #2569D1",
"y+	c #2261C4",
"z+	c #AFBBCF",
"A+	c #DAD7D4",
"B+	c #C8C8C8",
"C+	c #D8D4CD",
"D+	c #7794BF",
"E+	c #2B6CCE",
"F+	c #4B87DF",
"G+	c #4A8AE8",
"H+	c #4A8DEF",
"I+	c #498EF2",
"J+	c #478DF3",
"K+	c #448CF3",
"L+	c #418AF3",
"M+	c #4089F3",
"N+	c #3F88F3",
"O+	c #3E88F3",
"P+	c #3D87F2",
"Q+	c #3C86F2",
"R+	c #3C87F2",
"S+	c #3B87F2",
"T+	c #3B86F2",
"U+	c #3A85F0",
"V+	c #3780EB",
"W+	c #3279E2",
"X+	c #286ED6",
"Y+	c #2465C7",
"Z+	c #ACBACE",
"`+	c #D6D3D1",
" @	c #C5C5C5",
".@	c #C7C7C7",
"+@	c #D4D0CA",
"@@	c #7894BF",
"#@	c #266BCF",
"$@	c #4082E1",
"%@	c #4289EB",
"&@	c #448DF3",
"*@	c #4590F8",
"=@	c #4490F9",
"-@	c #428FF9",
";@	c #418FF9",
">@	c #408EF9",
",@	c #408DF9",
"'@	c #3F8DF9",
")@	c #3E8DF9",
"!@	c #3D8BF7",
"~@	c #3987F1",
"{@	c #347FE8",
"]@	c #2A73DA",
"^@	c #2669CB",
"/@	c #ABB8CC",
"(@	c #D3D1CD",
"_@	c #C2C2C2",
":@	c #C3C3C3",
"<@	c #D0CCC6",
"[@	c #7794BE",
"}@	c #236BD2",
"|@	c #3980E4",
"1@	c #3D89EF",
"2@	c #4190F7",
"3@	c #4393FC",
"4@	c #4394FD",
"5@	c #4393FD",
"6@	c #4293FD",
"7@	c #4193FD",
"8@	c #4190FB",
"9@	c #3D8BF4",
"0@	c #3783EB",
"a@	c #2C77DE",
"b@	c #276CCD",
"c@	c #A9B6CB",
"d@	c #CFCDC9",
"e@	c #BFBFBF",
"f@	c #CCC8C2",
"g@	c #7593BB",
"h@	c #216BD0",
"i@	c #347FE1",
"j@	c #3C89ED",
"k@	c #4090F6",
"l@	c #4395FB",
"m@	c #4396FC",
"n@	c #4296FC",
"o@	c #4295FC",
"p@	c #4193FA",
"q@	c #3D8DF4",
"r@	c #3785EA",
"s@	c #2D77DC",
"t@	c #276CCB",
"u@	c #A6B4C8",
"v@	c #CBC9C5",
"w@	c #BABABA",
"x@	c #BBBBBB",
"y@	c #C8C4BE",
"z@	c #728FB8",
"A@	c #1E68CB",
"B@	c #307BDA",
"C@	c #3885E6",
"D@	c #3D8DEF",
"E@	c #4092F4",
"F@	c #4193F6",
"G@	c #4194F6",
"H@	c #4093F6",
"I@	c #3F91F3",
"J@	c #3B8BED",
"K@	c #3583E3",
"L@	c #2A75D6",
"M@	c #256AC6",
"N@	c #A3B1C4",
"O@	c #C7C4C1",
"P@	c #B7B7B7",
"Q@	c #C4C0BA",
"R@	c #718FB6",
"S@	c #1963C4",
"T@	c #2A74D1",
"U@	c #327EDD",
"V@	c #3786E5",
"W@	c #3B8BE9",
"X@	c #3C8CEB",
"Y@	c #3C8DEB",
"Z@	c #3B8CEB",
"`@	c #3A8AE8",
" #	c #3684E3",
".#	c #307CDA",
"+#	c #266FCD",
"@#	c #2166C2",
"##	c #A4B1C3",
"$#	c #C2C0BD",
"%#	c #B3B3B3",
"&#	c #BDBAB7",
"*#	c #91A1B5",
"=#	c #1E63BF",
"-#	c #1C65C5",
";#	c #2771CF",
">#	c #2C77D7",
",#	c #2F7CDB",
"'#	c #307EDD",
")#	c #2E7ADA",
"!#	c #2B76D5",
"~#	c #246DCC",
"{#	c #145FC2",
"]#	c #3F78C5",
"^#	c #BCBFC2",
"/#	c #BAB9B7",
"(#	c #B0B0B0",
"_#	c #B4B4B3",
":#	c #B6B4B1",
"<#	c #8099BC",
"[#	c #3672C2",
"}#	c #2A6CC4",
"|#	c #2E70C8",
"1#	c #3174CC",
"2#	c #3175CE",
"3#	c #3275CE",
"4#	c #3175CD",
"5#	c #3073CB",
"6#	c #2D6FC7",
"7#	c #2A6CC3",
"8#	c #4A80C6",
"9#	c #A8B5C7",
"0#	c #BAB7B5",
"a#	c #B5B5B5",
"b#	c #A7A7A7",
"c#	c #737373",
"d#	c #B0AFAF",
"e#	c #B7B4B1",
"f#	c #B4B7BA",
"g#	c #B0B6C0",
"h#	c #AFB6C0",
"i#	c #B0B7C0",
"j#	c #AFB6BF",
"k#	c #ADB4BD",
"l#	c #B2B8C0",
"m#	c #BDBDBD",
"n#	c #B7B5B2",
"o#	c #AEAFAF",
"p#	c #666666",
"q#	c #6E6E6E",
"r#	c #A1A1A1",
"s#	c #A4A4A3",
"t#	c #A5A4A2",
"u#	c #A6A5A3",
"v#	c #A5A3A1",
"w#	c #A3A19F",
"x#	c #9F9D9B",
"y#	c #9B9A98",
"z#	c #A09E9C",
"A#	c #ACAAA8",
"B#	c #ACABA9",
"C#	c #A9A8A6",
"D#	c #9A9997",
"E#	c #9C9B99",
"F#	c #A3A29F",
"G#	c #A4A3A2",
"H#	c #A4A4A4",
"I#	c #A0A0A0",
"J#	c #656565",
"K#	c #4B4B4B",
"L#	c #686868",
"M#	c #909090",
"N#	c #D3D3D3",
"O#	c #7B7B7B",
"P#	c #616161",
"Q#	c #444444",
"R#	c #8E8E8E",
"S#	c #BCBCBC",
"T#	c #DDDDDD",
"U#	c #E1E1E1",
"V#	c #828282",
"W#	c #7F7F7F",
"X#	c #B9B9B9",
"Y#	c #CCCCCC",
"Z#	c #CBCBCB",
"`#	c #CECECE",
" $	c #D8D8D8",
".$	c #989898",
"+$	c #E7E7E7",
"@$	c #E0E0E0",
"#$	c #ECECEC",
"$$	c #E2E2E2",
"%$	c #C6C6C6",
"&$	c #F0F0F0",
"*$	c #E9E9E9",
"=$	c #E6E6E6",
"-$	c #E5E5E5",
";$	c #EAEAEA",
">$	c #EEEEEE",
",$	c #5D5D5D",
"'$	c #A6A6A6",
")$	c #E8E8E8",
"!$	c #F4F4F4",
"~$	c #9C9C9C",
"{$	c #949494",
"]$	c #A5A5A5",
"^$	c #9F9F9F",
"/$	c #929292",
"($	c #7E7E7E",
"                                                                ",
"                                                                ",
"      . + @ # $ $ $ $ $ $ $ $ $ % % % % & & & & * = - ; >       ",
"    , ' ) ! ~ { ] ^ ^ ^ ^ / / / / ( ( _ _ _ _ : < [ } | ; 1     ",
"    2 3 4 5 6 7 8 9 0 a b c d e f g h i j k l m n o p q r s     ",
"    t u v w x y z A B C D E F G H I J K L M N O P Q R S T U     ",
"    V W X Y Z B `  ...+.@.#.$.%.&.*.=.-.;.>.,.'.).!.~.{.].^.    ",
"    /.(._.:.<.[.}.|.1.2.3.4.5.6.7.8.9.0.a.b.c.d.e.f.g.h.i.j.    ",
"    k.l.m.n.o.p.q.r.s.t.u.v.w.x.y.z.A.B.C.D.E.F.G.H.I.J.K.L.    ",
"    j.M.N.O.P.Q.R.S.T.U.V.W.X.Y.Z.`. +.+++@+#+$+%+&+*+=+-+;+    ",
"    >+,+'+)+!+~+{+]+^+/+(+_+:+<+[+}+|+1+2+3+4+5+6+7+8+9+0+a+    ",
"    ;+b+c+d+e+f+g+h+i+j+k+l+m+n+o+p+q+r+s+t+u+v+w+x+y+z+A+B+    ",
"    a+C+D+E+F+G+H+I+J+K+L+M+N+O+P+P+Q+R+S+T+U+V+W+X+Y+Z+`+ @    ",
"    .@+@@@#@$@%@&@*@=@-@;@>@>@>@,@,@'@'@)@)@!@~@{@]@^@/@(@_@    ",
"    :@<@[@}@|@1@2@3@4@4@5@5@5@5@6@6@7@7@6@6@8@9@0@a@b@c@d@,     ",
"    e@f@g@h@i@j@k@l@m@m@m@m@n@n@n@n@n@n@n@o@p@q@r@s@t@u@v@w@    ",
"    x@y@z@A@B@C@D@E@F@G@G@G@G@G@G@G@G@G@G@H@I@J@K@L@M@N@O@P@    ",
"    P@Q@R@S@T@U@V@W@X@Y@Y@Y@Y@Y@Y@Y@Y@Y@Y@Z@`@ #.#+#@###$#%#    ",
"    %#&#*#=#-#;#>#,#'#'#'#'#'#'#'#'#'#'#'#'#)#!#~#{#]#^#/#(#    ",
"    1 _#:#<#[#}#|#1#2#3#3#3#3#3#3#3#3#3#3#4#5#6#7#8#9#0#a#b#    ",
"    c#w@d#e#f#g#h#g#i#i#i#j#k#k#k#k#h#i#i#i#h#h#l#m#n#o#w@p#    ",
"      q#r#s#t#u#u#v#w#x#y#z#A#A#B#C#D#E#z#F#v#u#u#G#H#I#J#      ",
"                      K#L#M#_@> N#;+O#P#Q#                      ",
"                  R#S#N#2 N#m#.@. T#U#t >+%#V#                  ",
"            W#x@^.V U N#^. @(#X#_@;+. j.N#/.V >+%#q#            ",
"          1 U >+. >+>+>+>+Y#, x@_@Z#>+>+>+>+>+. `# $.$          ",
"          +$/./. $ $ $ $/. $s  $ $ $ $ $ $ $ $/./. $@$          ",
"          t #$U#U#U#U#U#U#U#U#U#U#U#U#U#U#U#U#U#$$' .@          ",
"            %$+ &$*$+$=$-$-$-$-$-$-$-$-$=$+$;$+ >$a#            ",
"              ,$'$/.)$+ !$; &$' ' &$; !$&$=$j.~$                ",
"                      L#V#{$r#]$]$^$/$($P#                      ",
"                                                                "};
