/* XPM */
static char * flmaveppal_xpm[] = {
"32 32 372 2",
"  	c None",
". 	c #60564A",
"+ 	c #5E5448",
"@ 	c #5B5346",
"# 	c #585045",
"$ 	c #554E43",
"% 	c #524B41",
"& 	c #504940",
"* 	c #4C463E",
"= 	c #4A453D",
"- 	c #46423B",
"; 	c #44403A",
"> 	c #413E38",
", 	c #3B3935",
"' 	c #494949",
") 	c #A9A49E",
"! 	c #CECECE",
"~ 	c #CDCDCD",
"{ 	c #C9C9C9",
"] 	c #B7B7B7",
"^ 	c #9D9D9D",
"/ 	c #666666",
"( 	c #767676",
"_ 	c #AAA59F",
": 	c #FAFAFA",
"< 	c #F7F7F7",
"[ 	c #E8E8E8",
"} 	c #CFCFCF",
"| 	c #929292",
"1 	c #A0A0A0",
"2 	c #606060",
"3 	c #F8F8F8",
"4 	c #E9E9E9",
"5 	c #AEAEAE",
"6 	c #BCBCBC",
"7 	c #BEBEBE",
"8 	c #696969",
"9 	c #A8A49E",
"0 	c #B9B9B9",
"a 	c #C0C0C0",
"b 	c #EBEBEB",
"c 	c #535353",
"d 	c #A7A39D",
"e 	c #B3B3B3",
"f 	c #F6F6F6",
"g 	c #F1F1F1",
"h 	c #6D6D6D",
"i 	c #A6A29D",
"j 	c #A5A5A5",
"k 	c #E6E6E6",
"l 	c #C1C1C1",
"m 	c #A6A29C",
"n 	c #E3E3E3",
"o 	c #B7B6B5",
"p 	c #9C9D9C",
"q 	c #686C6C",
"r 	c #7C7E7E",
"s 	c #D1D1D1",
"t 	c #626262",
"u 	c #50504F",
"v 	c #585856",
"w 	c #61605D",
"x 	c #686765",
"y 	c #696868",
"z 	c #686868",
"A 	c #575550",
"B 	c #828484",
"C 	c #9FA9AE",
"D 	c #8995A6",
"E 	c #5D6F95",
"F 	c #8E8D8C",
"G 	c #EAEAEA",
"H 	c #E0E0E0",
"I 	c #C3C3C1",
"J 	c #B0AEAA",
"K 	c #95928C",
"L 	c #827E78",
"M 	c #63615E",
"N 	c #4F4E4C",
"O 	c #2D2E2D",
"P 	c #788089",
"Q 	c #9AAAC2",
"R 	c #7390B0",
"S 	c #275A8C",
"T 	c #2C72A3",
"U 	c #2B70A1",
"V 	c #777877",
"W 	c #D9D9D9",
"X 	c #E0E0DF",
"Y 	c #F9F9F9",
"Z 	c #DEDEDD",
"` 	c #D0CECD",
" .	c #B9B6B2",
"..	c #A6A299",
"+.	c #88837B",
"@.	c #484541",
"#.	c #8596B3",
"$.	c #4D759E",
"%.	c #2F81B1",
"&.	c #318BBA",
"*.	c #35A1CF",
"=.	c #339BCA",
"-.	c #3296C5",
";.	c #C6C6C6",
">.	c #F2F2F2",
",.	c #7F8181",
"'.	c #E1E1E1",
").	c #F6F5F4",
"!.	c #EAE8E5",
"~.	c #DBD8D4",
"{.	c #CBC7C0",
"].	c #BBB5AB",
"^.	c #98928B",
"/.	c #4A4641",
"(.	c #4B4D4D",
"_.	c #73829D",
":.	c #318ABA",
"<.	c #349DCC",
"[.	c #3297C6",
"}.	c #3192C2",
"|.	c #2F8CBC",
"1.	c #2E87B8",
"2.	c #4B6B95",
"3.	c #888786",
"4.	c #797B7B",
"5.	c #849C92",
"6.	c #CACAC9",
"7.	c #F5F3F0",
"8.	c #F7F4F0",
"9.	c #EFEAE5",
"0.	c #E4DED7",
"a.	c #D7D1C8",
"b.	c #CCC5BA",
"c.	c #AEA69A",
"d.	c #4F4B44",
"e.	c #255386",
"f.	c #3191C0",
"g.	c #2F8BBB",
"h.	c #2E86B6",
"i.	c #2C80B1",
"j.	c #2B7BAC",
"k.	c #266193",
"l.	c #8E9DB4",
"m.	c #555756",
"n.	c #778886",
"o.	c #84BA7C",
"p.	c #7DB574",
"q.	c #797B7A",
"r.	c #DEDBD8",
"s.	c #F2EEE8",
"t.	c #F2ECE5",
"u.	c #E9E3D9",
"v.	c #DAD3C8",
"w.	c #D4CCBF",
"x.	c #B6AE9E",
"y.	c #524D45",
"z.	c #757B7D",
"A.	c #4B6E98",
"B.	c #2B79AB",
"C.	c #2D6483",
"D.	c #546973",
"E.	c #546772",
"F.	c #296E99",
"G.	c #2B5E86",
"H.	c #55575F",
"I.	c #93D585",
"J.	c #88CF79",
"K.	c #69AA5E",
"L.	c #7E998C",
"M.	c #787978",
"N.	c #C6C1BB",
"O.	c #EFE8DE",
"P.	c #EEE5D9",
"Q.	c #E0D8CA",
"R.	c #D9D0BF",
"S.	c #C0B6A3",
"T.	c #544F46",
"U.	c #201F1C",
"V.	c #929CA7",
"W.	c #2D404E",
"X.	c #9F717B",
"Y.	c #2B5E7D",
"Z.	c #96D787",
"`.	c #7CC96D",
" +	c #6FC15E",
".+	c #569F4B",
"++	c #787977",
"@+	c #DAD2C7",
"#+	c #ECE3D4",
"$+	c #E5DCCB",
"%+	c #DBD1BD",
"&+	c #C5B8A3",
"*+	c #575147",
"=+	c #837C80",
"-+	c #BB9DA9",
";+	c #A53536",
">+	c #D67C67",
",+	c #9F5562",
"'+	c #9FAEB1",
")+	c #729973",
"!+	c #7AC76A",
"~+	c #61B94F",
"{+	c #55B344",
"]+	c #419435",
"^+	c #789586",
"/+	c #777775",
"(+	c #C2B9AC",
"_+	c #E5DAC5",
":+	c #E0D4BD",
"<+	c #C6B8A0",
"[+	c #575046",
"}+	c #AB5056",
"|+	c #C44C41",
"1+	c #E98267",
"2+	c #EC9275",
"3+	c #BC6660",
"4+	c #9F8D95",
"5+	c #82878A",
"6+	c #ABBBBF",
"7+	c #5E905A",
"8+	c #63BB52",
"9+	c #4AAC38",
"0+	c #3A902D",
"a+	c #6B6B69",
"b+	c #A49B8E",
"c+	c #E3D5C0",
"d+	c #E3D4BC",
"e+	c #CABBA0",
"f+	c #575145",
"g+	c #C4B5C0",
"h+	c #9F191E",
"i+	c #C8342B",
"j+	c #DF523F",
"k+	c #E3634D",
"l+	c #E7785E",
"m+	c #EA886C",
"n+	c #D67A66",
"o+	c #B47D85",
"p+	c #75797B",
"q+	c #B9C4CC",
"r+	c #B0C1C6",
"s+	c #5B8C5B",
"t+	c #47AB35",
"u+	c #686967",
"v+	c #978F83",
"w+	c #C2B7A6",
"x+	c #E5D6C0",
"y+	c #E8D7BC",
"z+	c #CCBA9E",
"A+	c #595146",
"B+	c #B22120",
"C+	c #DA3728",
"D+	c #DE4A38",
"E+	c #E15B46",
"F+	c #E56F57",
"G+	c #E88065",
"H+	c #EC9577",
"I+	c #A63D3C",
"J+	c #8F9599",
"K+	c #D7E6F0",
"L+	c #42803C",
"M+	c #867F75",
"N+	c #E1D3BE",
"O+	c #EADAC1",
"P+	c #E8D6BA",
"Q+	c #CFBB9D",
"R+	c #595145",
"S+	c #A8454C",
"T+	c #CF2D22",
"U+	c #DC402F",
"V+	c #DF503D",
"W+	c #E3654E",
"X+	c #E6755C",
"Y+	c #EA8A6E",
"Z+	c #D67B66",
"`+	c #B18591",
" @	c #C6D2DB",
".@	c #458044",
"+@	c #E5D7C1",
"@@	c #E9D7BC",
"#@	c #E8D5B8",
"$@	c #D3BD9C",
"%@	c #5A5144",
"&@	c #BC2520",
"*@	c #DA3829",
"=@	c #DD4836",
"-@	c #E25D48",
";@	c #E56D56",
">@	c #B37B83",
",@	c #B2BDC4",
"'@	c #D1DFE9",
")@	c #E9D8BD",
"!@	c #E6D3B4",
"~@	c #D5BD9B",
"{@	c #5C5144",
"]@	c #D93224",
"^@	c #C8332A",
"/@	c #B54342",
"(@	c #C4D1DA",
"_@	c #E6D2B3",
":@	c #E5D0AF",
"<@	c #D5BC98",
"[@	c #5D5243",
"}@	c #B1717B",
"|@	c #E4CDAB",
"1@	c #D5BC96",
"2@	c #5E5343",
"3@	c #686968",
"4@	c #67625C",
"5@	c #6C6760",
"6@	c #A39A8D",
"7@	c #E4CDAA",
"8@	c #E3CBA6",
"9@	c #D3B891",
"0@	c #5E5241",
"a@	c #6C6862",
"b@	c #908A82",
"c@	c #B5ACA0",
"d@	c #C6BCAC",
"e@	c #D3C7B5",
"f@	c #E1C8A2",
"g@	c #D2B68D",
"h@	c #5D5241",
"i@	c #696A69",
"j@	c #68645F",
"k@	c #9C978F",
"l@	c #BEB7AC",
"m@	c #D6CBBD",
"n@	c #E8DCC9",
"o@	c #EDDFCB",
"p@	c #EBDCC6",
"q@	c #E1C7A0",
"r@	c #E1C59C",
"s@	c #D2B58B",
"t@	c #5D5140",
"u@	c #6D6A65",
"v@	c #928D87",
"w@	c #B7B1A8",
"x@	c #D1C9BD",
"y@	c #E8DDCD",
"z@	c #EDE0CE",
"A@	c #EBDDC7",
"B@	c #74706A",
"C@	c #B0AAA1",
"D@	c #C6BEB3",
"E@	c #D8CEC0",
"F@	c #DED2C1",
"G@	c #DDD0BC",
"H@	c #DBCDB8",
"I@	c #DACBB3",
"J@	c #D9C9B0",
"K@	c #D9C6AA",
"L@	c #D8C4A7",
"M@	c #D8C2A1",
"N@	c #D8C09D",
"O@	c #D6BE99",
"P@	c #C8AA7F",
"Q@	c #5C513F",
"R@	c #4A4742",
"S@	c #59554E",
"T@	c #5D5951",
"U@	c #5E5951",
"V@	c #5E5950",
"W@	c #5E584E",
"X@	c #5E574D",
"Y@	c #5E574B",
"Z@	c #5E564A",
"`@	c #5E5549",
" #	c #5E5548",
".#	c #5F5545",
"+#	c #5E5443",
"@#	c #3F3931",
"                                                                ",
"                  . + @ # $ % & * = - ; > , '                   ",
"                  ) ! ! ! ! ! ! ! ! ~ { ] ^ / (                 ",
"                  _ : : : : : : : : : < [ } | 1 2               ",
"                  ) : : : : : : : : : : 3 4 5 6 7 8             ",
"                  9 : : : : : : : : : : : < 0 a b 7 c           ",
"                  d : : : : : : : : : : : : a e f g 7 h         ",
"                  i : : : : : : : : : : : : a j k f b l 8       ",
"                  m n o p q r ~ f : : : : : s t u v w x y z     ",
"                  A B C D E C F G : : : : : < H I J K L M N     ",
"            O q P Q R S T U D V W 3 n X f : Y f Z `  ...+.@.    ",
"            q #.$.%.&.*.=.-.E q ;.>.B ,.'.f Y ).!.~.{.].^./.    ",
"            (._.:.<.[.}.|.1.2.P 3.4.5.5.4.6.7.8.9.0.a.b.c.d.    ",
"              C e.f.g.h.i.j.k.l.m.n.o.p.n.q.r.s.t.u.v.w.x.y.    ",
"              z.A.B.C.D.E.F.G.H.5.o.I.J.K.L.M.N.O.P.Q.R.S.T.    ",
"              U.V.W.C X.C Y.E.n.o.Z.J.`. +.+n.++@+#+$+%+&+*+    ",
"              (.=+-+;+>+,+q '+)+I.J.!+ +~+{+]+^+/+(+_+:+<+[+    ",
"          U.C X.}+|+1+2+3+4+5+6+7+`. +8+{+9+0+^+a+b+c+d+e+f+    ",
"        q g+h+i+j+k+l+m+n+o+p+q+r+s+~+{+t+0+n.u+v+w+x+y+z+A+    ",
"        O 4+B+C+D+E+F+G+H+I+C J+K+r+L+9+0+^+u+M+w+N+O+P+Q+R+    ",
"          z.S+T+U+V+W+X+Y+Z+`+q  @K+r+.@n.u+v+w++@O+@@#@$@%@    ",
"          U.-+&@*@=@-@;@;+>@K+,@5+'@K+r+u+M+w+N+O+)@#@!@~@{@    ",
"            q ,+]@^@/@,+K+K+K+K+p+q+(@u+v+w++@O+@@#@_@:@<@[@    ",
"            O 4+h+}@g+K+K+K+K+K+C J+u+M+w+N+O+)@#@!@:@|@1@2@    ",
"              z.K+K+K+K+K+K+C 3@4@5@6@w++@O+@@#@_@:@7@8@9@0@    ",
"              U.K+K+K+K+,@q a@b@c@d@e@N+O+)@#@!@:@|@8@f@g@h@    ",
"                q K+C i@j@k@l@m@n@o@p@O+@@#@_@:@7@8@q@r@s@t@    ",
"                O q u@v@w@x@y@z@o@A@O+)@#@!@:@|@8@f@r@r@s@t@    ",
"                  B@C@D@E@F@G@H@I@J@K@L@M@N@O@1@9@g@s@s@P@Q@    ",
"                  R@S@T@U@V@W@X@Y@Z@`@ #.#.#+#2@0@h@t@t@Q@@#    ",
"                                                                ",
"                                                                "};
